<?xml version="1.0" encoding="UTF-8"?>
<svg id="Layer_1" xmlns="http://www.w3.org/2000/svg" version="1.1" viewBox="0 0 24 24">
  <!-- Generator: Adobe Illustrator 30.2.1, SVG Export Plug-In . SVG Version: 2.1.1 Build 1)  -->
  <defs>
    <style>
      .st0 {
        fill: #e1c443;
      }
    </style>
  </defs>
  <path class="st0" d="M19.45,9.94c-.01-.17-.03-.28.15-.34l-.29-2.08-13.8,1.87c-.07-.15-.1-.31-.06-.44l1.94-.66-2.2-1.18,1.41-.48,2.3,1.18,1.49-.52-2.2-1.17,1.41-.5,2.29,1.18,1.52-.51-2.22-1.18c.48-.22.93-.34,1.43-.5l2.3,1.21,1.49-.52-2.23-1.21,1.43-.48,2.32,1.21.93-.31-.67-2.03L1.32,8.04c.03.15-.04.26-.03.39l.47,3.59c.1.01.17,0,.28.04l1.46,10.61,17.37-2.36-1.41-10.38h-.01ZM2.35,9.17c-.14,0-.26-.12-.26-.26s.12-.26.26-.26.26.12.26.26-.12.26-.26.26ZM2.8,11.47c-.14,0-.26-.12-.26-.26s.12-.26.26-.26.26.12.26.26-.12.26-.26.26ZM16.78,8.15l1.52-.19-1.49,2.06-1.52.2,1.49-2.07ZM13.66,8.57l1.49-.19-1.47,2.06-1.52.19,1.5-2.06ZM10.53,9.01c.47-.07.9-.16,1.47-.19l-1.43,2.03c-.52.1-.99.16-1.53.2l1.49-2.04ZM7.41,9.41c.48-.04.92-.17,1.46-.16l-1.46,2.04-1.5.19,1.5-2.07ZM4.81,10.54c.14,0,.26.12.26.26s-.12.26-.26.26-.26-.12-.26-.26.12-.26.26-.26ZM4.35,8.26c.14,0,.26.12.26.26s-.12.26-.26.26-.26-.12-.26-.26.12-.26.26-.26ZM3.62,14.54c-.06-.2-.04-.36,0-.47,4.97-.67,9.95-1.36,14.92-2.04.06.1.12.26.13.47,0,.07-.01.15-.01.2l-14.94,2.03s-.06-.12-.09-.19ZM17.84,13.93l-1.2,3.41-1.41.16,1.2-3.38,1.41-.19ZM14.75,14.4l-1.18,3.35c-.47.1-.89.15-1.41.2l1.18-3.4c.48-.06.92-.16,1.41-.16h0ZM11.66,14.79l-1.2,3.38c-.5.07-.92.16-1.4.16l1.18-3.35c.47-.09.93-.17,1.41-.19h0ZM8.14,15.27l-1.18,3.37c-.47.12-.89.15-1.41.2l1.18-3.4,1.41-.17ZM19.4,18.55l-14.94,2.03s-.06-.12-.09-.19c-.01-.04-.03-.09-.01-.12-.01-.01-.01-.03-.01-.04-.01-.13,0-.23.01-.31,4.97-.67,9.95-1.36,14.92-2.04.03.06.07.15.1.25.03.04.03.09.01.13.01.03.01.06.01.09,0,.07-.01.15-.01.2h.01Z"/>
</svg>