<?xml version="1.0" encoding="UTF-8"?>
<svg id="Layer_1" data-name="Layer 1" xmlns="http://www.w3.org/2000/svg" viewBox="0 0 24 24">
  <defs>
    <style>
      .cls-1 {
        fill: #e0e0e0;
      }
    </style>
  </defs>
  <path class="cls-1" d="M17.77,13.7c0,2.19-1.55,4.07-4.39,4.56v2.52h-2.42v-2.34c-1.65-.08-3.26-.52-4.19-1.06l.74-2.89c1.04.57,2.49,1.09,4.1,1.09,1.41,0,2.37-.54,2.37-1.53s-.79-1.53-2.62-2.15c-2.64-.89-4.44-2.12-4.44-4.51,0-2.17,1.53-3.87,4.17-4.39V.65h2.42v2.17c1.65.07,2.77.42,3.58.81l-.72,2.79c-.64-.27-1.78-.84-3.55-.84-1.6,0-2.12.69-2.12,1.38,0,.81.86,1.33,2.96,2.12,2.94,1.04,4.12,2.39,4.12,4.61Z"/>
</svg>