<?xml version="1.0" encoding="UTF-8"?>
<svg id="Layer_1" xmlns="http://www.w3.org/2000/svg" version="1.1" viewBox="0 0 1080 500">
  <!-- Generator: Adobe Illustrator 30.0.0, SVG Export Plug-In . SVG Version: 2.1.1 Build 123)  -->
  <defs>
    <style>
      .st0 {
        fill: #fcfcfc;
      }

      .st1 {
        fill: #254384;
      }

      .st2 {
        fill: #213768;
      }

      .st3 {
        fill: #1f3264;
      }

      .st4 {
        fill: #231f20;
      }

      .st5 {
        fill: #f47458;
      }

      .st6 {
        fill: #ffc3b5;
      }

      .st7 {
        opacity: .1;
      }

      .st8 {
        fill: #3e4654;
      }

      .st9 {
        fill: #293241;
      }

      .st10 {
        fill: #f4b34a;
      }

      .st11 {
        fill: #d1d1d1;
      }

      .st12 {
        fill: #fec55e;
      }
    </style>
  </defs>
  <g id="_Слой_2">
    <path class="st12" d="M601.87,137.58l-12.83,5.7c-3.28,1.46-7.12-.03-8.58-3.3l-5.7-12.83c-1.46-3.28.02-7.12,3.3-8.58l12.83-5.7c3.28-1.46,7.12.03,8.58,3.3l5.7,12.83c1.45,3.28-.03,7.12-3.3,8.58h0Z"/>
    <rect class="st1" x="349.01" y="130.07" width="13.06" height="13.06" rx="3.88" ry="3.88"/>
    <rect class="st1" x="706.98" y="73.59" width="13.06" height="13.06" rx="3.88" ry="3.88"/>
    <path d="M607.87,22.99c-1.04,0-2.08-.39-2.87-1.19h0l-4.64-4.64c-.77-.77-1.19-1.79-1.19-2.87s.42-2.11,1.19-2.87l4.64-4.64c1.59-1.59,4.16-1.59,5.75,0l4.64,4.64c.77.77,1.19,1.79,1.19,2.87s-.42,2.11-1.19,2.87l-4.64,4.64c-.79.79-1.83,1.19-2.87,1.19h0ZM606.14,20.65c.95.95,2.5.95,3.45,0l4.64-4.64c.46-.46.71-1.07.71-1.72s-.25-1.26-.71-1.72l-4.64-4.64c-.95-.95-2.5-.95-3.45,0l-4.64,4.64c-.46.46-.71,1.07-.71,1.72s.25,1.26.71,1.72l4.64,4.64h0Z"/>
    <path d="M501,103.03c-1.04,0-2.08-.39-2.87-1.19l-4.64-4.64c-1.59-1.59-1.59-4.16,0-5.75l4.64-4.64c1.59-1.59,4.16-1.59,5.75,0l4.64,4.64c1.59,1.59,1.59,4.16,0,5.75l-4.64,4.64c-.79.79-1.83,1.19-2.87,1.19h0ZM501,87.26c-.63,0-1.25.23-1.72.71l-4.64,4.64c-.95.95-.95,2.5,0,3.45l4.64,4.64c.95.95,2.5.95,3.45,0l4.64-4.64c.95-.95.95-2.5,0-3.45l-4.64-4.64c-.47-.47-1.1-.71-1.72-.71h0Z"/>
    <rect class="st12" x="393.12" y="65.4" width="57.7" height="3.25" rx=".97" ry=".97"/>
  </g>
  <g id="Layer_11">
    <g>
      <g>
        <path class="st8" d="M704.75,493.03c40.45-16.29,43.74-74.46,20.09-106.28-23.66-31.82-27.62-42.98-19.15-94.02,13.55-81.6-76-164.43-243.03-101.85-134.33,50.33-161.4,216.54-79.89,302.15h321.98Z"/>
        <path class="st4" d="M733.79,491.67h-405.21c-.71,0-1.28.59-1.3,1.32v.03c-.02.76.57,1.39,1.3,1.39h405.21c.76,0,1.38-.61,1.38-1.37s-.62-1.37-1.38-1.37Z"/>
      </g>
      <g>
        <g>
          <polygon class="st2" points="668.79 491.78 414.92 491.4 414.92 340.78 672.43 340.78 668.79 491.78"/>
          <rect class="st3" x="409.64" y="340.76" width="264.7" height="35.98"/>
          <g>
            <path class="st6" d="M660.85,320.19c-.24.89-.38,1.19-.69,1.79-1.99,3.87-6.6,9.37-6.6,9.37l-3.57-8.58s.58-2.69,1.59-6.55c3.45.96,6.73,1.51,9.27,3.97h0Z"/>
            <path class="st11" d="M640.39,312.75s19.9,9.15,20.55,8.97c.41-.11,8.16-13.96,8.25-26.97.04-6.01-5.81-13.25-12.34-11.81-3.29.72-3.23,1.69-8.1,9.23-4.86,7.54-8.35,20.58-8.35,20.58h-.01Z"/>
            <path class="st6" d="M623.39,476.75s.47,8.34.47,8.36c.17,1.06.86,3.68.86,4.64,0,3.62-16.09-3.07-12.49-4.67.33-.15,2.03-1.24,2.15-2.47.17-1.9-.42-5.97-.42-5.97l9.43.12h0Z"/>
            <path class="st4" d="M612.28,485.04s3.78,1.11,5.71,1.38,4.49-2.05,5.85-1.42c1.51.69,1.45,6.93,1.45,6.93,0,0-19.81.69-25.96-.06-2.35-.29,5.22-4.25,12.95-6.82h0Z"/>
            <path class="st6" d="M656.32,476.75s.47,8.34.47,8.36c.17,1.06.86,3.68.86,4.64,0,3.62-16.09-3.07-12.49-4.67.33-.15,2.54-2.06,2.65-3.29.17-1.9.08-4.92.08-4.92l8.43-.12h0Z"/>
            <path class="st4" d="M645.21,485.04s3.78,1.11,5.71,1.38,4.49-2.05,5.85-1.42c1.51.69,1.57,6.93,1.57,6.93,0,0-20.2.8-26.08-.06-2.35-.35,5.22-4.25,12.95-6.82h0Z"/>
            <path class="st6" d="M652.01,306.86l-20.4,15.3c-.18.07-.55.22-1.12.45-2.06.83-6.35,2.55-10.63,4.07l-.05.02c-1.49.49-4.1,1.49-6.62,2.46-2.8,1.08-6.27,2.42-6.87,2.49-.11-.03-.29-.09-.55-.16-1.47-.44-4.93-.96-6.43-1.13-.95-.11-3.27-.14-3.21.91.09,1.66,2.35.74,3.83,1.43-.95.33-2.82,1-4.73,1.41l-4.49.52c-.34.07-2.84-.13-2.77,1.03v.06c.14,1.04,2.78.87,7.27,1.07-.51.17-1.12.34-1.68.47-.31,0-1.64.29-2.34.48-1.25-.14-3.21.09-2.96,1.32.13.62,2.86.42,2.86.42.37-.03,3.27-.22,3.84-.23-.96.18-5.08.9-5.03,1.88.05.81,1.16.81,2.04.75.52-.04,4.98-.79,5.5-.85-.66.42-5.07.42-5.05.8.09,1.58,8.03.57,8.37.48.99-.25,2.65-.67,4.11-1.58,1.75-1.09,4.55-2.61,4.97-2.84.89-.2,4.08-.85,8.11-1.67,1.72-.35,3.61-.73,5.56-1.13v-.02c.42-.08,1.76-.45,6.79-1.84,6.88-1.91,7.17-2.09,7.3-2.16,1.22-.73,22.51-17.19,23.42-17.89l.54-.41-9.59-5.93h0v.02Z"/>
            <g>
              <path class="st6" d="M654.83,269.32l1.83,12.31s-6.95,5.96-11.01,4.7c-3.4-1.06-1.07-5.8-1.07-5.8,0,0,1.81-6.57,1.25-10.02-.56-3.45,8.99-1.2,8.99-1.2h0Z"/>
              <path class="st2" d="M653.51,273.04c-1.74.88-5.19,2.08-7.87,2.37.25-1.72.4-3.55.19-4.89-.25-1.59,1.64-1.97,3.75-1.91,2.77.25,5.24.71,5.24.71l.35,2.37c-.53.59-1.08,1.07-1.66,1.36h0Z"/>
              <path class="st6" d="M663.6,255.11c.29,0-2.75,13.76-7.45,16.13-4.7,2.37-11.7,1.13-13.02-2.57-1.45-4.1,3.85-18.13,10.46-19.92,6.61-1.78,10.01,6.36,10.01,6.36h0Z"/>
              <path class="st4" d="M658.16,242.47c3.75,2.31,5.47,5.74,6.05,7.14,1.76.89,3.89,2.82,4.92,8.02,1.25,6.39-3.21,11.32-7.95,12.8-4.74,1.48-5.49,4.7-5.49,4.7l-.52-3.47s1.06-3.14,2.64-4.71c1.59-1.57-.75-3.86-.95-5.73-.16-1.44.83-4.23.62-6.59,0,0-2.63-4.26-5.23-5.31-4.43-1.79,1.11-9.82,5.93-6.85h0Z"/>
              <path class="st6" d="M656.17,263.62c-.61,1.59-.36,3.17.56,3.52s2.17-.64,2.78-2.23.36-3.17-.56-3.52c-.92-.36-2.17.64-2.78,2.23Z"/>
            </g>
            <path class="st4" d="M652.67,345.16s2.73,14.07,1.62,24.75c-1.11,10.67-1.2,48.57-1.2,48.57l4.24,60.65-10.07.23s-11.93-60.62-11.71-59.06c.22,1.56-4-42.69-4-42.69l14.23-33.79,6.89,1.33h0Z"/>
            <path class="st9" d="M650.01,344.5s1.78,12.67-.44,18.23c-2.22,5.56-19.07,60.09-19.29,64.54-.22,4.45-5.82,53.59-5.82,53.59l-11.7-.35-2.53-54.64,5.3-68.67,5.15-17.36,29.35,4.67h-.01,0Z"/>
            <path class="st6" d="M656.65,281.64s-2.89,2.02-5.58,1.79c-2.69-.23-6.5-2.89-6.5-2.89l.53-1.91s6.97-1.08,7.14-.97c.17.12,4.41,3.98,4.41,3.98h0Z"/>
            <path class="st0" d="M620.63,325.87c1.53-8.92,5.32-25.35,8.29-30.29,1.3-2.17,7.08-16.35,15.69-15.11,5.99.87,12.05,1.16,12.05,1.16,0,0,5.35.94,7.7,3.29s2.98,8.86-.41,21.22c-2.67,9.75-5.98,15.11-7.62,22.21-.33,2.39-.62,4.73-.99,7.48-.6,10.63.01,24.66.01,24.66,0,0-29.12,6.45-40.01-3.33,0,0,3.73-22.16,5.31-31.29h-.02Z"/>
            <path class="st10" d="M582.13,400.96l34.36,9.41c1,.28,2.07-.53,2.33-1.74l3.67-23.41c.63-2.97.57-6.23-1.89-6.9l-30.01-8.22c-.95-.26-1.98.45-2.29,1.59l-7.32,26.72c-.31,1.14.21,2.27,1.16,2.53h0Z"/>
            <polygon class="st10" points="609.94 413.2 617.44 410.33 613.36 405.97 610.09 406.05 609.94 413.2"/>
            <path class="st10" d="M596.24,375.41l2.14.59,1.94-7.08c.43-1.57,1.85-2.55,3.15-2.19l4.62,1.27c1.31.36,2.03,1.93,1.6,3.49l-1.94,7.08,2.14.59,1.94-7.08c.82-2.97-.55-5.95-3.04-6.63l-4.62-1.27c-2.49-.68-5.19,1.18-6,4.16l-1.94,7.08h0Z"/>
            <path class="st12" d="M620.59,378.33c-.74-.2-34.01-9.32-35.12-9.62-.91-.25-1.89.38-2.25,1.44l-.27.65h0l-12.19,28.75c-.33.77.08,1.66.88,1.91,7.22,2.26,38.27,11.74,38.27,11.74.8.22,5.45-21.36,7.28-30,.33-1.55,2.23-2.24,3.45-1.14,2.19,1.97,1.1,7.57,1.1,7.57l.14-.52.61-3.88c.63-2.97.57-6.23-1.89-6.9h-.01Z"/>
            <path class="st6" d="M609.89,361.44s-.67-.21-2.95.51c-2.28.72-4.55,3.57-4.33,4.75s1.89,1.18,1.89,1.18c0,0,.38,2.03,1.29,2.27.91.25,1.78.71,2.19,1.18.41.47,2.33.99,3.76-.22s4.18-7.53,4.18-7.53c0,0,19.41-21.17,20.65-25.86,1.23-4.69,7.49-25.68,7.49-25.68l-13.66-1.65s-3.95,15.23-5.19,19.42c-1.23,4.2-15.32,31.62-15.32,31.62h0Z"/>
            <path class="st11" d="M627.06,314.1s14.91,4.36,15.52,4.09c.39-.18,9.29-18.12,8.35-28.95-.52-5.99-7.03-9.97-11.43-7.93-3.05,1.42-4.03,2.88-7.58,11.12-3.55,8.24-4.85,21.67-4.85,21.67h0Z"/>
            <path class="st10" d="M610.16,394.26l-29.09-8.88-.55-4.54c-.05-.36.21-.69.58-.73.36-.05.69.21.73.58l.44,3.69,27.54,8.41,3.26-3.03c.27-.25.68-.23.93.03.25.27.23.68-.03.93l-3.81,3.55h-.01,0Z"/>
            <path class="st5" d="M603.58,336.13s-3.2-.98-3.31-3.02c0,0-.38,1.17.5,2.1s2.81.92,2.81.92h0Z"/>
            <rect class="st0" x="585.97" y="324.04" width="13.65" height="18.34" transform="translate(-80.52 237.86) rotate(-21.28)"/>
            <path class="st6" d="M598.99,330.34s-3.79-.52-3.9.66,4.75,1.87,5.05,2.27-.36-2.49-.36-2.49l-.8-.44h0Z"/>
          </g>
        </g>
        <g>
          <path class="st0" d="M602.92,198.64v41.52c0,2.93-2.37,5.3-5.3,5.3h-52.8l-29.45,16.93,5.3-16.93h0c-2.93,0-5.3-2.37-5.3-5.3v-41.52c0-2.93,2.37-5.3,5.3-5.3h76.95c2.93,0,5.3,2.37,5.3,5.3h0Z"/>
          <path class="st11" d="M592.19,209.08h-64.45c-1.65,0-2.98-1.33-2.98-2.98h0c0-1.65,1.33-2.98,2.98-2.98h64.45c1.65,0,2.98,1.33,2.98,2.98h0c0,1.65-1.33,2.98-2.98,2.98Z"/>
          <path class="st11" d="M592.19,218.02h-64.45c-1.65,0-2.98-1.33-2.98-2.98h0c0-1.65,1.33-2.98,2.98-2.98h64.45c1.65,0,2.98,1.33,2.98,2.98h0c0,1.65-1.33,2.98-2.98,2.98Z"/>
          <path class="st11" d="M570.31,227.75h-41.87c-1.65,0-2.98-1.33-2.98-2.98h0c0-1.65,1.33-2.98,2.98-2.98h41.87c1.65,0,2.98,1.33,2.98,2.98h0c0,1.65-1.33,2.98-2.98,2.98Z"/>
        </g>
        <g>
          <path class="st6" d="M540.78,287.52c-.21-.8-16.15,4.46-18.95,6.67-2.57,2.03-14.72,17.15-17.09,20.04l-14.32-16.34-8.83,8.03s18.13,21.78,24.14,21.78c3.19,0,9.63-14.77,14.95-23.51.87-1.3,1.51-2.17,1.79-2.37,1.55-1.09,5.41-.3,6.64-.62,1.22-.32,2.68-1.45,3.04-2.07s1.01-1.24.77-2.15-.05-1.46.09-2.4-.65-1.87-.71-2.09c-.06-.22,8.68-4.19,8.47-4.99h0Z"/>
          <path class="st6" d="M436.36,309.12c-6.11,19.91-5.79,19.37-4.99,31.64h7.38c-.23-5.12-.07-9.57-.07-9.57l6.54-16.01c-4.14-5.81-8.86-6.07-8.86-6.07h0Z"/>
          <path class="st2" d="M475.04,254.41c2.04,3.8,3.56,5.25,7.5,7.04,2.65,1.2,4.57,5.72,3.67,9.12-2.28,8.61,3.81,6.33,8.65,10.97,11.67,11.16-7.67,21.69-10.44,23.47-2.76,1.77-7.49,2.99-9.33,3.26-5.54.8-13.43-2.63-18.01-9-4.57-6.37-11.63-5.21-10.18-9.17,2.73-7.52-1.76-6.38-3.01-15.87-1.17-8.89,1.37-17.87,6.91-22.28,7.1-5.65,19.7-5.97,24.23,2.47h0Z"/>
          <path class="st0" d="M484.07,311.5l3.36,3.22c3.51-.87,10.57-8.89,10.57-8.89,0,0-11.03-14.79-19.43-19.64-8.39-4.84-15.82-3.88-15.82-3.88,0,0-10.81,1.95-13.85,3.4-3.2,1.52-10.21,8.64-15.85,26.59,2.25,2.49,10.3,6.05,12.2,6.29,1.82-5.74,2.27-6.11,2.27-6.11.34,3.61-1.8,28.27-1.8,28.27h39.3l-.95-29.25h0s0,0,0,0Z"/>
          <path class="st6" d="M461.25,271.46s-.32,7.32-1.25,10.01,1.95,12.47,7.79,13.89c5.83,1.43.1-11.61.2-14.44.1-2.84,1.97-11.23,1.97-11.23l-8.7,1.77h0Z"/>
          <path class="st2" d="M461.25,271.46s-.02.49-.07,1.27c.46.37.96.71,1.51,1.03,2.32,1.32,4.43,1.54,6.21,1.03.52-2.68,1.05-5.1,1.05-5.1l-8.7,1.77h0Z"/>
          <path class="st6" d="M463,251.48s-3.42.95-5.39,4.31c-1.97,3.37-2.95,13.03,4.3,17.15,7.25,4.13,12.4-2.48,12.18-8.66-.22-6.18-1.95-14.35-11.1-12.8h0Z"/>
          <path class="st6" d="M457.94,264.38c.59,1.58.2,3.18-.87,3.58-1.07.4-2.41-.56-3-2.14s-.2-3.18.87-3.58c1.07-.4,2.41.56,3,2.14Z"/>
        </g>
        <g>
          <g>
            <path class="st8" d="M382.86,453.89s35.97-26.7,40.9-38.21c4.93-11.51-5.23-10.21-5.23-10.21,0,0,14.53-20.58,10.67-27.38-3.86-6.8-11.88,1.89-11.88,1.89,0,0,6.74-27.84.88-29.39-10.91-2.89-19.87,27.08-19.87,27.08,0,0,.81-12.44-6.03-10.76-10.3,2.53-4.85,29.31-4.85,29.31,0,0-3.28-4.75-8.93-.23-10.13,8.11,4.34,57.91,4.34,57.91h0Z"/>
            <path class="st0" d="M377,396.67c5.65-4.52,10.45-.46,10.45-.46,0,0-5.45-26.78,4.85-29.31,6.83-1.67,6.03,10.76,6.03,10.76,0,0,8.95-29.96,19.87-27.08l-35.61,103.22c-1.59-6.45-15.06-49.56-5.59-57.13h0Z"/>
          </g>
          <path class="st11" d="M382.91,452.96s36.86-.04,44.47-6.43c7.61-6.39-1.72-6.89-1.72-6.89,0,0,17.62-9.35,17.36-15.59-.25-6.24-6.23-4.98-6.23-4.98,0,0,12.18-10.91,9.67-16.19-3.84-8.13-21.25,7.29-21.25,7.29,0,0,1.33-6.18-4.07-7.47-8.15-1.95-16.41,21.21-16.41,21.21,0,0,3.9-10.43-1.7-9.27-10.04,2.08-20.12,38.33-20.12,38.33h0Z"/>
          <g>
            <path class="st9" d="M381.38,455.01s-32.72-27.92-36.71-39.17c-3.99-11.25,5.6-9.39,5.6-9.39,0,0-12.57-20.46-8.49-26.7,4.08-6.24,11.19,2.51,11.19,2.51,0,0-4.72-26.9.95-28.01,10.56-2.09,17.26,26.97,17.26,26.97,0,0-.01-11.89,6.39-9.88,9.65,3.03,2.84,28.18,2.84,28.18,0,0,3.56-9.4,8.66-4.76,9.15,8.33-7.67,60.25-7.67,60.25h-.02Z"/>
            <path class="st11" d="M392.19,389.32c-5.96-3.47-9.58,2.81-9.58,2.81,0,0,4.59-17.77-5.06-20.79-6.39-2.01-6.39,9.88-6.39,9.88,0,0-6.71-29.05-17.26-26.97l26.61,106.38c1.91-6.04,22.44-65.06,11.67-71.32h0Z"/>
          </g>
          <path class="st11" d="M378.08,451.01s-35.94.01-40.94-.57c-5-.58.53-5.04.53-5.04,0,0-11.18.41-12.89-2.31s2.87-3.79,2.87-3.79c0,0-11.14-3.23-10.61-5.59.99-4.41,13.29-1.53,13.29-1.53,0,0-4.57-2.22-2.71-4.28,2.8-3.11,14.76,5.34,14.76,5.34,0,0-4.1-7.82-1.84-9.57,9.48-7.32,37.55,27.35,37.55,27.35h0Z"/>
          <path class="st0" d="M352.14,491.46h59.82c7.62-6.96,12.26-16.54,12.09-27.06-.09-5.31-1.18-9.94-3.46-14.48l-77.12.87c-2.13,4.61-3.27,9.69-3.19,15,.16,10.01,4.66,19.05,11.86,25.67h0Z"/>
        </g>
      </g>
    </g>
  </g>
  <path class="st7" d="M1059.58,275.91c-1.04,0-2.08-.39-2.87-1.19h0l-4.64-4.64c-.77-.77-1.19-1.79-1.19-2.87s.42-2.11,1.19-2.87l4.64-4.64c1.59-1.59,4.16-1.59,5.75,0l4.64,4.64c.77.77,1.19,1.79,1.19,2.87s-.42,2.11-1.19,2.87l-4.64,4.64c-.79.79-1.83,1.19-2.87,1.19h0ZM1057.86,273.57c.95.95,2.5.95,3.45,0l4.64-4.64c.46-.46.71-1.07.71-1.72s-.25-1.26-.71-1.72l-4.64-4.64c-.95-.95-2.5-.95-3.45,0l-4.64,4.64c-.46.46-.71,1.07-.71,1.72s.25,1.26.71,1.72l4.64,4.64h0Z"/>
  <path class="st7" d="M13.21,367.44c-1.04,0-2.08-.39-2.87-1.19h0l-4.64-4.64c-.77-.77-1.19-1.79-1.19-2.87s.42-2.11,1.19-2.87l4.64-4.64c1.59-1.59,4.16-1.59,5.75,0l4.64,4.64c.77.77,1.19,1.79,1.19,2.87s-.42,2.11-1.19,2.87l-4.64,4.64c-.79.79-1.83,1.19-2.87,1.19h0ZM11.48,365.11c.95.95,2.5.95,3.45,0l4.64-4.64c.46-.46.71-1.07.71-1.72s-.25-1.26-.71-1.72l-4.64-4.64c-.95-.95-2.5-.95-3.45,0l-4.64,4.64c-.46.46-.71,1.07-.71,1.72s.25,1.26.71,1.72l4.64,4.64h0Z"/>
</svg>