<?xml version="1.0" encoding="UTF-8"?>
<svg id="Layer_1" xmlns="http://www.w3.org/2000/svg" version="1.1" viewBox="0 0 1080 1080">
  <!-- Generator: Adobe Illustrator 30.0.0, SVG Export Plug-In . SVG Version: 2.1.1 Build 123)  -->
  <defs>
    <style>
      .st0 {
        fill: #fcfcfc;
      }

      .st1 {
        fill: #fff;
      }

      .st2 {
        fill: #254384;
      }

      .st3 {
        fill: #213768;
      }

      .st4 {
        fill: #1f3264;
      }

      .st5 {
        fill: #231f20;
      }

      .st6 {
        fill: #f47458;
      }

      .st7 {
        fill: #e0bc27;
      }

      .st8 {
        fill: #d8d8d8;
      }

      .st9 {
        fill: #ffc3b5;
      }

      .st10 {
        isolation: isolate;
        opacity: .2;
      }

      .st11 {
        opacity: .1;
      }

      .st12 {
        fill: #3e4654;
      }

      .st13 {
        fill: #293241;
      }

      .st14 {
        fill: #f4b34a;
      }

      .st15 {
        fill: #d1d1d1;
      }

      .st16 {
        fill: #fec55e;
      }

      .st17 {
        opacity: .5;
      }
    </style>
  </defs>
  <rect class="st10" x="1.47" y="672.58" width="1080.39" height="284.02"/>
  <g class="st17">
    <path class="st1" d="M1.47,959.41h1080.39v-5.6H1.47v5.6ZM1.47,669.78v5.6h1080.39v-5.6H1.47Z"/>
  </g>
  <g>
    <path class="st8" d="M363.38,764.64c-3.16,0-5.77-.5-7.81-1.51-2.05-1-3.56-2.53-4.55-4.57-.99-2.05-1.48-4.63-1.48-7.76s.49-5.74,1.48-7.84c.99-2.1,2.5-3.68,4.55-4.74,2.04-1.06,4.65-1.59,7.81-1.59h12.61v24.49h-7.48v-19.64l1.84,1.62h-6.97c-1.53,0-2.75.18-3.68.53s-1.61,1.08-2.04,2.18c-.43,1.1-.64,2.76-.64,4.99s.2,3.71.59,4.77c.39,1.06,1.05,1.76,1.98,2.09.93.33,2.19.5,3.79.5h18.47v6.47h-18.47,0ZM381.85,764.64v-6.47c.22,0,.4.07.53.22s.24.37.33.67c.09.3.16.64.2,1.03s.06.83.06,1.31-.02.93-.06,1.34c-.04.41-.1.75-.2,1.03-.09.28-.2.49-.33.64-.13.15-.31.22-.53.22h0Z"/>
    <path class="st8" d="M381.85,764.64c-.22,0-.4-.07-.53-.22s-.24-.36-.33-.64-.16-.62-.2-1.03c-.04-.41-.06-.86-.06-1.34,0-.67.04-1.24.11-1.7.08-.46.2-.84.36-1.12.17-.28.38-.42.64-.42v6.47h.01ZM381.85,764.64v-6.47h13.95v6.47h-13.95ZM395.79,764.64v-6.47c.22,0,.4.07.53.22s.24.37.33.67c.09.3.16.64.2,1.03s.06.83.06,1.31-.02.93-.06,1.34c-.04.41-.1.75-.2,1.03-.09.28-.21.49-.33.64-.13.15-.31.22-.53.22h0Z"/>
    <path class="st8" d="M395.79,764.64c-.22,0-.4-.07-.53-.22s-.24-.36-.33-.64-.16-.62-.2-1.03c-.04-.41-.06-.86-.06-1.34,0-.67.04-1.24.11-1.7.08-.46.2-.84.36-1.12.17-.28.38-.42.64-.42v6.47h.01ZM395.79,764.64v-6.47h13.95v6.47h-13.95ZM409.74,764.64v-6.47c.22,0,.4.07.53.22s.24.37.33.67c.09.3.16.64.2,1.03s.06.83.06,1.31-.02.93-.06,1.34c-.04.41-.1.75-.2,1.03-.09.28-.21.49-.33.64-.13.15-.31.22-.53.22h0Z"/>
    <path class="st8" d="M409.74,764.64c-.22,0-.4-.07-.53-.22s-.24-.36-.33-.64-.16-.62-.2-1.03c-.04-.41-.06-.86-.06-1.34,0-.67.04-1.24.11-1.7.08-.46.2-.84.36-1.12.17-.28.38-.42.64-.42v6.47h.01ZM409.74,764.64v-6.47h8.15l-1.67,1.73v-17.57h7.48v22.32h-13.96ZM423.69,764.64v-6.47h4.52c1.19,0,2.1-.18,2.73-.53s1.07-1.08,1.31-2.18.36-2.74.36-4.94v-10.99h7.48v10.99c0,3.31-.42,6.01-1.26,8.09s-2.13,3.61-3.88,4.58-4,1.45-6.75,1.45h-4.52.01ZM442.55,764.64c-1.53,0-3.04-.29-4.55-.86-1.51-.58-2.89-1.44-4.16-2.59l4.57-4.74c.74.6,1.44,1.03,2.09,1.31s1.33.42,2.04.42h10.43l-3.85,3.51v-12.39c0-.59-.07-1.5-.2-2.71s-.32-2.58-.56-4.13c-.24-1.54-.53-3.11-.86-4.71l7.36-1.12c.26,1.34.51,2.84.75,4.49.24,1.66.45,3.22.64,4.69s.28,2.63.28,3.49v15.34h-14,.02ZM456.55,764.64v-6.47h5.91v6.47h-5.91ZM462.47,764.64v-6.47c.19,0,.35.07.5.22s.26.37.33.67c.07.3.14.64.2,1.03s.08.83.08,1.31-.03.93-.08,1.34c-.06.41-.12.75-.2,1.03-.08.28-.19.49-.33.64s-.32.22-.5.22h0Z"/>
    <path class="st8" d="M462.47,764.64c-.22,0-.4-.07-.53-.22s-.24-.36-.33-.64-.16-.62-.2-1.03c-.04-.41-.06-.86-.06-1.34,0-.67.04-1.24.11-1.7.08-.46.2-.84.36-1.12.17-.28.38-.42.64-.42v6.47h.01ZM462.47,764.64v-6.47h38.72l-5.19,4.18v-9.54c0-3.2-.42-5.77-1.26-7.7s-2.16-3.34-3.96-4.21-4.14-1.31-7-1.31c-1.38,0-2.88.05-4.52.14-1.64.09-3.26.21-4.88.33-1.62.13-3.08.27-4.38.42l-.78-5.02c1.26-.33,2.73-.69,4.41-1.06,1.67-.37,3.43-.69,5.27-.95,1.84-.26,3.64-.39,5.38-.39,2.42,0,4.77.33,7.06.98s4.34,1.73,6.16,3.24c1.82,1.51,3.27,3.52,4.35,6.05,1.08,2.53,1.62,5.69,1.62,9.48v11.83h-41.01.01ZM468.21,758.17v-2.79c0-1.79.45-3.45,1.37-4.99.91-1.54,2.17-2.77,3.77-3.68,1.6-.91,3.38-1.37,5.36-1.37s3.74.46,5.3,1.37,2.8,2.13,3.71,3.65c.91,1.53,1.37,3.2,1.37,5.02v2.79h-5.91v-2.79c0-.93-.2-1.76-.61-2.48-.41-.73-.95-1.31-1.62-1.76-.67-.45-1.41-.67-2.23-.67s-1.57.22-2.26.67-1.24,1.03-1.65,1.76-.61,1.55-.61,2.48v2.79h-5.99Z"/>
    <path class="st8" d="M545.49,764.64v-39.45h7.42v39.45h-7.42ZM552.91,764.64v-6.47h6.36v6.47h-6.36ZM559.27,764.64v-6.47c.22,0,.4.07.53.22s.24.37.33.67c.09.3.16.64.2,1.03.04.39.06.83.06,1.31s-.02.93-.06,1.34c-.04.41-.1.75-.2,1.03-.09.28-.2.49-.33.64s-.31.22-.53.22h0Z"/>
    <path class="st8" d="M559.27,764.64c-.22,0-.4-.07-.53-.22s-.24-.36-.33-.64-.16-.62-.2-1.03c-.04-.41-.06-.86-.06-1.34,0-.67.04-1.24.11-1.7.08-.46.2-.84.36-1.12.17-.28.38-.42.64-.42v6.47h.01ZM559.27,764.64v-6.47h13.95v6.47h-13.95ZM573.22,764.64v-6.47c.22,0,.4.07.53.22s.24.37.33.67c.09.3.16.64.2,1.03.04.39.06.83.06,1.31s-.02.93-.06,1.34c-.04.41-.1.75-.2,1.03-.09.28-.2.49-.33.64s-.31.22-.53.22h0Z"/>
    <path class="st8" d="M573.22,764.64c-.22,0-.4-.07-.53-.22s-.24-.36-.33-.64-.16-.62-.2-1.03c-.04-.41-.06-.86-.06-1.34,0-.67.04-1.24.11-1.7.08-.46.2-.84.36-1.12.17-.28.38-.42.64-.42v6.47h.01ZM573.22,764.64v-6.47h13.95v6.47h-13.95ZM587.17,764.64v-6.47c.22,0,.4.07.53.22s.24.37.33.67c.09.3.16.64.2,1.03.04.39.06.83.06,1.31s-.02.93-.06,1.34c-.04.41-.1.75-.2,1.03-.09.28-.2.49-.33.64s-.31.22-.53.22h0Z"/>
    <path class="st8" d="M587.17,764.64c-.22,0-.4-.07-.53-.22s-.24-.36-.33-.64-.16-.62-.2-1.03c-.04-.41-.06-.86-.06-1.34,0-.67.04-1.24.11-1.7.08-.46.2-.84.36-1.12.17-.28.38-.42.64-.42v6.47h.01ZM587.17,764.64v-6.47h29.07l-4.07,3.96v-11.27c0-1.97-.22-3.52-.67-4.63-.45-1.12-1.21-1.92-2.29-2.4-1.08-.48-2.57-.73-4.46-.73-1.6,0-3.13.1-4.6.31-1.47.2-2.63.47-3.49.81l4.63-4.35c-.22.86-.43,1.92-.61,3.21-.19,1.28-.35,2.67-.5,4.16s-.22,2.92-.22,4.3.07,2.7.2,4.07c.13,1.38.29,2.6.47,3.68.19,1.08.32,1.82.39,2.23l-7.09,1.95c-.15-.52-.34-1.38-.59-2.59-.24-1.21-.44-2.61-.59-4.21s-.22-3.31-.22-5.13.08-3.6.25-5.33.39-3.29.67-4.69c.28-1.4.51-2.52.7-3.38.85-.33,2.24-.67,4.16-1s4.03-.5,6.33-.5c3.35,0,6.13.47,8.34,1.39,2.21.93,3.87,2.43,4.97,4.49s1.65,4.86,1.65,8.4v13.72h-32.43ZM604.63,779.43c-2.31,0-4.42-.13-6.33-.39-1.92-.26-3.3-.5-4.16-.73-.19-.67-.42-1.53-.7-2.57s-.5-2.22-.67-3.54-.25-2.67-.25-4.04.07-2.67.22-3.88c.15-1.21.34-2.26.59-3.15.24-.89.44-1.54.59-1.95l6.92,2.34c-.11.26-.23.78-.36,1.56s-.25,1.65-.36,2.59c-.11.95-.17,1.79-.17,2.54,0,.85.06,1.79.17,2.79s.27,1.97.47,2.9c.2.93.42,1.71.64,2.34l-4.8-4.18c.82.26,2,.47,3.54.64s3.13.25,4.77.25c1.97,0,3.5-.14,4.57-.42s1.82-.76,2.23-1.45c.41-.69.61-1.61.61-2.76v-10.15h7.42v10.43c0,2.64-.55,4.75-1.65,6.33-1.1,1.58-2.75,2.72-4.97,3.43-2.21.71-4.99,1.06-8.34,1.06h.02ZM619.58,764.64v-6.47h5.86v6.47h-5.86ZM625.44,764.64v-6.47c.22,0,.41.07.56.22s.26.37.33.67c.07.3.13.64.17,1.03s.06.83.06,1.31-.02.93-.06,1.34c-.04.41-.09.75-.17,1.03-.08.28-.19.49-.33.64-.15.15-.33.22-.56.22h0Z"/>
    <path class="st8" d="M625.44,764.64c-.22,0-.4-.07-.53-.22s-.24-.36-.33-.64-.16-.62-.2-1.03c-.04-.41-.06-.86-.06-1.34,0-.67.04-1.24.11-1.7.08-.46.2-.84.36-1.12.17-.28.38-.42.64-.42v6.47h.01ZM625.44,764.64v-6.47h10.21l-4.35,3.63v-25.16h7.48v28.01h-13.34ZM631.3,776.53v-6.36h7.48v6.36h-7.48ZM638.77,764.64v-6.47h5.86v6.47h-5.86ZM644.63,764.64v-6.47c.22,0,.41.07.56.22s.26.37.33.67c.07.3.13.64.17,1.03s.06.83.06,1.31-.02.93-.06,1.34c-.04.41-.09.75-.17,1.03-.08.28-.19.49-.33.64-.15.15-.33.22-.56.22h0Z"/>
    <path class="st8" d="M644.63,764.64c-.22,0-.4-.07-.53-.22s-.24-.36-.33-.64-.16-.62-.2-1.03c-.04-.41-.06-.86-.06-1.34,0-.67.04-1.24.11-1.7.08-.46.2-.84.36-1.12.17-.28.38-.42.64-.42v6.47h.01ZM644.63,764.64v-6.47h6.3v6.47h-6.3ZM650.94,764.64v-39.45h7.48v39.45h-7.48ZM658.41,764.64v-6.47h5.86v6.47h-5.86ZM664.27,764.64v-6.47c.22,0,.41.07.56.22s.26.37.33.67c.07.3.13.64.17,1.03s.06.83.06,1.31-.02.93-.06,1.34c-.04.41-.09.75-.17,1.03-.08.28-.19.49-.33.64-.15.15-.33.22-.56.22h0Z"/>
    <path class="st8" d="M664.27,764.64c-.22,0-.4-.07-.53-.22s-.24-.36-.33-.64-.16-.62-.2-1.03c-.04-.41-.06-.86-.06-1.34,0-.67.04-1.24.11-1.7.08-.46.2-.84.36-1.12.17-.28.38-.42.64-.42v6.47h.01ZM664.27,764.64v-6.47h38.94l-6.3,5.47v-11.72c0-2.12-.28-3.82-.84-5.11-.56-1.28-1.37-2.22-2.43-2.82-1.06-.59-2.33-.89-3.82-.89-1.6,0-3.11.32-4.52.95-1.41.63-2.74,1.45-3.99,2.45s-2.39,2.08-3.43,3.24c-1.04,1.15-1.97,2.26-2.79,3.32s-1.53,1.96-2.12,2.71l-1.67-5.41c1.52-1.93,2.95-3.74,4.27-5.41,1.32-1.67,2.71-3.13,4.16-4.38,1.45-1.25,3.05-2.21,4.8-2.9s3.77-1.03,6.08-1.03c2.49,0,4.6.42,6.33,1.26,1.73.84,3.15,1.98,4.27,3.43s1.92,3.09,2.4,4.91c.48,1.82.73,3.72.73,5.69v12.72h-40.07ZM668.12,758.17v-32.97h7.42v32.97h-7.42Z"/>
    <path class="st8" d="M722.85,764.64v-39.45h7.42v39.45h-7.42Z"/>
    <path class="st7" d="M108.35,831.56v-2.51h12.39v2.51h-12.39ZM108.35,837.14v-2.51h12.39v2.51h-12.39Z"/>
    <path class="st7" d="M110.8,880.66v-39.45h7.42v39.45h-7.42ZM118.22,880.66v-6.47h6.36v6.47h-6.36ZM124.58,880.66v-6.47c.22,0,.4.08.53.22.13.15.24.37.33.67.09.3.16.64.2,1.03.04.39.06.83.06,1.31s-.02.93-.06,1.34-.1.75-.2,1.03c-.09.28-.21.49-.33.64-.13.15-.31.22-.53.22h0Z"/>
    <path class="st7" d="M124.58,880.66c-.22,0-.4-.07-.53-.22s-.24-.36-.33-.64c-.09-.28-.16-.62-.2-1.03-.04-.41-.06-.85-.06-1.34,0-.67.04-1.24.11-1.7.08-.47.2-.84.36-1.12s.38-.42.64-.42v6.47h0ZM124.58,880.66v-6.47h13.95v6.47h-13.95ZM138.53,880.66v-6.47c.22,0,.4.08.53.22.13.15.24.37.33.67s.16.64.2,1.03.06.83.06,1.31-.02.93-.06,1.34-.1.75-.2,1.03c-.09.28-.21.49-.33.64-.13.15-.31.22-.53.22h0Z"/>
    <path class="st7" d="M138.53,880.66c-.22,0-.4-.07-.53-.22s-.24-.36-.33-.64-.16-.62-.2-1.03-.06-.85-.06-1.34c0-.67.04-1.24.11-1.7.08-.47.2-.84.36-1.12s.38-.42.64-.42v6.47h0ZM138.53,880.66v-6.47h13.95v6.47h-13.95ZM152.48,880.66v-6.47c.22,0,.4.08.53.22.13.15.24.37.33.67s.16.64.2,1.03.06.83.06,1.31-.02.93-.06,1.34-.1.75-.2,1.03c-.09.28-.21.49-.33.64-.13.15-.31.22-.53.22h0Z"/>
    <path class="st7" d="M152.48,880.66c-.22,0-.4-.07-.53-.22s-.24-.36-.33-.64-.16-.62-.2-1.03-.06-.85-.06-1.34c0-.67.04-1.24.11-1.7.08-.47.2-.84.36-1.12s.38-.42.64-.42v6.47h0ZM152.48,880.66v-6.47h10.21l-4.35,3.63v-25.16h7.48v28.01h-13.34ZM158.34,847.52v-6.36h7.48v6.36h-7.48Z"/>
    <path class="st7" d="M184.51,880.66v-39.45h7.42v39.45h-7.42ZM191.93,880.66v-6.47h6.36v6.47h-6.36ZM198.29,880.66v-6.47c.22,0,.4.08.53.22.13.15.24.37.33.67s.16.64.2,1.03.06.83.06,1.31-.02.93-.06,1.34-.1.75-.2,1.03c-.09.28-.21.49-.33.64-.13.15-.31.22-.53.22h0Z"/>
    <path class="st7" d="M198.29,880.66c-.22,0-.4-.07-.53-.22s-.24-.36-.33-.64-.16-.62-.2-1.03-.06-.85-.06-1.34c0-.67.04-1.24.11-1.7.08-.47.2-.84.36-1.12s.38-.42.64-.42v6.47h0ZM198.29,880.66v-6.47h23.99l-2.51,2.06v-10.32c0-2.23-.7-3.92-2.09-5.08-1.39-1.15-3.6-1.73-6.61-1.73-.86,0-2.03.07-3.52.2-1.49.13-3.11.33-4.85.59l-.73-5.91c1.6-.37,3.23-.69,4.88-.95,1.65-.26,3.28-.39,4.88-.39,3.05,0,5.73.53,8.03,1.59,2.31,1.06,4.12,2.58,5.44,4.55s1.98,4.35,1.98,7.14v14.73h-28.9,0ZM209.06,892.54v-6.36h7.48v6.36h-7.48ZM227.19,880.66v-6.47h5.91v6.47h-5.91ZM233.1,880.66v-6.47c.19,0,.35.08.5.22.15.15.26.37.33.67s.14.64.2,1.03.08.83.08,1.31-.03.93-.08,1.34c-.06.41-.12.75-.2,1.03-.07.28-.19.49-.33.64-.15.15-.32.22-.5.22h0Z"/>
    <path class="st7" d="M233.1,880.66c-.22,0-.4-.07-.53-.22s-.24-.36-.33-.64-.16-.62-.2-1.03-.06-.85-.06-1.34c0-.67.04-1.24.11-1.7.08-.47.2-.84.36-1.12s.38-.42.64-.42v6.47h0ZM233.1,880.66v-6.47h28.96l-3.4,2.9v-10.27c0-2.01-.22-3.58-.67-4.71-.45-1.13-1.22-1.93-2.32-2.4-1.1-.46-2.61-.7-4.55-.7-1.53,0-3.02.1-4.49.31-1.47.21-2.61.47-3.43.81l4.63-4.35c-.22.86-.44,1.93-.64,3.24-.2,1.3-.38,2.69-.53,4.16s-.22,2.91-.22,4.32c0,1.3.06,2.66.2,4.07.13,1.41.28,2.66.45,3.74s.31,1.82.42,2.23l-7.09,1.95c-.15-.52-.33-1.38-.56-2.57s-.42-2.6-.59-4.24-.25-3.37-.25-5.19.09-3.66.28-5.38c.19-1.73.4-3.29.64-4.69.24-1.4.47-2.52.7-3.38.89-.33,2.29-.67,4.18-1s4-.5,6.3-.5c3.35,0,6.13.47,8.34,1.4,2.21.93,3.87,2.44,4.97,4.52s1.65,4.89,1.65,8.42v13.78h-32.98Z"/>
    <path class="st8" d="M309.3,899.18c-.33-2.01-.64-3.96-.92-5.86s-.42-3.57-.42-5.02c0-2.9.56-5.4,1.67-7.5,1.12-2.1,2.7-3.73,4.74-4.88,2.05-1.15,4.46-1.73,7.25-1.73h13.28l-3.4,3.24v-10.55c0-1.93-.21-3.47-.64-4.6-.43-1.13-1.19-1.94-2.29-2.43-1.1-.48-2.69-.73-4.77-.73-1.41,0-2.86.1-4.32.31-1.47.21-2.63.47-3.49.81l4.69-4.35c-.26.89-.49,2.01-.7,3.35-.21,1.34-.36,2.73-.47,4.16-.11,1.43-.17,2.78-.17,4.04,0,1.38.06,2.76.17,4.16s.25,2.63.42,3.71.31,1.82.42,2.23l-7.09,1.95c-.19-.52-.38-1.38-.59-2.57-.2-1.19-.39-2.59-.56-4.21-.17-1.62-.25-3.34-.25-5.16s.08-3.6.25-5.33.38-3.29.64-4.69c.26-1.4.5-2.52.73-3.38.97-.37,2.4-.72,4.3-1.03s3.94-.47,6.14-.47c2.42,0,4.49.23,6.22.7s3.16,1.13,4.3,1.98c1.13.86,2.04,1.87,2.71,3.04.67,1.17,1.13,2.48,1.39,3.93s.39,2.99.39,4.63v13.72h-17.3c-.6,0-1.25.08-1.95.25-.71.17-1.39.5-2.04,1s-1.18,1.26-1.59,2.29c-.41,1.02-.61,2.39-.61,4.1,0,1.34.12,2.9.36,4.69.24,1.79.53,3.85.86,6.19h-7.36ZM338.92,880.66v-6.47h5.91v6.47h-5.91ZM344.84,880.66v-6.47c.19,0,.35.08.5.22.15.15.26.37.33.67.07.3.14.64.2,1.03s.08.83.08,1.31-.03.93-.08,1.34c-.06.41-.12.75-.2,1.03-.07.28-.19.49-.33.64-.15.15-.32.22-.5.22h0Z"/>
    <path class="st8" d="M344.84,880.66c-.22,0-.4-.07-.53-.22s-.24-.36-.33-.64-.16-.62-.2-1.03-.06-.85-.06-1.34c0-.67.04-1.24.11-1.7.08-.47.2-.84.36-1.12s.38-.42.64-.42v6.47h.01ZM344.84,880.66v-6.47h13.95v6.47h-13.95ZM358.79,880.66v-6.47c.22,0,.4.08.53.22.13.15.24.37.33.67s.16.64.2,1.03.06.83.06,1.31-.02.93-.06,1.34-.1.75-.2,1.03c-.09.28-.21.49-.33.64-.13.15-.31.22-.53.22h0Z"/>
    <path class="st8" d="M358.79,880.66c-.22,0-.4-.07-.53-.22s-.24-.36-.33-.64-.16-.62-.2-1.03-.06-.85-.06-1.34c0-.67.04-1.24.11-1.7.08-.47.2-.84.36-1.12s.38-.42.64-.42v6.47h.01ZM358.79,880.66v-6.47h13.95v6.47h-13.95ZM372.73,880.66v-6.47c.22,0,.4.08.53.22.13.15.24.37.33.67s.16.64.2,1.03.06.83.06,1.31-.02.93-.06,1.34-.1.75-.2,1.03c-.09.28-.21.49-.33.64-.13.15-.31.22-.53.22h0Z"/>
    <path class="st8" d="M372.73,880.66c-.22,0-.4-.07-.53-.22s-.24-.36-.33-.64-.16-.62-.2-1.03-.06-.85-.06-1.34c0-.67.04-1.24.11-1.7.08-.47.2-.84.36-1.12s.38-.42.64-.42v6.47h.01ZM372.73,880.66v-6.47h13.22l-4.35,3.63v-25.16h7.42v28.01h-16.29ZM374.74,892.54v-6.36h7.2v6.36h-7.2ZM384.9,892.54v-6.36h7.2v6.36h-7.2ZM389.02,880.66v-6.47h6.97v6.47h-6.97ZM396,880.66v-6.47c.19,0,.35.08.5.22.15.15.26.37.33.67.07.3.14.64.2,1.03s.08.83.08,1.31-.03.93-.08,1.34c-.06.41-.12.75-.2,1.03-.07.28-.18.49-.31.64s-.31.22-.53.22h.01Z"/>
    <path class="st8" d="M396,880.66c-.22,0-.4-.07-.53-.22s-.24-.36-.33-.64-.16-.62-.2-1.03-.06-.85-.06-1.34c0-.67.04-1.24.11-1.7.08-.47.2-.84.36-1.12s.38-.42.64-.42v6.47h.01ZM396,880.66v-6.47h28.96l-3.4,2.9v-10.27c0-2.01-.22-3.58-.67-4.71s-1.22-1.93-2.32-2.4c-1.1-.46-2.61-.7-4.55-.7-1.53,0-3.02.1-4.49.31-1.47.21-2.61.47-3.43.81l4.63-4.35c-.22.86-.44,1.93-.64,3.24-.2,1.3-.38,2.69-.53,4.16s-.22,2.91-.22,4.32c0,1.3.06,2.66.2,4.07.13,1.41.28,2.66.45,3.74s.31,1.82.42,2.23l-7.09,1.95c-.15-.52-.33-1.38-.56-2.57s-.42-2.6-.59-4.24c-.17-1.64-.25-3.37-.25-5.19s.09-3.66.28-5.38c.19-1.73.4-3.29.64-4.69.24-1.4.47-2.52.7-3.38.89-.33,2.29-.67,4.18-1s4-.5,6.3-.5c3.35,0,6.13.47,8.34,1.4s3.87,2.44,4.97,4.52,1.65,4.89,1.65,8.42v13.78h-32.98ZM428.97,880.66v-6.47h5.91v6.47h-5.91ZM434.89,880.66v-6.47c.19,0,.35.08.5.22.15.15.26.37.33.67.07.3.14.64.19,1.03s.08.83.08,1.31-.03.93-.08,1.34c-.06.41-.12.75-.19,1.03-.08.28-.19.49-.33.64-.15.15-.32.22-.5.22h0Z"/>
    <path class="st8" d="M434.89,880.66c-.22,0-.4-.07-.53-.22s-.24-.36-.33-.64-.16-.62-.2-1.03-.06-.85-.06-1.34c0-.67.04-1.24.11-1.7.08-.47.2-.84.36-1.12s.38-.42.64-.42v6.47h.01ZM434.89,880.66v-6.47h42.18l-6.3,5.47v-11.72c0-2.12-.28-3.82-.84-5.11-.56-1.28-1.37-2.22-2.43-2.82-1.06-.59-2.33-.89-3.82-.89-1.6,0-3.12.32-4.55.95-1.43.63-2.76,1.45-3.99,2.46-1.23,1-2.36,2.08-3.4,3.24-1.04,1.15-1.97,2.26-2.79,3.32-.82,1.06-1.53,1.96-2.12,2.71l-1.67-5.41c1.45-1.75,2.75-3.35,3.91-4.8,1.15-1.45,2.26-2.73,3.32-3.85,1.06-1.12,2.18-2.05,3.35-2.79,1.17-.74,2.45-1.31,3.85-1.7,1.39-.39,3.02-.59,4.88-.59,2.49,0,4.61.42,6.36,1.26s3.17,1.98,4.27,3.43c1.1,1.45,1.9,3.09,2.4,4.91s.75,3.72.75,5.69v12.72h-43.36ZM441.92,874.19v-21.54h7.48v21.54h-7.48ZM478.24,880.66v-6.47h5.86v6.47h-5.86ZM484.1,880.66v-6.47c.22,0,.4.08.53.22.13.15.24.37.33.67s.16.64.2,1.03.06.83.06,1.31-.02.93-.06,1.34-.1.75-.2,1.03c-.09.28-.2.49-.33.64-.13.15-.31.22-.53.22h0Z"/>
    <path class="st8" d="M484.1,880.66c-.22,0-.4-.07-.53-.22s-.24-.36-.33-.64-.16-.62-.2-1.03-.06-.85-.06-1.34c0-.67.04-1.24.11-1.7.08-.47.2-.84.36-1.12s.38-.42.64-.42v6.47h.01ZM484.1,880.66v-6.47h13.22l-4.35,3.63v-25.16h7.42v28.01h-16.29ZM488.06,847.52v-6.36h7.2v6.36h-7.2ZM498.21,847.52v-6.36h7.2v6.36h-7.2ZM500.39,880.66v-6.47h6.97v6.47h-6.97ZM507.36,880.66v-6.47c.19,0,.35.08.5.22.15.15.26.37.33.67.07.3.14.64.2,1.03s.08.83.08,1.31-.03.93-.08,1.34c-.06.41-.12.75-.2,1.03-.07.28-.18.49-.31.64s-.31.22-.53.22h.01Z"/>
    <path class="st8" d="M507.36,880.66c-.22,0-.4-.07-.53-.22s-.24-.36-.33-.64-.16-.62-.2-1.03-.06-.85-.06-1.34c0-.67.04-1.24.11-1.7.08-.47.2-.84.36-1.12s.38-.42.64-.42v6.47h.01ZM507.36,880.66v-6.47h6.3v6.47h-6.3ZM513.67,880.66v-39.45h7.48v39.45h-7.48,0ZM521.14,880.66v-6.47h5.86v6.47h-5.86ZM527,880.66v-6.47c.22,0,.41.08.56.22.15.15.26.37.33.67s.13.64.17,1.03.06.83.06,1.31-.02.93-.06,1.34-.09.75-.17,1.03c-.07.28-.19.49-.33.64-.15.15-.33.22-.56.22h0Z"/>
    <path class="st8" d="M527,880.66c-.22,0-.4-.07-.53-.22s-.24-.36-.33-.64-.16-.62-.2-1.03c-.04-.41-.06-.85-.06-1.34,0-.67.04-1.24.11-1.7.08-.47.2-.84.36-1.12s.38-.42.64-.42v6.47h.01ZM527,880.66v-6.47h6.3v6.47h-6.3ZM533.31,880.66v-39.45h7.48v39.45h-7.48Z"/>
    <path class="st8" d="M596.5,880.66c-3.16,0-5.77-.5-7.81-1.51-2.05-1-3.56-2.53-4.55-4.57-.99-2.05-1.48-4.63-1.48-7.75s.49-5.74,1.48-7.84c.99-2.1,2.5-3.68,4.55-4.74,2.05-1.06,4.65-1.59,7.81-1.59h12.61v24.49h-7.48v-19.64l1.84,1.62h-6.97c-1.53,0-2.75.18-3.68.53s-1.61,1.08-2.04,2.18c-.43,1.1-.64,2.76-.64,4.99s.2,3.71.59,4.77,1.05,1.76,1.98,2.09,2.19.5,3.79.5h18.47v6.47h-18.47ZM588.19,847.52v-6.36h7.2v6.36h-7.2ZM598.34,847.52v-6.36h7.2v6.36h-7.2ZM614.97,880.66v-6.47c.22,0,.4.08.53.22.13.15.24.37.33.67s.16.64.2,1.03c.04.39.06.83.06,1.31s-.02.93-.06,1.34-.1.75-.2,1.03c-.09.28-.21.49-.33.64-.13.15-.31.22-.53.22h0Z"/>
    <path class="st8" d="M614.97,880.66c-.22,0-.4-.07-.53-.22s-.24-.36-.33-.64-.16-.62-.2-1.03c-.04-.41-.06-.85-.06-1.34,0-.67.04-1.24.11-1.7.08-.47.2-.84.36-1.12s.38-.42.64-.42v6.47h.01ZM614.97,880.66v-6.47h13.95v6.47h-13.95ZM628.92,880.66v-6.47c.22,0,.4.08.53.22.13.15.24.37.33.67s.16.64.2,1.03c.04.39.06.83.06,1.31s-.02.93-.06,1.34-.1.75-.2,1.03c-.09.28-.2.49-.33.64s-.31.22-.53.22h0Z"/>
    <path class="st8" d="M628.92,880.66c-.22,0-.4-.07-.53-.22s-.24-.36-.33-.64-.16-.62-.2-1.03c-.04-.41-.06-.85-.06-1.34,0-.67.04-1.24.11-1.7.08-.47.2-.84.36-1.12s.38-.42.64-.42v6.47h.01ZM628.92,880.66v-6.47h13.95v6.47h-13.95ZM642.87,880.66v-6.47c.22,0,.4.08.53.22.13.15.24.37.33.67s.16.64.2,1.03c.04.39.06.83.06,1.31s-.02.93-.06,1.34-.1.75-.2,1.03c-.09.28-.2.49-.33.64s-.31.22-.53.22h0Z"/>
    <path class="st8" d="M642.87,880.66c-.22,0-.4-.07-.53-.22s-.24-.36-.33-.64-.16-.62-.2-1.03c-.04-.41-.06-.85-.06-1.34,0-.67.04-1.24.11-1.7.08-.47.2-.84.36-1.12s.38-.42.64-.42v6.47h.01ZM642.87,880.66v-6.47h10.21l-4.35,3.63v-25.16h7.48v28.01h-13.34ZM648.72,847.52v-6.36h7.48v6.36h-7.48ZM656.2,880.66v-6.47h5.86v6.47h-5.86ZM662.06,880.66v-6.47c.22,0,.41.08.56.22.15.15.26.37.33.67s.13.64.17,1.03.06.83.06,1.31-.02.93-.06,1.34-.09.75-.17,1.03c-.08.28-.19.49-.33.64s-.33.22-.56.22h0Z"/>
    <path class="st8" d="M662.06,880.66c-.22,0-.4-.07-.53-.22s-.24-.36-.33-.64-.16-.62-.2-1.03c-.04-.41-.06-.85-.06-1.34,0-.67.04-1.24.11-1.7.08-.47.2-.84.36-1.12s.38-.42.64-.42v6.47h.01ZM662.06,880.66v-6.47h13.22l-4.35,3.63v-25.16h7.42v28.01h-16.29ZM664.07,892.54v-6.36h7.2v6.36h-7.2ZM674.22,892.54v-6.36h7.2v6.36h-7.2ZM678.35,880.66v-6.47h6.97v6.47h-6.97ZM685.32,880.66v-6.47c.19,0,.35.08.5.22.15.15.26.37.33.67s.14.64.2,1.03.08.83.08,1.31-.03.93-.08,1.34c-.06.41-.12.75-.2,1.03s-.18.49-.31.64-.31.22-.53.22h.01Z"/>
    <path class="st8" d="M685.32,880.66c-.22,0-.4-.07-.53-.22s-.24-.36-.33-.64-.16-.62-.2-1.03c-.04-.41-.06-.85-.06-1.34,0-.67.04-1.24.11-1.7.08-.47.2-.84.36-1.12s.38-.42.64-.42v6.47h.01ZM685.32,880.66v-6.47h27.78v6.47h-27.78ZM695.81,879.77c-1.9-1.78-3.32-3.68-4.27-5.69-.95-2.01-1.42-4.15-1.42-6.42s.41-4.21,1.23-6.05,1.93-3.43,3.35-4.77c1.41-1.34,3.06-2.37,4.94-3.1,1.88-.73,3.86-1.09,5.94-1.09,1.12,0,2.29.11,3.51.33s2.4.52,3.51.89l-2.23,6.08c-.78-.26-1.55-.46-2.32-.61-.76-.15-1.5-.22-2.2-.22-1.64,0-3.09.36-4.35,1.09-1.26.73-2.24,1.72-2.93,2.99-.69,1.26-1.03,2.71-1.03,4.35,0,1.49.31,2.88.92,4.18s1.5,2.47,2.65,3.51l-5.3,4.52h0Z"/>
    <path class="st8" d="M774.69,880.66c-3.98,0-7.34-.52-10.07-1.56s-4.8-2.58-6.19-4.63c-1.4-2.05-2.09-4.59-2.09-7.64,0-.89.06-1.83.17-2.82s.25-1.93.42-2.85c.17-.91.33-1.72.47-2.43.15-.71.26-1.23.33-1.56l7.25,1.4c-.11.6-.26,1.36-.45,2.29s-.35,1.91-.5,2.93c-.15,1.02-.22,2-.22,2.93,0,1.45.23,2.66.7,3.63.46.97,1.16,1.74,2.09,2.32.93.58,2.1.98,3.52,1.2,1.41.22,3.07.33,4.96.33h27.17l-2.23,1.95v-18.63l1.9,1.62h-7.03c-1.67,0-2.97.21-3.88.61-.91.41-1.56,1.16-1.95,2.26-.39,1.1-.59,2.65-.59,4.66,0,2.19.2,3.82.59,4.88s1.04,1.77,1.95,2.12c.91.35,2.2.53,3.88.53v5.8c-3.2,0-5.81-.45-7.84-1.34s-3.53-2.31-4.52-4.27c-.99-1.95-1.48-4.53-1.48-7.73s.49-5.62,1.48-7.7,2.49-3.65,4.52-4.71c2.03-1.06,4.64-1.59,7.84-1.59h12.61v28.01h-32.81ZM791.93,847.52v-6.36h7.48v6.36h-7.48Z"/>
    <path class="st8" d="M835.17,894.5c-1.38,0-2.82-.1-4.32-.31-1.51-.2-3.12-.47-4.83-.81l1.12-5.97c1.86.22,3.44.39,4.74.5s2.4.17,3.29.17c2.68,0,4.61-.48,5.8-1.45s1.79-2.42,1.79-4.35v-24.49l1.84,1.34h-6.97c-1.53,0-2.75.18-3.68.53s-1.61,1.08-2.04,2.18c-.43,1.1-.64,2.76-.64,4.99s.2,3.71.59,4.77,1.05,1.76,1.98,2.09,2.19.5,3.79.5h5.13v6.47h-5.13c-3.16,0-5.77-.5-7.81-1.51-2.05-1-3.56-2.53-4.55-4.57-.99-2.05-1.48-4.63-1.48-7.75s.49-5.74,1.48-7.84c.99-2.1,2.5-3.68,4.55-4.74,2.05-1.06,4.65-1.59,7.81-1.59h12.61v29.63c0,2.53-.62,4.71-1.87,6.56-1.25,1.84-2.99,3.25-5.24,4.21-2.25.97-4.9,1.45-7.95,1.45h0ZM850.23,880.66v-6.47h5.86v6.47h-5.86ZM856.09,880.66v-6.47c.22,0,.4.08.53.22.13.15.24.37.33.67s.16.64.2,1.03c.04.39.06.83.06,1.31s-.02.93-.06,1.34-.1.75-.2,1.03c-.09.28-.21.49-.33.64-.13.15-.31.22-.53.22h0Z"/>
    <path class="st8" d="M856.09,880.66c-.22,0-.4-.07-.53-.22s-.24-.36-.33-.64-.16-.62-.2-1.03c-.04-.41-.06-.85-.06-1.34,0-.67.04-1.24.11-1.7.08-.47.2-.84.36-1.12s.38-.42.64-.42v6.47h.01ZM856.09,880.66v-6.47h13.95v6.47h-13.95ZM870.04,880.66v-6.47c.22,0,.4.08.53.22.13.15.24.37.33.67s.16.64.2,1.03c.04.39.06.83.06,1.31s-.02.93-.06,1.34-.1.75-.2,1.03c-.09.28-.2.49-.33.64s-.31.22-.53.22h0Z"/>
    <path class="st8" d="M870.04,880.66c-.22,0-.4-.07-.53-.22s-.24-.36-.33-.64-.16-.62-.2-1.03c-.04-.41-.06-.85-.06-1.34,0-.67.04-1.24.11-1.7.08-.47.2-.84.36-1.12s.38-.42.64-.42v6.47h.01ZM870.04,880.66v-6.47h13.95v6.47h-13.95ZM883.99,880.66v-6.47c.22,0,.4.08.53.22.13.15.24.37.33.67s.16.64.2,1.03c.04.39.06.83.06,1.31s-.02.93-.06,1.34-.1.75-.2,1.03c-.09.28-.2.49-.33.64s-.31.22-.53.22h0Z"/>
    <path class="st8" d="M883.99,880.66c-.22,0-.4-.07-.53-.22s-.24-.36-.33-.64-.16-.62-.2-1.03c-.04-.41-.06-.85-.06-1.34,0-.67.04-1.24.11-1.7.08-.47.2-.84.36-1.12s.38-.42.64-.42v6.47h.01ZM883.99,880.66v-6.47h8.15l-1.67,1.73v-17.57h7.48v22.32h-13.96ZM897.93,880.66v-6.47h4.52c1.19,0,2.1-.18,2.73-.53s1.07-1.08,1.31-2.18c.24-1.1.36-2.74.36-4.94v-10.99h7.48v10.99c0,3.31-.42,6.01-1.26,8.09s-2.13,3.61-3.88,4.57c-1.75.97-4,1.45-6.75,1.45h-4.52.01ZM902.01,847.52v-6.36h7.2v6.36h-7.2ZM907.42,838.98v-5.58h6.47v5.58h-6.47ZM916.79,880.66c-1.53,0-3.04-.29-4.55-.86-1.51-.58-2.89-1.44-4.16-2.59l4.57-4.74c.74.6,1.44,1.03,2.09,1.31s1.33.42,2.04.42h10.43l-3.85,3.52v-12.39c0-.59-.07-1.5-.2-2.71s-.32-2.58-.56-4.13c-.24-1.54-.53-3.11-.86-4.71l7.37-1.12c.26,1.34.51,2.84.75,4.49.24,1.66.46,3.22.64,4.69.19,1.47.28,2.63.28,3.49v15.34h-14,0ZM912.16,847.52v-6.36h7.2v6.36h-7.2Z"/>
    <path class="st8" d="M957.91,894.5c-1.38,0-2.82-.1-4.32-.31-1.51-.2-3.12-.47-4.83-.81l1.12-5.97c1.86.22,3.44.39,4.74.5s2.4.17,3.29.17c2.68,0,4.61-.48,5.8-1.45s1.79-2.42,1.79-4.35v-24.49l1.84,1.34h-6.97c-1.53,0-2.75.18-3.68.53s-1.61,1.08-2.04,2.18c-.43,1.1-.64,2.76-.64,4.99s.2,3.71.59,4.77,1.05,1.76,1.98,2.09,2.19.5,3.79.5h5.13v6.47h-5.13c-3.16,0-5.77-.5-7.81-1.51-2.05-1-3.56-2.53-4.55-4.57-.99-2.05-1.48-4.63-1.48-7.75s.49-5.74,1.48-7.84c.99-2.1,2.5-3.68,4.55-4.74,2.05-1.06,4.65-1.59,7.81-1.59h12.61v29.63c0,2.53-.62,4.71-1.87,6.56-1.25,1.84-2.99,3.25-5.24,4.21-2.25.97-4.9,1.45-7.95,1.45h0Z"/>
  </g>
  <g id="_Слой_2">
    <path class="st16" d="M628.84,182.35l-17.73,7.87c-4.54,2.02-9.84-.04-11.86-4.57l-7.87-17.73c-2.02-4.54.03-9.84,4.57-11.86l17.73-7.87c4.54-2.02,9.84.04,11.86,4.57l7.87,17.73c2.01,4.54-.04,9.84-4.57,11.86h0Z"/>
    <rect class="st2" x="279.47" y="171.98" width="18.04" height="18.04" rx="3.88" ry="3.88"/>
    <rect class="st2" x="774.07" y="93.94" width="18.04" height="18.04" rx="3.88" ry="3.88"/>
    <path d="M637.13,24.03c-1.44,0-2.87-.54-3.97-1.64h0l-6.4-6.4c-1.06-1.06-1.64-2.47-1.64-3.97s.58-2.91,1.64-3.97l6.4-6.4c2.19-2.19,5.75-2.19,7.94,0l6.4,6.4c1.06,1.06,1.64,2.47,1.64,3.97s-.58,2.91-1.64,3.97l-6.4,6.4c-1.09,1.09-2.53,1.64-3.97,1.64h0ZM634.75,20.8c1.31,1.31,3.45,1.31,4.77,0l6.4-6.4c.63-.63.99-1.48.99-2.38s-.35-1.75-.99-2.38l-6.4-6.4c-1.31-1.31-3.45-1.31-4.77,0l-6.4,6.4c-.63.63-.99,1.48-.99,2.38s.35,1.75.99,2.38l6.4,6.4h0Z"/>
    <path d="M489.48,134.63c-1.44,0-2.87-.54-3.97-1.64l-6.4-6.4c-2.19-2.19-2.19-5.75,0-7.94l6.4-6.4c2.19-2.19,5.75-2.19,7.94,0l6.4,6.4c2.19,2.19,2.19,5.75,0,7.94l-6.4,6.4c-1.09,1.09-2.53,1.64-3.97,1.64h0ZM489.48,112.84c-.87,0-1.73.32-2.38.98l-6.4,6.4c-1.31,1.31-1.31,3.45,0,4.77l6.4,6.4c1.31,1.31,3.45,1.31,4.77,0l6.4-6.4c1.31-1.31,1.31-3.45,0-4.77l-6.4-6.4c-.66-.66-1.52-.98-2.38-.98h0Z"/>
    <rect class="st16" x="340.42" y="82.62" width="79.72" height="4.49" rx=".97" ry=".97"/>
  </g>
  <g id="Layer_11">
    <g>
      <path class="st12" d="M770.99,673.49c55.88-22.5,60.44-102.88,27.75-146.85-32.68-43.97-38.17-59.38-26.46-129.91,18.72-112.74-105.01-227.19-335.79-140.72-185.6,69.54-223.01,299.19-110.39,417.47h444.88Z"/>
      <g>
        <g>
          <polygon class="st3" points="721.31 671.75 370.54 671.23 370.54 463.12 726.34 463.12 721.31 671.75"/>
          <rect class="st4" x="363.24" y="463.09" width="365.74" height="49.71"/>
          <g>
            <path class="st9" d="M710.33,434.67c-.34,1.23-.53,1.64-.95,2.47-2.75,5.34-9.12,12.95-9.12,12.95l-4.93-11.86s.8-3.72,2.2-9.05c4.76,1.32,9.3,2.09,12.81,5.48h0Z"/>
            <path class="st15" d="M682.07,424.39s27.5,12.64,28.39,12.39c.57-.15,11.28-19.28,11.4-37.27.05-8.31-8.03-18.3-17.05-16.32-4.54.99-4.47,2.34-11.19,12.76-6.72,10.42-11.54,28.44-11.54,28.44h-.01Z"/>
            <path class="st9" d="M658.58,650.98s.65,11.53.66,11.55c.24,1.47,1.18,5.08,1.18,6.41,0,5-22.24-4.24-17.25-6.45.45-.2,2.81-1.72,2.97-3.42.23-2.62-.58-8.25-.58-8.25l13.03.16h0Z"/>
            <path class="st5" d="M643.23,662.44s5.22,1.53,7.89,1.91,6.2-2.83,8.09-1.97c2.09.95,2,9.57,2,9.57,0,0-27.37.95-35.87-.08-3.25-.4,7.21-5.87,17.89-9.43h0Z"/>
            <path class="st9" d="M704.08,650.98s.65,11.53.66,11.55c.24,1.47,1.18,5.08,1.18,6.41,0,5-22.24-4.24-17.25-6.45.45-.2,3.52-2.85,3.66-4.54.23-2.62.11-6.79.11-6.79l11.65-.16h0Z"/>
            <path class="st5" d="M688.72,662.44s5.22,1.53,7.89,1.91c2.67.38,6.2-2.83,8.09-1.97,2.09.95,2.17,9.57,2.17,9.57,0,0-27.91,1.11-36.04-.08-3.24-.48,7.21-5.87,17.89-9.43h0Z"/>
            <path class="st9" d="M698.12,416.26l-28.18,21.14c-.25.1-.76.3-1.55.62-2.85,1.14-8.77,3.52-14.69,5.63l-.06.02c-2.06.68-5.66,2.06-9.15,3.4-3.87,1.49-8.67,3.34-9.5,3.44-.15-.04-.4-.12-.75-.23-2.03-.61-6.81-1.32-8.88-1.56-1.32-.15-4.52-.19-4.44,1.26.13,2.3,3.25,1.03,5.29,1.97-1.31.46-3.9,1.39-6.54,1.94l-6.2.72c-.46.1-3.92-.18-3.83,1.42v.08c.2,1.44,3.84,1.2,10.05,1.48-.7.23-1.54.46-2.33.65-.42,0-2.26.4-3.23.67-1.73-.2-4.44.12-4.09,1.82.18.85,3.95.58,3.95.58.51-.04,4.52-.3,5.31-.32-1.33.25-7.02,1.25-6.95,2.59.06,1.12,1.61,1.12,2.83,1.04.72-.05,6.88-1.09,7.6-1.17-.91.58-7,.58-6.98,1.1.12,2.18,11.1.79,11.56.67,1.37-.35,3.66-.92,5.68-2.18,2.42-1.5,6.28-3.6,6.87-3.92,1.23-.27,5.64-1.18,11.2-2.3,2.38-.49,4.99-1.01,7.69-1.56v-.02c.58-.11,2.43-.62,9.38-2.54,9.5-2.64,9.91-2.88,10.08-2.98,1.68-1.01,31.11-23.75,32.36-24.72l.74-.57-13.25-8.19h0v.02Z"/>
            <g>
              <path class="st9" d="M702.02,364.38l2.52,17.01s-9.6,8.23-15.21,6.5c-4.7-1.46-1.48-8.01-1.48-8.01,0,0,2.5-9.08,1.73-13.84-.77-4.76,12.43-1.66,12.43-1.66h0Z"/>
              <path class="st3" d="M700.2,369.52c-2.41,1.21-7.17,2.87-10.87,3.28.35-2.38.56-4.9.26-6.76-.35-2.2,2.27-2.72,5.19-2.64,3.83.35,7.24.99,7.24.99l.49,3.28c-.73.82-1.49,1.47-2.3,1.87h0Z"/>
              <path class="st9" d="M714.14,344.75c.4,0-3.8,19.01-10.29,22.28-6.49,3.28-16.17,1.56-17.99-3.55-2.01-5.66,5.32-25.05,14.45-27.52,9.13-2.47,13.83,8.79,13.83,8.79h0Z"/>
              <path class="st5" d="M706.63,327.29c5.18,3.19,7.56,7.93,8.36,9.86,2.43,1.23,5.38,3.9,6.79,11.08,1.73,8.83-4.44,15.63-10.99,17.68-6.55,2.05-7.59,6.49-7.59,6.49l-.71-4.79s1.46-4.33,3.65-6.5c2.19-2.17-1.04-5.33-1.32-7.91-.22-1.99,1.15-5.84.85-9.1,0,0-3.64-5.89-7.23-7.34-6.12-2.48,1.54-13.56,8.19-9.47h0Z"/>
              <path class="st9" d="M703.87,356.5c-.85,2.2-.5,4.38.77,4.87s3-.89,3.85-3.08.5-4.38-.77-4.87c-1.28-.49-3,.89-3.85,3.08Z"/>
            </g>
            <path class="st5" d="M699.04,469.17s3.77,19.44,2.23,34.19c-1.54,14.74-1.66,67.12-1.66,67.12l5.86,83.8-13.91.32s-16.49-83.76-16.18-81.61c.31,2.15-5.53-58.98-5.53-58.98l19.66-46.68,9.52,1.84h0Z"/>
            <path class="st13" d="M695.36,468.25s2.46,17.51-.61,25.19c-3.07,7.68-26.35,83.02-26.65,89.17-.31,6.14-8.05,74.04-8.05,74.04l-16.17-.49-3.49-75.49,7.33-94.88,7.12-23.99,40.55,6.45h-.01,0Z"/>
            <path class="st9" d="M704.53,381.4s-3.99,2.79-7.71,2.47c-3.72-.32-8.98-3.99-8.98-3.99l.73-2.64s9.62-1.49,9.86-1.34c.24.16,6.09,5.5,6.09,5.5h0Z"/>
            <path class="st0" d="M654.77,442.52c2.12-12.32,7.36-35.02,11.45-41.85,1.8-2.99,9.78-22.59,21.67-20.88,8.28,1.2,16.65,1.6,16.65,1.6,0,0,7.39,1.3,10.65,4.54,3.26,3.25,4.11,12.25-.56,29.32-3.69,13.48-8.26,20.88-10.53,30.69-.46,3.3-.85,6.54-1.37,10.34-.83,14.68.01,34.07.01,34.07,0,0-40.24,8.91-55.29-4.61,0,0,5.16-30.61,7.33-43.24h-.02Z"/>
            <path class="st14" d="M601.57,546.27l47.47,13.01c1.39.38,2.86-.73,3.22-2.4l5.07-32.34c.87-4.1.79-8.61-2.61-9.53l-41.47-11.36c-1.32-.36-2.74.62-3.16,2.2l-10.12,36.93c-.43,1.58.29,3.14,1.61,3.5h0Z"/>
            <polygon class="st14" points="639.99 563.18 650.35 559.22 644.72 553.19 640.2 553.31 639.99 563.18"/>
            <path class="st14" d="M621.07,510.97l2.96.81,2.68-9.78c.59-2.16,2.55-3.52,4.35-3.02l6.38,1.75c1.81.49,2.8,2.66,2.21,4.82l-2.68,9.78,2.96.81,2.68-9.78c1.13-4.11-.76-8.22-4.2-9.17l-6.38-1.75c-3.44-.94-7.17,1.63-8.29,5.75l-2.68,9.78h0Z"/>
            <path class="st16" d="M654.72,515.01c-1.02-.28-46.99-12.87-48.53-13.29-1.25-.35-2.61.53-3.11,1.99l-.37.89h0l-16.85,39.72c-.45,1.06.11,2.29,1.22,2.64,9.98,3.13,52.88,16.23,52.88,16.23,1.1.3,7.53-29.51,10.05-41.46.46-2.14,3.08-3.09,4.77-1.57,3.03,2.73,1.51,10.46,1.51,10.46l.2-.71.85-5.36c.87-4.1.79-8.61-2.61-9.53h-.01Z"/>
            <path class="st9" d="M639.93,491.66s-.93-.29-4.08.7c-3.15.99-6.29,4.93-5.99,6.56s2.61,1.63,2.61,1.63c0,0,.53,2.8,1.78,3.14,1.25.35,2.47.99,3.03,1.63.56.65,3.22,1.37,5.19-.3,1.97-1.67,5.77-10.41,5.77-10.41,0,0,26.82-29.25,28.53-35.73,1.7-6.48,10.35-35.48,10.35-35.48l-18.87-2.28s-5.46,21.04-7.17,26.84c-1.7,5.8-21.17,43.69-21.17,43.69h0Z"/>
            <path class="st15" d="M663.66,426.25s20.6,6.03,21.44,5.65c.54-.25,12.84-25.03,11.53-40-.72-8.28-9.71-13.78-15.79-10.96-4.21,1.96-5.57,3.98-10.48,15.37-4.91,11.38-6.71,29.94-6.71,29.94h0Z"/>
            <path class="st14" d="M640.3,537.02l-40.19-12.27-.75-6.28c-.06-.5.3-.95.8-1.01.5-.06.95.3,1.01.8l.61,5.1,38.05,11.62,4.51-4.19c.37-.35.94-.32,1.28.04.35.37.32.94-.04,1.28l-5.27,4.9h-.01,0Z"/>
            <path class="st6" d="M631.21,456.7s-4.42-1.35-4.58-4.18c0,0-.52,1.61.7,2.9,1.22,1.29,3.88,1.28,3.88,1.28h0Z"/>
            <rect class="st0" x="606.87" y="440" width="18.86" height="25.34" transform="translate(-122.26 254.54) rotate(-21.28)"/>
            <path class="st9" d="M624.86,448.69s-5.23-.72-5.38.91,6.56,2.58,6.98,3.14-.49-3.45-.49-3.45l-1.1-.61h0Z"/>
          </g>
        </g>
        <g>
          <path class="st0" d="M630.3,266.73v57.37c0,4.04-3.28,7.32-7.32,7.32h-72.95l-40.69,23.39,7.32-23.39h0c-4.04,0-7.32-3.28-7.32-7.32v-57.37c0-4.04,3.28-7.32,7.32-7.32h106.32c4.04,0,7.32,3.28,7.32,7.32h0Z"/>
          <path class="st15" d="M615.46,281.15h-89.06c-2.28,0-4.11-1.84-4.11-4.11h0c0-2.28,1.84-4.11,4.11-4.11h89.06c2.28,0,4.11,1.84,4.11,4.11h0c0,2.28-1.84,4.11-4.11,4.11Z"/>
          <path class="st15" d="M615.46,293.5h-89.06c-2.28,0-4.11-1.84-4.11-4.11h0c0-2.28,1.84-4.11,4.11-4.11h89.06c2.28,0,4.11,1.84,4.11,4.11h0c0,2.28-1.84,4.11-4.11,4.11Z"/>
          <path class="st15" d="M585.24,306.94h-57.85c-2.28,0-4.11-1.84-4.11-4.11h0c0-2.28,1.84-4.11,4.11-4.11h57.85c2.28,0,4.12,1.84,4.12,4.11h0c0,2.28-1.84,4.11-4.12,4.11Z"/>
        </g>
        <g>
          <path class="st9" d="M544.44,389.53c-.29-1.11-22.31,6.16-26.18,9.22-3.55,2.8-20.34,23.7-23.61,27.7l-19.79-22.57-12.2,11.1s25.05,30.09,33.36,30.09c4.41,0,13.31-20.41,20.66-32.48,1.2-1.79,2.09-3,2.48-3.28,2.13-1.51,7.48-.41,9.17-.85,1.69-.44,3.7-2.01,4.2-2.86s1.39-1.71,1.06-2.97-.07-2.02.12-3.32-.89-2.58-.98-2.89c-.08-.31,11.99-5.78,11.7-6.89h0Z"/>
          <path class="st9" d="M400.15,419.37c-8.44,27.51-8,26.76-6.9,43.72h10.2c-.32-7.07-.1-13.22-.1-13.22l9.03-22.12c-5.72-8.02-12.25-8.38-12.25-8.38h0Z"/>
          <path class="st3" d="M453.6,343.79c2.83,5.26,4.92,7.26,10.36,9.72,3.66,1.66,6.31,7.91,5.07,12.6-3.16,11.9,5.26,8.75,11.96,15.15,16.12,15.42-10.6,29.96-14.43,32.42-3.82,2.45-10.34,4.14-12.89,4.51-7.66,1.11-18.56-3.64-24.88-12.44-6.31-8.8-16.06-7.19-14.07-12.67,3.78-10.39-2.44-8.81-4.16-21.93-1.61-12.28,1.9-24.69,9.55-30.78,9.81-7.81,27.22-8.25,33.48,3.41h0Z"/>
          <path class="st0" d="M466.09,422.67l4.64,4.45c4.85-1.2,14.61-12.28,14.61-12.28,0,0-15.24-20.43-26.84-27.13-11.6-6.69-21.86-5.35-21.86-5.35,0,0-14.94,2.69-19.14,4.69-4.42,2.11-14.11,11.94-21.9,36.74,3.11,3.44,14.22,8.36,16.85,8.69,2.51-7.93,3.14-8.44,3.14-8.44.47,4.98-2.49,39.06-2.49,39.06h54.31l-1.31-40.42h0s0,0,0,0Z"/>
          <path class="st9" d="M434.56,367.33s-.44,10.11-1.73,13.83,2.7,17.23,10.76,19.19c8.05,1.97.14-16.04.27-19.95.13-3.92,2.72-15.52,2.72-15.52l-12.03,2.45h0Z"/>
          <path class="st3" d="M434.56,367.33s-.03.68-.1,1.75c.63.51,1.32.99,2.09,1.42,3.21,1.82,6.12,2.13,8.58,1.42.71-3.71,1.45-7.05,1.45-7.05l-12.03,2.45h0Z"/>
          <path class="st9" d="M436.97,339.73s-4.72,1.31-7.45,5.96c-2.72,4.65-4.08,18,5.94,23.69,10.02,5.7,17.13-3.43,16.83-11.97-.3-8.54-2.7-19.83-15.33-17.69h0Z"/>
          <path class="st9" d="M429.97,357.55c.82,2.18.28,4.4-1.2,4.95-1.48.55-3.33-.77-4.15-2.95s-.28-4.4,1.2-4.95c1.48-.55,3.33.77,4.15,2.95Z"/>
        </g>
        <g>
          <g>
            <path class="st12" d="M326.24,619.4s49.7-36.89,56.51-52.79c6.81-15.9-7.23-14.11-7.23-14.11,0,0,20.07-28.44,14.74-37.83s-16.41,2.61-16.41,2.61c0,0,9.31-38.47,1.21-40.6-15.08-3.99-27.45,37.41-27.45,37.41,0,0,1.11-17.19-8.33-14.87-14.23,3.49-6.7,40.5-6.7,40.5,0,0-4.54-6.56-12.34-.32-14,11.2,6,80.01,6,80.01h0Z"/>
            <path class="st0" d="M318.14,540.34c7.81-6.24,14.44-.64,14.44-.64,0,0-7.53-37,6.7-40.5,9.43-2.31,8.33,14.87,8.33,14.87,0,0,12.37-41.4,27.45-37.41l-49.2,142.61c-2.2-8.91-20.81-68.48-7.73-78.94h0Z"/>
          </g>
          <path class="st15" d="M326.31,618.12s50.93-.06,61.44-8.88c10.51-8.83-2.38-9.52-2.38-9.52,0,0,24.34-12.92,23.98-21.54-.35-8.62-8.61-6.88-8.61-6.88,0,0,16.82-15.07,13.37-22.38-5.31-11.23-29.37,10.07-29.37,10.07,0,0,1.84-8.54-5.62-10.32-11.26-2.69-22.67,29.31-22.67,29.31,0,0,5.38-14.42-2.35-12.81-13.87,2.87-27.79,52.95-27.79,52.95h0Z"/>
          <g>
            <path class="st13" d="M324.19,620.95s-45.2-38.57-50.72-54.12c-5.51-15.54,7.74-12.98,7.74-12.98,0,0-17.37-28.27-11.73-36.89,5.64-8.62,15.46,3.47,15.46,3.47,0,0-6.52-37.17,1.31-38.71,14.58-2.88,23.85,37.26,23.85,37.26,0,0-.01-16.42,8.83-13.65,13.33,4.19,3.92,38.93,3.92,38.93,0,0,4.92-12.99,11.97-6.58,12.64,11.51-10.6,83.25-10.6,83.25h-.02Z"/>
            <path class="st15" d="M339.13,530.19c-8.24-4.79-13.23,3.89-13.23,3.89,0,0,6.34-24.55-6.99-28.72-8.84-2.78-8.83,13.65-8.83,13.65,0,0-9.26-40.14-23.85-37.26l36.77,146.99c2.64-8.34,31.01-89.89,16.12-98.54h0Z"/>
          </g>
          <path class="st15" d="M319.64,615.42s-49.66.01-56.57-.79c-6.9-.8.73-6.97.73-6.97,0,0-15.45.56-17.81-3.19s3.96-5.23,3.96-5.23c0,0-15.39-4.46-14.65-7.73,1.37-6.09,18.36-2.12,18.36-2.12,0,0-6.31-3.06-3.74-5.91,3.87-4.3,20.39,7.38,20.39,7.38,0,0-5.67-10.81-2.54-13.22,13.1-10.12,51.88,37.79,51.88,37.79h0Z"/>
          <path class="st0" d="M283.79,671.31h82.65c10.53-9.62,16.94-22.86,16.7-37.38-.12-7.33-1.63-13.73-4.78-20.01l-106.56,1.2c-2.95,6.38-4.52,13.39-4.41,20.72.23,13.84,6.44,26.31,16.39,35.47h0Z"/>
        </g>
      </g>
    </g>
  </g>
  <path class="st11" d="M1055.37,442.26c-1.04,0-2.08-.39-2.87-1.19h0l-4.64-4.64c-.77-.77-1.19-1.79-1.19-2.87s.42-2.11,1.19-2.87l4.64-4.64c1.59-1.59,4.16-1.59,5.75,0l4.64,4.64c.77.77,1.19,1.79,1.19,2.87s-.42,2.11-1.19,2.87l-4.64,4.64c-.79.79-1.83,1.19-2.87,1.19h0ZM1053.65,439.92c.95.95,2.5.95,3.45,0l4.64-4.64c.46-.46.71-1.07.71-1.72s-.25-1.26-.71-1.72l-4.64-4.64c-.95-.95-2.5-.95-3.45,0l-4.64,4.64c-.46.46-.71,1.07-.71,1.72s.25,1.26.71,1.72l4.64,4.64h0Z"/>
  <path class="st11" d="M-7.23,543.94c-1.04,0-2.08-.39-2.87-1.19h0l-4.64-4.64c-.77-.77-1.19-1.79-1.19-2.87s.42-2.11,1.19-2.87l4.64-4.64c1.59-1.59,4.16-1.59,5.75,0l4.64,4.64c.77.77,1.19,1.79,1.19,2.87s-.42,2.11-1.19,2.87l-4.64,4.64c-.79.79-1.83,1.19-2.87,1.19h0ZM-8.96,541.61c.95.95,2.5.95,3.45,0l4.64-4.64c.46-.46.71-1.07.71-1.72s-.25-1.26-.71-1.72l-4.64-4.64c-.95-.95-2.5-.95-3.45,0l-4.64,4.64c-.46.46-.71,1.07-.71,1.72s.25,1.26.71,1.72l4.64,4.64h0Z"/>
</svg>