<?xml version="1.0" encoding="UTF-8"?>
<svg id="Layer_1" data-name="Layer 1" xmlns="http://www.w3.org/2000/svg" viewBox="0 0 1080 381.99">
  <defs>
    <style>
      .cls-1, .cls-2 {
        fill: #1e3263;
      }

      .cls-3, .cls-4 {
        fill: #e8c73f;
      }

      .cls-3, .cls-2 {
        fill-rule: evenodd;
      }
    </style>
  </defs>
  <path class="cls-4" d="M632.63,312.74h-5.06c-.7,0-1.27-.57-1.27-1.27s.57-1.27,1.27-1.27h5.06c.7,0,1.27.57,1.27,1.27s-.57,1.27-1.27,1.27ZM614.94,312.74h-5.06c-.7,0-1.27-.57-1.27-1.27s.57-1.27,1.27-1.27h5.06c.7,0,1.27.57,1.27,1.27s-.57,1.27-1.27,1.27ZM597.24,312.74h-5.06c-.7,0-1.27-.57-1.27-1.27s.57-1.27,1.27-1.27h5.06c.7,0,1.27.57,1.27,1.27s-.57,1.27-1.27,1.27ZM579.54,312.74h-5.06c-.7,0-1.27-.57-1.27-1.27s.57-1.27,1.27-1.27h5.06c.7,0,1.27.57,1.27,1.27s-.57,1.27-1.27,1.27ZM561.85,312.74h-5.06c-.7,0-1.27-.57-1.27-1.27s.57-1.27,1.27-1.27h5.06c.7,0,1.27.57,1.27,1.27s-.57,1.27-1.27,1.27ZM544.15,312.74h-5.06c-.7,0-1.27-.57-1.27-1.27s.57-1.27,1.27-1.27h5.06c.7,0,1.27.57,1.27,1.27s-.57,1.27-1.27,1.27ZM526.45,312.74h-5.06c-.7,0-1.27-.57-1.27-1.27s.57-1.27,1.27-1.27h5.06c.7,0,1.27.57,1.27,1.27s-.57,1.27-1.27,1.27ZM508.75,312.74h-5.06c-.7,0-1.27-.57-1.27-1.27s.57-1.27,1.27-1.27h5.06c.7,0,1.27.57,1.27,1.27s-.57,1.27-1.27,1.27ZM491.06,312.74h-5.06c-.7,0-1.27-.57-1.27-1.27s.57-1.27,1.27-1.27h5.06c.7,0,1.27.57,1.27,1.27s-.57,1.27-1.27,1.27ZM473.36,312.74h-5.06c-.7,0-1.27-.57-1.27-1.27s.57-1.27,1.27-1.27h5.06c.7,0,1.27.57,1.27,1.27s-.57,1.27-1.27,1.27ZM455.66,312.74h-5.06c-.7,0-1.27-.57-1.27-1.27s.57-1.27,1.27-1.27h5.06c.7,0,1.27.57,1.27,1.27s-.57,1.27-1.27,1.27ZM438.01,312.03c-.06,0-.13,0-.19-.01-1.69-.26-3.39-.59-5.06-.98-.68-.16-1.1-.84-.94-1.53.16-.68.84-1.1,1.53-.94,1.6.38,3.24.69,4.86.94.69.11,1.17.75,1.06,1.44-.1.63-.64,1.08-1.25,1.08h0ZM645.18,311.46c-.59,0-1.12-.41-1.24-1.01-.14-.69.3-1.36.99-1.5,1.61-.33,3.22-.73,4.8-1.19.67-.2,1.38.19,1.57.86.2.67-.19,1.38-.86,1.57-1.64.48-3.33.9-5,1.24-.09.02-.17.03-.26.03h0ZM421.12,306.93c-.18,0-.36-.04-.54-.12-1.55-.72-3.1-1.52-4.58-2.37-.61-.35-.82-1.12-.47-1.73.35-.61,1.12-.82,1.73-.47,1.43.81,2.91,1.58,4.4,2.27.64.3.91,1.05.61,1.69-.22.46-.67.73-1.15.73ZM661.77,305.48c-.45,0-.89-.24-1.12-.67-.33-.62-.09-1.39.52-1.72,1.45-.77,2.89-1.61,4.27-2.5.59-.38,1.37-.21,1.75.38s.21,1.37-.38,1.75c-1.44.92-2.94,1.8-4.45,2.6-.19.1-.39.15-.59.15h0ZM406.36,297.28c-.3,0-.6-.1-.84-.32-1.29-1.13-2.54-2.33-3.73-3.56-.49-.5-.47-1.31.03-1.79.5-.49,1.31-.47,1.79.03,1.14,1.18,2.35,2.33,3.59,3.42.53.46.58,1.26.12,1.79-.25.29-.6.43-.95.43h0ZM676.01,295.09c-.33,0-.66-.13-.91-.38-.49-.5-.48-1.3.02-1.79,1.18-1.15,2.32-2.36,3.4-3.6.46-.53,1.26-.58,1.79-.12.53.46.58,1.26.12,1.79-1.13,1.29-2.32,2.55-3.55,3.75-.25.24-.57.36-.89.36h.02ZM394.88,283.89c-.42,0-.83-.21-1.07-.59-.92-1.45-1.79-2.94-2.59-4.46-.33-.62-.09-1.39.53-1.71.62-.33,1.39-.09,1.71.53.77,1.45,1.6,2.89,2.49,4.28.38.59.2,1.38-.39,1.75-.21.13-.45.2-.68.2h0ZM686.78,281.12c-.21,0-.43-.05-.62-.16-.61-.35-.82-1.12-.48-1.73.81-1.43,1.57-2.92,2.26-4.41.29-.64,1.05-.91,1.68-.62.64.29.91,1.05.62,1.68-.72,1.55-1.51,3.1-2.36,4.59-.23.41-.66.64-1.11.64h0ZM387.62,267.83c-.55,0-1.06-.36-1.22-.92-.48-1.64-.89-3.33-1.23-5.01-.14-.69.3-1.36.99-1.5s1.36.31,1.5.99c.33,1.61.72,3.23,1.18,4.81.19.67-.19,1.38-.87,1.57-.12.03-.24.05-.35.05h0ZM693.2,264.69c-.1,0-.19-.01-.29-.03-.68-.16-1.11-.84-.95-1.52.37-1.6.68-3.23.93-4.86.1-.69.75-1.17,1.44-1.07s1.17.75,1.07,1.44c-.25,1.7-.58,3.4-.96,5.06-.14.59-.66.98-1.23.98h-.01ZM385.17,250.37c-.7,0-1.27-.57-1.27-1.27v-5.06c0-.7.57-1.27,1.27-1.27s1.27.57,1.27,1.27v5.06c0,.7-.57,1.27-1.27,1.27ZM694.83,247.13c-.7,0-1.27-.57-1.27-1.27v-5.06c0-.7.57-1.27,1.27-1.27s1.27.57,1.27,1.27v5.06c0,.7-.57,1.27-1.27,1.27ZM385.17,232.67c-.7,0-1.27-.57-1.27-1.27v-5.06c0-.7.57-1.27,1.27-1.27s1.27.57,1.27,1.27v5.06c0,.7-.57,1.27-1.27,1.27ZM694.83,229.43c-.7,0-1.27-.57-1.27-1.27v-5.06c0-.7.57-1.27,1.27-1.27s1.27.57,1.27,1.27v5.06c0,.7-.57,1.27-1.27,1.27ZM385.17,214.97c-.7,0-1.27-.57-1.27-1.27v-5.06c0-.7.57-1.27,1.27-1.27s1.27.57,1.27,1.27v5.06c0,.7-.57,1.27-1.27,1.27ZM694.83,211.73c-.7,0-1.27-.57-1.27-1.27v-5.06c0-.7.57-1.27,1.27-1.27s1.27.57,1.27,1.27v5.06c0,.7-.57,1.27-1.27,1.27ZM385.17,197.27c-.7,0-1.27-.57-1.27-1.27v-5.06c0-.7.57-1.27,1.27-1.27s1.27.57,1.27,1.27v5.06c0,.7-.57,1.27-1.27,1.27ZM694.83,194.03c-.7,0-1.27-.57-1.27-1.27v-5.06c0-.7.57-1.27,1.27-1.27s1.27.57,1.27,1.27v5.06c0,.7-.57,1.27-1.27,1.27ZM385.17,179.58c-.7,0-1.27-.57-1.27-1.27v-5.06c0-.7.57-1.27,1.27-1.27s1.27.57,1.27,1.27v5.06c0,.7-.57,1.27-1.27,1.27ZM694.83,176.34c-.7,0-1.27-.57-1.27-1.27v-5.06c0-.7.57-1.27,1.27-1.27s1.27.57,1.27,1.27v5.06c0,.7-.57,1.27-1.27,1.27ZM385.17,161.88c-.7,0-1.27-.57-1.27-1.27v-5.06c0-.7.57-1.27,1.27-1.27s1.27.57,1.27,1.27v5.06c0,.7-.57,1.27-1.27,1.27ZM694.83,158.64c-.7,0-1.27-.57-1.27-1.27v-5.06c0-.7.57-1.27,1.27-1.27s1.27.57,1.27,1.27v5.06c0,.7-.57,1.27-1.27,1.27ZM385.17,144.18c-.7,0-1.27-.57-1.27-1.27v-5.06c0-.7.57-1.27,1.27-1.27s1.27.57,1.27,1.27v5.06c0,.7-.57,1.27-1.27,1.27ZM694.83,140.94c-.7,0-1.27-.57-1.27-1.27v-5.06c0-.7.57-1.27,1.27-1.27s1.27.57,1.27,1.27v5.06c0,.7-.57,1.27-1.27,1.27ZM385.17,126.48c-.7,0-1.27-.57-1.27-1.27v-5.06c0-.7.57-1.27,1.27-1.27s1.27.57,1.27,1.27v5.06c0,.7-.57,1.27-1.27,1.27ZM694.83,123.24c-.7,0-1.27-.57-1.27-1.27v-5.06c0-.7.57-1.27,1.27-1.27s1.27.57,1.27,1.27v5.06c0,.7-.57,1.27-1.27,1.27ZM385.17,108.79c-.7,0-1.27-.57-1.27-1.27v-5.06c0-.7.57-1.27,1.27-1.27s1.27.57,1.27,1.27v5.06c0,.7-.57,1.27-1.27,1.27ZM694.83,105.55c-.7,0-1.27-.57-1.27-1.27v-5.06c0-.7.57-1.27,1.27-1.27s1.27.57,1.27,1.27v5.06c0,.7-.57,1.27-1.27,1.27ZM385.17,91.09c-.7,0-1.27-.57-1.27-1.27v-5.06c0-.7.57-1.27,1.27-1.27s1.27.57,1.27,1.27v5.06c0,.7-.57,1.27-1.27,1.27ZM694.83,87.85c-.7,0-1.27-.57-1.27-1.27v-5.06c0-.7.57-1.27,1.27-1.27s1.27.57,1.27,1.27v5.06c0,.7-.57,1.27-1.27,1.27ZM385.17,73.39c-.7,0-1.27-.57-1.27-1.27v-5.06c0-.7.57-1.27,1.27-1.27s1.27.57,1.27,1.27v5.06c0,.7-.57,1.27-1.27,1.27ZM694.83,70.15c-.7,0-1.27-.57-1.27-1.27v-5.06c0-.7.57-1.27,1.27-1.27s1.27.57,1.27,1.27v5.06c0,.7-.57,1.27-1.27,1.27ZM385.85,55.73c-.06,0-.13,0-.19,0-.69-.1-1.17-.75-1.07-1.44.25-1.69.58-3.4.97-5.07.16-.68.84-1.11,1.53-.94.68.16,1.11.84.94,1.53-.38,1.6-.69,3.23-.93,4.86-.09.63-.64,1.08-1.25,1.08h0ZM693.59,52.54c-.59,0-1.12-.41-1.24-1.02-.33-1.61-.73-3.23-1.19-4.8-.2-.67.19-1.38.86-1.57.67-.2,1.38.19,1.57.86.48,1.64.89,3.33,1.24,5.01.14.69-.3,1.36-.99,1.5-.09.02-.17.03-.26.03h.01ZM390.92,38.85c-.18,0-.36-.04-.53-.12-.64-.3-.91-1.05-.62-1.69.72-1.55,1.52-3.09,2.36-4.59.35-.61,1.12-.82,1.73-.48.61.35.82,1.12.48,1.73-.81,1.43-1.58,2.91-2.27,4.4-.22.46-.67.73-1.15.73v.02ZM687.64,35.95c-.45,0-.89-.25-1.12-.67-.77-1.45-1.61-2.89-2.49-4.28-.38-.59-.2-1.38.39-1.75.59-.38,1.38-.2,1.75.39.92,1.44,1.79,2.94,2.59,4.45.33.62.09,1.39-.53,1.71-.19.1-.39.15-.59.15ZM400.53,24.05c-.3,0-.59-.1-.83-.31-.53-.46-.58-1.26-.12-1.79,1.12-1.29,2.31-2.55,3.54-3.75.5-.49,1.3-.48,1.79.02.49.5.48,1.3-.02,1.79-1.17,1.15-2.32,2.36-3.4,3.6-.25.29-.6.44-.96.44h0ZM677.28,21.67c-.33,0-.66-.13-.91-.39-1.14-1.19-2.35-2.34-3.58-3.43-.52-.46-.57-1.27-.11-1.79.46-.52,1.27-.57,1.79-.11,1.28,1.13,2.53,2.33,3.72,3.57.49.5.47,1.31-.03,1.79-.25.24-.56.36-.88.36h0ZM413.85,12.49c-.42,0-.82-.2-1.07-.58-.38-.59-.21-1.37.37-1.75,1.44-.93,2.93-1.82,4.44-2.63.62-.33,1.39-.1,1.72.51.33.62.1,1.39-.51,1.72-1.44.78-2.88,1.63-4.26,2.52-.21.14-.45.2-.69.2h0ZM663.39,10.8c-.22,0-.43-.05-.63-.17-1.42-.82-2.9-1.6-4.39-2.3-.63-.3-.9-1.06-.6-1.69.3-.63,1.06-.9,1.69-.6,1.55.73,3.09,1.54,4.57,2.4.61.35.81,1.13.46,1.73-.23.41-.66.63-1.1.63h0ZM429.85,5.09c-.55,0-1.05-.36-1.22-.91-.2-.67.18-1.38.85-1.58,1.64-.49,3.32-.92,5-1.27.69-.14,1.36.3,1.5.98.14.69-.3,1.36-.98,1.5-1.61.34-3.22.75-4.8,1.22-.12.04-.24.05-.36.05h0ZM647.02,4.25c-.1,0-.2-.01-.3-.04-1.6-.39-3.23-.71-4.85-.96-.69-.11-1.17-.76-1.06-1.45s.76-1.17,1.45-1.06c1.69.26,3.4.6,5.06,1,.68.16,1.1.85.94,1.53-.14.58-.66.97-1.23.97h-.01ZM447.29,2.54c-.7,0-1.27-.57-1.27-1.27s.57-1.27,1.27-1.27h5.19c.7,0,1.27.57,1.27,1.27s-.57,1.27-1.27,1.27h-5.19ZM629.46,2.54h-5.06c-.7,0-1.27-.57-1.27-1.27s.57-1.27,1.27-1.27h5.06c.7,0,1.27.57,1.27,1.27s-.57,1.27-1.27,1.27ZM611.76,2.54h-5.06c-.7,0-1.27-.57-1.27-1.27s.57-1.27,1.27-1.27h5.06c.7,0,1.27.57,1.27,1.27s-.57,1.27-1.27,1.27ZM594.07,2.54h-5.06c-.7,0-1.27-.57-1.27-1.27s.57-1.27,1.27-1.27h5.06c.7,0,1.27.57,1.27,1.27s-.57,1.27-1.27,1.27ZM576.37,2.54h-5.06c-.7,0-1.27-.57-1.27-1.27s.57-1.27,1.27-1.27h5.06c.7,0,1.27.57,1.27,1.27s-.57,1.27-1.27,1.27ZM558.67,2.54h-5.06c-.7,0-1.27-.57-1.27-1.27s.57-1.27,1.27-1.27h5.06c.7,0,1.27.57,1.27,1.27s-.57,1.27-1.27,1.27ZM540.98,2.54h-5.06c-.7,0-1.27-.57-1.27-1.27s.57-1.27,1.27-1.27h5.06c.7,0,1.27.57,1.27,1.27s-.57,1.27-1.27,1.27ZM523.28,2.54h-5.06c-.7,0-1.27-.57-1.27-1.27s.57-1.27,1.27-1.27h5.06c.7,0,1.27.57,1.27,1.27s-.57,1.27-1.27,1.27ZM505.58,2.54h-5.06c-.7,0-1.27-.57-1.27-1.27s.57-1.27,1.27-1.27h5.06c.7,0,1.27.57,1.27,1.27s-.57,1.27-1.27,1.27ZM487.88,2.54h-5.06c-.7,0-1.27-.57-1.27-1.27s.57-1.27,1.27-1.27h5.06c.7,0,1.27.57,1.27,1.27s-.57,1.27-1.27,1.27ZM470.19,2.54h-5.06c-.7,0-1.27-.57-1.27-1.27s.57-1.27,1.27-1.27h5.06c.7,0,1.27.57,1.27,1.27s-.57,1.27-1.27,1.27Z"/>
  <path class="cls-3" d="M493.3,55.22h93.41c30.01,0,54.69,24.68,54.69,54.69v92.92c0,30.01-24.68,54.69-54.69,54.69h-93.41c-30.01,0-54.69-24.68-54.69-54.69v-92.92c0-30.01,24.68-54.69,54.69-54.69h0ZM594.45,90.55h0c6.29,0,11.62,5.32,11.62,11.62h0c0,6.29-5.32,11.62-11.62,11.62h0c-6.78,0-11.62-5.32-11.62-11.62h0c0-6.29,4.84-11.62,11.62-11.62h0ZM539.76,101.19h.48c30.01,0,55.17,25.17,55.17,55.17h0c0,30.49-25.17,55.17-55.17,55.17h-.48c-30.01,0-54.69-24.68-54.69-55.17h0c0-30.01,24.68-55.17,54.69-55.17h0ZM539.76,120.07h.48c19.84,0,36.3,16.46,36.3,36.3h0c0,20.33-16.46,36.78-36.3,36.78h-.48c-19.84,0-36.3-16.46-36.3-36.78h0c0-19.84,16.46-36.3,36.3-36.3h0ZM493.78,72.64h92.44c20.81,0,37.75,16.94,37.75,37.75v91.96c0,20.81-16.94,37.75-37.75,37.75h-92.44c-20.81,0-37.75-16.94-37.75-37.75v-91.96c0-20.81,16.94-37.75,37.75-37.75h0Z"/>
  <path class="cls-1" d="M248.73,312.74h-5.06c-.7,0-1.27-.57-1.27-1.27s.57-1.27,1.27-1.27h5.06c.7,0,1.27.57,1.27,1.27s-.57,1.27-1.27,1.27ZM231.03,312.74h-5.06c-.7,0-1.27-.57-1.27-1.27s.57-1.27,1.27-1.27h5.06c.7,0,1.27.57,1.27,1.27s-.57,1.27-1.27,1.27ZM213.33,312.74h-5.06c-.7,0-1.27-.57-1.27-1.27s.57-1.27,1.27-1.27h5.06c.7,0,1.27.57,1.27,1.27s-.57,1.27-1.27,1.27ZM195.64,312.74h-5.06c-.7,0-1.27-.57-1.27-1.27s.57-1.27,1.27-1.27h5.06c.7,0,1.27.57,1.27,1.27s-.57,1.27-1.27,1.27ZM177.94,312.74h-5.06c-.7,0-1.27-.57-1.27-1.27s.57-1.27,1.27-1.27h5.06c.7,0,1.27.57,1.27,1.27s-.57,1.27-1.27,1.27ZM160.24,312.74h-5.06c-.7,0-1.27-.57-1.27-1.27s.57-1.27,1.27-1.27h5.06c.7,0,1.27.57,1.27,1.27s-.57,1.27-1.27,1.27ZM142.55,312.74h-5.06c-.7,0-1.27-.57-1.27-1.27s.57-1.27,1.27-1.27h5.06c.7,0,1.27.57,1.27,1.27s-.57,1.27-1.27,1.27ZM124.85,312.74h-5.06c-.7,0-1.27-.57-1.27-1.27s.57-1.27,1.27-1.27h5.06c.7,0,1.27.57,1.27,1.27s-.57,1.27-1.27,1.27ZM107.15,312.74h-5.06c-.7,0-1.27-.57-1.27-1.27s.57-1.27,1.27-1.27h5.06c.7,0,1.27.57,1.27,1.27s-.57,1.27-1.27,1.27ZM89.45,312.74h-5.06c-.7,0-1.27-.57-1.27-1.27s.57-1.27,1.27-1.27h5.06c.7,0,1.27.57,1.27,1.27s-.57,1.27-1.27,1.27ZM71.76,312.74h-5.06c-.7,0-1.27-.57-1.27-1.27s.57-1.27,1.27-1.27h5.06c.7,0,1.27.57,1.27,1.27s-.57,1.27-1.27,1.27ZM54.1,312.03c-.06,0-.13,0-.19-.01-1.69-.26-3.4-.59-5.06-.98-.68-.16-1.1-.84-.94-1.53.16-.68.85-1.1,1.53-.94,1.6.38,3.23.69,4.86.94.69.11,1.17.75,1.06,1.44-.1.63-.64,1.08-1.25,1.08h-.01ZM261.28,311.46c-.59,0-1.12-.41-1.24-1.01-.14-.69.3-1.36.99-1.5,1.61-.33,3.23-.73,4.8-1.19.67-.2,1.38.19,1.57.86.2.67-.19,1.38-.86,1.57-1.64.48-3.32.9-5,1.24-.09.02-.17.03-.26.03h0ZM37.22,306.93c-.18,0-.36-.04-.54-.12-1.55-.72-3.1-1.52-4.58-2.37-.61-.35-.82-1.12-.47-1.73.35-.61,1.12-.82,1.73-.47,1.43.81,2.91,1.58,4.4,2.27.64.3.91,1.05.61,1.69-.22.46-.67.73-1.15.73ZM277.87,305.48c-.45,0-.89-.24-1.12-.67-.33-.62-.09-1.39.52-1.72,1.45-.77,2.89-1.61,4.27-2.5.59-.38,1.37-.21,1.75.38s.21,1.37-.38,1.75c-1.44.92-2.94,1.8-4.45,2.6-.19.1-.39.15-.59.15h0ZM22.45,297.28c-.3,0-.6-.1-.84-.32-1.29-1.13-2.54-2.33-3.73-3.56-.49-.5-.47-1.31.03-1.79.5-.49,1.31-.47,1.79.03,1.14,1.18,2.35,2.33,3.59,3.42.53.46.58,1.26.12,1.79-.25.29-.6.43-.95.43h-.01ZM292.11,295.09c-.33,0-.66-.13-.91-.38-.49-.5-.48-1.31.02-1.79,1.18-1.15,2.32-2.36,3.4-3.6.46-.53,1.26-.58,1.79-.12s.58,1.26.12,1.79c-1.13,1.29-2.32,2.55-3.55,3.74-.25.24-.57.36-.89.36h.02ZM10.98,283.89c-.42,0-.83-.21-1.07-.59-.92-1.44-1.79-2.94-2.59-4.46-.33-.62-.09-1.39.53-1.71.62-.33,1.39-.09,1.71.53.77,1.45,1.6,2.89,2.49,4.28.38.59.2,1.38-.39,1.75-.21.13-.45.2-.68.2h0ZM302.88,281.12c-.21,0-.43-.05-.62-.16-.61-.35-.82-1.12-.48-1.73.81-1.43,1.57-2.91,2.26-4.41.29-.64,1.05-.91,1.68-.62.64.29.91,1.05.62,1.68-.72,1.55-1.51,3.1-2.36,4.59-.23.41-.66.64-1.11.64h0ZM3.71,267.83c-.55,0-1.06-.36-1.22-.92-.48-1.64-.89-3.33-1.23-5.01-.14-.69.3-1.36.99-1.5s1.36.31,1.5.99c.33,1.61.72,3.23,1.18,4.81.19.67-.19,1.38-.87,1.57-.12.03-.24.05-.35.05h0ZM309.29,264.69c-.1,0-.19-.01-.29-.03-.68-.16-1.11-.84-.95-1.52.37-1.6.68-3.23.93-4.86.1-.69.75-1.17,1.44-1.07s1.17.75,1.07,1.44c-.25,1.69-.58,3.4-.97,5.07-.14.59-.66.98-1.23.98h0ZM1.27,250.37c-.7,0-1.27-.57-1.27-1.27v-5.06c0-.7.57-1.27,1.27-1.27s1.27.57,1.27,1.27v5.06c0,.7-.57,1.27-1.27,1.27ZM310.92,247.13c-.7,0-1.27-.57-1.27-1.27v-5.06c0-.7.57-1.27,1.27-1.27s1.27.57,1.27,1.27v5.06c0,.7-.57,1.27-1.27,1.27ZM1.27,232.67c-.7,0-1.27-.57-1.27-1.27v-5.06c0-.7.57-1.27,1.27-1.27s1.27.57,1.27,1.27v5.06c0,.7-.57,1.27-1.27,1.27ZM310.92,229.43c-.7,0-1.27-.57-1.27-1.27v-5.06c0-.7.57-1.27,1.27-1.27s1.27.57,1.27,1.27v5.06c0,.7-.57,1.27-1.27,1.27ZM1.27,214.97c-.7,0-1.27-.57-1.27-1.27v-5.06c0-.7.57-1.27,1.27-1.27s1.27.57,1.27,1.27v5.06c0,.7-.57,1.27-1.27,1.27ZM310.92,211.73c-.7,0-1.27-.57-1.27-1.27v-5.06c0-.7.57-1.27,1.27-1.27s1.27.57,1.27,1.27v5.06c0,.7-.57,1.27-1.27,1.27ZM1.27,197.27c-.7,0-1.27-.57-1.27-1.27v-5.06c0-.7.57-1.27,1.27-1.27s1.27.57,1.27,1.27v5.06c0,.7-.57,1.27-1.27,1.27ZM310.92,194.03c-.7,0-1.27-.57-1.27-1.27v-5.06c0-.7.57-1.27,1.27-1.27s1.27.57,1.27,1.27v5.06c0,.7-.57,1.27-1.27,1.27ZM1.27,179.58c-.7,0-1.27-.57-1.27-1.27v-5.06c0-.7.57-1.27,1.27-1.27s1.27.57,1.27,1.27v5.06c0,.7-.57,1.27-1.27,1.27ZM310.92,176.34c-.7,0-1.27-.57-1.27-1.27v-5.06c0-.7.57-1.27,1.27-1.27s1.27.57,1.27,1.27v5.06c0,.7-.57,1.27-1.27,1.27ZM1.27,161.88c-.7,0-1.27-.57-1.27-1.27v-5.06c0-.7.57-1.27,1.27-1.27s1.27.57,1.27,1.27v5.06c0,.7-.57,1.27-1.27,1.27ZM310.92,158.64c-.7,0-1.27-.57-1.27-1.27v-5.06c0-.7.57-1.27,1.27-1.27s1.27.57,1.27,1.27v5.06c0,.7-.57,1.27-1.27,1.27ZM1.27,144.18c-.7,0-1.27-.57-1.27-1.27v-5.06c0-.7.57-1.27,1.27-1.27s1.27.57,1.27,1.27v5.06c0,.7-.57,1.27-1.27,1.27ZM310.92,140.94c-.7,0-1.27-.57-1.27-1.27v-5.06c0-.7.57-1.27,1.27-1.27s1.27.57,1.27,1.27v5.06c0,.7-.57,1.27-1.27,1.27ZM1.27,126.48c-.7,0-1.27-.57-1.27-1.27v-5.06c0-.7.57-1.27,1.27-1.27s1.27.57,1.27,1.27v5.06c0,.7-.57,1.27-1.27,1.27ZM310.92,123.24c-.7,0-1.27-.57-1.27-1.27v-5.06c0-.7.57-1.27,1.27-1.27s1.27.57,1.27,1.27v5.06c0,.7-.57,1.27-1.27,1.27ZM1.27,108.79c-.7,0-1.27-.57-1.27-1.27v-5.06c0-.7.57-1.27,1.27-1.27s1.27.57,1.27,1.27v5.06c0,.7-.57,1.27-1.27,1.27ZM310.92,105.55c-.7,0-1.27-.57-1.27-1.27v-5.06c0-.7.57-1.27,1.27-1.27s1.27.57,1.27,1.27v5.06c0,.7-.57,1.27-1.27,1.27ZM1.27,91.09c-.7,0-1.27-.57-1.27-1.27v-5.06c0-.7.57-1.27,1.27-1.27s1.27.57,1.27,1.27v5.06c0,.7-.57,1.27-1.27,1.27ZM310.92,87.85c-.7,0-1.27-.57-1.27-1.27v-5.06c0-.7.57-1.27,1.27-1.27s1.27.57,1.27,1.27v5.06c0,.7-.57,1.27-1.27,1.27ZM1.27,73.39c-.7,0-1.27-.57-1.27-1.27v-5.06c0-.7.57-1.27,1.27-1.27s1.27.57,1.27,1.27v5.06c0,.7-.57,1.27-1.27,1.27ZM310.92,70.15c-.7,0-1.27-.57-1.27-1.27v-5.06c0-.7.57-1.27,1.27-1.27s1.27.57,1.27,1.27v5.06c0,.7-.57,1.27-1.27,1.27ZM1.94,55.73c-.06,0-.13,0-.19,0-.69-.1-1.17-.75-1.07-1.44.25-1.69.58-3.4.97-5.07.16-.68.84-1.11,1.53-.94.68.16,1.11.84.94,1.53-.38,1.6-.69,3.23-.93,4.86-.09.63-.64,1.08-1.25,1.08h0ZM309.68,52.54c-.59,0-1.12-.41-1.24-1.02-.33-1.61-.73-3.22-1.19-4.8-.2-.67.19-1.38.86-1.57.67-.2,1.38.19,1.57.86.48,1.65.9,3.33,1.24,5.01.14.69-.3,1.36-.99,1.5-.09.02-.17.03-.25.03h0ZM7.02,38.85c-.18,0-.36-.04-.53-.12-.64-.3-.91-1.05-.62-1.69.72-1.55,1.52-3.09,2.36-4.59.35-.61,1.12-.82,1.73-.48.61.35.82,1.12.48,1.73-.81,1.43-1.58,2.91-2.27,4.4-.22.46-.67.73-1.15.73v.02ZM303.73,35.95c-.45,0-.89-.25-1.12-.68-.77-1.45-1.61-2.89-2.49-4.28-.38-.59-.2-1.38.39-1.75.59-.38,1.37-.2,1.75.39.92,1.45,1.79,2.94,2.59,4.45.33.62.09,1.39-.53,1.71-.19.1-.39.15-.59.15h0ZM16.63,24.05c-.3,0-.59-.1-.83-.31-.53-.46-.58-1.26-.12-1.79,1.12-1.29,2.31-2.55,3.54-3.75.5-.49,1.3-.48,1.79.02s.48,1.3-.02,1.79c-1.17,1.15-2.32,2.36-3.4,3.6-.25.29-.6.44-.96.44ZM293.38,21.67c-.33,0-.66-.13-.91-.39-1.14-1.18-2.34-2.34-3.58-3.43-.52-.46-.57-1.27-.11-1.79.46-.52,1.27-.57,1.79-.11,1.28,1.13,2.54,2.33,3.72,3.57.49.5.47,1.31-.03,1.79-.25.24-.56.36-.88.36h0ZM29.94,12.49c-.42,0-.82-.2-1.07-.58-.38-.59-.21-1.37.37-1.75,1.44-.93,2.93-1.82,4.44-2.63.62-.33,1.39-.1,1.72.52.33.62.1,1.39-.52,1.72-1.44.78-2.88,1.63-4.26,2.52-.21.14-.45.2-.69.2h.01ZM279.49,10.8c-.22,0-.43-.05-.63-.17-1.43-.82-2.9-1.6-4.39-2.3-.63-.3-.9-1.06-.6-1.69s1.06-.9,1.69-.6c1.55.73,3.08,1.54,4.57,2.39.61.35.81,1.13.46,1.73-.23.41-.66.63-1.1.63h0ZM45.95,5.09c-.55,0-1.05-.36-1.22-.91-.2-.67.18-1.38.85-1.58,1.64-.49,3.32-.92,5-1.27.68-.14,1.36.3,1.5.98.14.69-.3,1.36-.98,1.5-1.61.34-3.22.75-4.8,1.22-.12.04-.24.05-.36.05h.01ZM263.11,4.25c-.1,0-.2-.01-.3-.04-1.6-.39-3.23-.71-4.85-.96-.69-.11-1.17-.76-1.06-1.45.11-.69.76-1.17,1.45-1.06,1.69.26,3.39.6,5.06,1,.68.16,1.1.85.94,1.53-.14.58-.66.97-1.23.97h-.01ZM63.39,2.54c-.7,0-1.27-.57-1.27-1.27s.57-1.27,1.27-1.27h5.19c.7,0,1.27.57,1.27,1.27s-.57,1.27-1.27,1.27h-5.19ZM245.56,2.54h-5.06c-.7,0-1.27-.57-1.27-1.27s.57-1.27,1.27-1.27h5.06c.7,0,1.27.57,1.27,1.27s-.57,1.27-1.27,1.27ZM227.86,2.54h-5.06c-.7,0-1.27-.57-1.27-1.27s.57-1.27,1.27-1.27h5.06c.7,0,1.27.57,1.27,1.27s-.57,1.27-1.27,1.27ZM210.16,2.54h-5.06c-.7,0-1.27-.57-1.27-1.27s.57-1.27,1.27-1.27h5.06c.7,0,1.27.57,1.27,1.27s-.57,1.27-1.27,1.27ZM192.46,2.54h-5.06c-.7,0-1.27-.57-1.27-1.27s.57-1.27,1.27-1.27h5.06c.7,0,1.27.57,1.27,1.27s-.57,1.27-1.27,1.27ZM174.77,2.54h-5.06c-.7,0-1.27-.57-1.27-1.27s.57-1.27,1.27-1.27h5.06c.7,0,1.27.57,1.27,1.27s-.57,1.27-1.27,1.27ZM157.07,2.54h-5.06c-.7,0-1.27-.57-1.27-1.27s.57-1.27,1.27-1.27h5.06c.7,0,1.27.57,1.27,1.27s-.57,1.27-1.27,1.27ZM139.37,2.54h-5.06c-.7,0-1.27-.57-1.27-1.27s.57-1.27,1.27-1.27h5.06c.7,0,1.27.57,1.27,1.27s-.57,1.27-1.27,1.27ZM121.68,2.54h-5.06c-.7,0-1.27-.57-1.27-1.27s.57-1.27,1.27-1.27h5.06c.7,0,1.27.57,1.27,1.27s-.57,1.27-1.27,1.27ZM103.98,2.54h-5.06c-.7,0-1.27-.57-1.27-1.27s.57-1.27,1.27-1.27h5.06c.7,0,1.27.57,1.27,1.27s-.57,1.27-1.27,1.27ZM86.28,2.54h-5.06c-.7,0-1.27-.57-1.27-1.27s.57-1.27,1.27-1.27h5.06c.7,0,1.27.57,1.27,1.27s-.57,1.27-1.27,1.27Z"/>
  <path class="cls-2" d="M122.74,268.3h41.81v-96.44h30.88l6.18-38.96h-37.06v-29.45c0-10.93,10.45-17.1,20.43-17.1h18.05v-32.31l-32.31-1.43c-30.88-1.9-47.98,22.33-47.98,51.31v28.98h-35.16v38.96h35.16v96.44h0Z"/>
  <path class="cls-1" d="M1016.42,312.74h-5.06c-.7,0-1.27-.57-1.27-1.27s.57-1.27,1.27-1.27h5.06c.7,0,1.27.57,1.27,1.27s-.57,1.27-1.27,1.27ZM998.71,312.74h-5.06c-.7,0-1.27-.57-1.27-1.27s.57-1.27,1.27-1.27h5.06c.7,0,1.27.57,1.27,1.27s-.57,1.27-1.27,1.27ZM981,312.74h-5.06c-.7,0-1.27-.57-1.27-1.27s.57-1.27,1.27-1.27h5.06c.7,0,1.27.57,1.27,1.27s-.57,1.27-1.27,1.27ZM963.29,312.74h-5.06c-.7,0-1.27-.57-1.27-1.27s.57-1.27,1.27-1.27h5.06c.7,0,1.27.57,1.27,1.27s-.57,1.27-1.27,1.27ZM945.58,312.74h-5.06c-.7,0-1.27-.57-1.27-1.27s.57-1.27,1.27-1.27h5.06c.7,0,1.27.57,1.27,1.27s-.57,1.27-1.27,1.27ZM927.87,312.74h-5.06c-.7,0-1.27-.57-1.27-1.27s.57-1.27,1.27-1.27h5.06c.7,0,1.27.57,1.27,1.27s-.57,1.27-1.27,1.27ZM910.16,312.74h-5.06c-.7,0-1.27-.57-1.27-1.27s.57-1.27,1.27-1.27h5.06c.7,0,1.27.57,1.27,1.27s-.57,1.27-1.27,1.27ZM892.45,312.74h-5.06c-.7,0-1.27-.57-1.27-1.27s.57-1.27,1.27-1.27h5.06c.7,0,1.27.57,1.27,1.27s-.57,1.27-1.27,1.27ZM874.74,312.74h-5.06c-.7,0-1.27-.57-1.27-1.27s.57-1.27,1.27-1.27h5.06c.7,0,1.27.57,1.27,1.27s-.57,1.27-1.27,1.27ZM857.03,312.74h-5.06c-.7,0-1.27-.57-1.27-1.27s.57-1.27,1.27-1.27h5.06c.7,0,1.27.57,1.27,1.27s-.57,1.27-1.27,1.27ZM839.32,312.74h-5.06c-.7,0-1.27-.57-1.27-1.27s.57-1.27,1.27-1.27h5.06c.7,0,1.27.57,1.27,1.27s-.57,1.27-1.27,1.27ZM821.64,312.07c-.06,0-.12,0-.19-.01-1.7-.25-3.4-.57-5.07-.96-.68-.16-1.11-.84-.95-1.52s.84-1.11,1.52-.95c1.6.37,3.24.68,4.87.92.69.1,1.17.75,1.07,1.44-.09.63-.63,1.08-1.25,1.08ZM1028.98,311.45c-.59,0-1.12-.41-1.24-1.01-.14-.69.3-1.36.98-1.5,1.61-.34,3.23-.74,4.8-1.21.67-.2,1.38.18,1.58.86.2.67-.18,1.38-.86,1.58-1.64.49-3.33.91-5.01,1.26-.09.02-.17.03-.26.03h.01ZM804.73,307.04c-.18,0-.36-.04-.53-.12-1.56-.72-3.1-1.51-4.6-2.35-.61-.34-.83-1.12-.48-1.73.34-.61,1.12-.83,1.73-.48,1.43.81,2.92,1.57,4.41,2.26.64.29.91,1.05.62,1.68-.21.46-.67.74-1.15.74h0ZM1045.57,305.42c-.45,0-.89-.24-1.12-.67-.33-.62-.1-1.39.52-1.72,1.45-.77,2.88-1.62,4.27-2.51.59-.38,1.37-.21,1.75.38s.21,1.37-.38,1.75c-1.44.93-2.94,1.81-4.45,2.61-.19.1-.4.15-.6.15h0ZM789.91,297.45c-.3,0-.59-.1-.83-.31-1.29-1.12-2.55-2.31-3.75-3.54-.49-.5-.48-1.3.02-1.79.5-.49,1.31-.48,1.79.02,1.15,1.18,2.37,2.33,3.6,3.4.53.46.58,1.26.12,1.79-.25.29-.6.44-.96.44h.01ZM1059.81,294.99c-.33,0-.66-.13-.91-.38-.49-.5-.48-1.31.02-1.79,1.18-1.15,2.33-2.36,3.41-3.6.46-.53,1.26-.58,1.79-.12s.58,1.26.12,1.79c-1.13,1.29-2.32,2.55-3.55,3.74-.25.24-.57.36-.88.36h0ZM778.37,284.1c-.42,0-.83-.21-1.07-.58-.93-1.44-1.8-2.94-2.61-4.45-.33-.62-.1-1.39.52-1.72s1.39-.1,1.72.52c.77,1.45,1.62,2.89,2.5,4.27.38.59.21,1.37-.38,1.75-.21.14-.45.2-.68.2h0ZM1070.62,281.04c-.21,0-.43-.05-.63-.17-.61-.35-.82-1.12-.47-1.73.82-1.44,1.59-2.92,2.28-4.4.3-.63,1.05-.91,1.69-.61.63.3.91,1.05.61,1.69-.72,1.55-1.52,3.09-2.37,4.58-.23.41-.66.64-1.1.64h-.01ZM771.04,268.05c-.55,0-1.05-.36-1.22-.91-.48-1.65-.9-3.33-1.25-5.01-.14-.69.3-1.36.99-1.5.68-.14,1.36.3,1.5.99.33,1.61.74,3.23,1.2,4.81.2.67-.19,1.38-.86,1.57-.12.03-.24.05-.36.05h0ZM1077.09,264.62c-.1,0-.19-.01-.29-.03-.68-.16-1.1-.84-.94-1.53.38-1.6.69-3.23.94-4.86.1-.69.75-1.17,1.44-1.07s1.17.75,1.07,1.44c-.25,1.7-.58,3.4-.98,5.07-.14.58-.66.98-1.23.98h0ZM768.53,250.58c-.7,0-1.27-.57-1.27-1.27v-5.06c0-.7.57-1.27,1.27-1.27s1.27.57,1.27,1.27v5.06c0,.7-.57,1.27-1.27,1.27ZM1078.73,247.04c-.7,0-1.27-.57-1.27-1.27v-5.06c0-.7.57-1.27,1.27-1.27s1.27.57,1.27,1.27v5.06c0,.7-.57,1.27-1.27,1.27ZM768.53,232.87c-.7,0-1.27-.57-1.27-1.27v-5.06c0-.7.57-1.27,1.27-1.27s1.27.57,1.27,1.27v5.06c0,.7-.57,1.27-1.27,1.27ZM1078.73,229.33c-.7,0-1.27-.57-1.27-1.27v-5.06c0-.7.57-1.27,1.27-1.27s1.27.57,1.27,1.27v5.06c0,.7-.57,1.27-1.27,1.27ZM768.53,215.16c-.7,0-1.27-.57-1.27-1.27v-5.06c0-.7.57-1.27,1.27-1.27s1.27.57,1.27,1.27v5.06c0,.7-.57,1.27-1.27,1.27ZM1078.73,211.62c-.7,0-1.27-.57-1.27-1.27v-5.06c0-.7.57-1.27,1.27-1.27s1.27.57,1.27,1.27v5.06c0,.7-.57,1.27-1.27,1.27ZM768.53,197.45c-.7,0-1.27-.57-1.27-1.27v-5.06c0-.7.57-1.27,1.27-1.27s1.27.57,1.27,1.27v5.06c0,.7-.57,1.27-1.27,1.27ZM1078.73,193.91c-.7,0-1.27-.57-1.27-1.27v-5.06c0-.7.57-1.27,1.27-1.27s1.27.57,1.27,1.27v5.06c0,.7-.57,1.27-1.27,1.27ZM768.53,179.74c-.7,0-1.27-.57-1.27-1.27v-5.06c0-.7.57-1.27,1.27-1.27s1.27.57,1.27,1.27v5.06c0,.7-.57,1.27-1.27,1.27ZM1078.73,176.2c-.7,0-1.27-.57-1.27-1.27v-5.06c0-.7.57-1.27,1.27-1.27s1.27.57,1.27,1.27v5.06c0,.7-.57,1.27-1.27,1.27ZM768.53,162.03c-.7,0-1.27-.57-1.27-1.27v-5.06c0-.7.57-1.27,1.27-1.27s1.27.57,1.27,1.27v5.06c0,.7-.57,1.27-1.27,1.27ZM1078.73,158.49c-.7,0-1.27-.57-1.27-1.27v-5.06c0-.7.57-1.27,1.27-1.27s1.27.57,1.27,1.27v5.06c0,.7-.57,1.27-1.27,1.27ZM768.53,144.32c-.7,0-1.27-.57-1.27-1.27v-5.06c0-.7.57-1.27,1.27-1.27s1.27.57,1.27,1.27v5.06c0,.7-.57,1.27-1.27,1.27ZM1078.73,140.78c-.7,0-1.27-.57-1.27-1.27v-5.06c0-.7.57-1.27,1.27-1.27s1.27.57,1.27,1.27v5.06c0,.7-.57,1.27-1.27,1.27ZM768.53,126.61c-.7,0-1.27-.57-1.27-1.27v-5.06c0-.7.57-1.27,1.27-1.27s1.27.57,1.27,1.27v5.06c0,.7-.57,1.27-1.27,1.27ZM1078.73,123.07c-.7,0-1.27-.57-1.27-1.27v-5.06c0-.7.57-1.27,1.27-1.27s1.27.57,1.27,1.27v5.06c0,.7-.57,1.27-1.27,1.27ZM768.53,108.9c-.7,0-1.27-.57-1.27-1.27v-5.06c0-.7.57-1.27,1.27-1.27s1.27.57,1.27,1.27v5.06c0,.7-.57,1.27-1.27,1.27ZM1078.73,105.36c-.7,0-1.27-.57-1.27-1.27v-5.06c0-.7.57-1.27,1.27-1.27s1.27.57,1.27,1.27v5.06c0,.7-.57,1.27-1.27,1.27ZM768.53,91.18c-.7,0-1.27-.57-1.27-1.27v-5.06c0-.7.57-1.27,1.27-1.27s1.27.57,1.27,1.27v5.06c0,.7-.57,1.27-1.27,1.27ZM1078.73,87.65c-.7,0-1.27-.57-1.27-1.27v-5.06c0-.7.57-1.27,1.27-1.27s1.27.57,1.27,1.27v5.06c0,.7-.57,1.27-1.27,1.27ZM768.53,73.47c-.7,0-1.27-.57-1.27-1.27v-5.06c0-.7.57-1.27,1.27-1.27s1.27.57,1.27,1.27v5.06c0,.7-.57,1.27-1.27,1.27ZM1078.73,69.94c-.7,0-1.27-.57-1.27-1.27v-5.06c0-.7.57-1.27,1.27-1.27s1.27.57,1.27,1.27v5.06c0,.7-.57,1.27-1.27,1.27ZM769.2,55.8c-.06,0-.12,0-.19,0-.69-.1-1.17-.75-1.07-1.44.25-1.69.58-3.4.97-5.07.16-.68.84-1.11,1.52-.95s1.11.84.95,1.52c-.37,1.6-.69,3.24-.93,4.86-.09.63-.63,1.08-1.25,1.08h0ZM1077.43,52.32c-.59,0-1.11-.41-1.24-1.01-.34-1.61-.75-3.22-1.22-4.79-.2-.67.18-1.38.85-1.58.67-.2,1.38.18,1.58.85.49,1.64.92,3.32,1.28,5,.14.69-.29,1.36-.98,1.5-.09.02-.18.03-.26.03h-.01ZM774.26,38.9c-.18,0-.36-.04-.53-.12-.64-.29-.91-1.05-.62-1.68.72-1.55,1.51-3.1,2.36-4.59.35-.61,1.12-.82,1.73-.48.61.35.82,1.12.48,1.73-.81,1.43-1.57,2.92-2.27,4.41-.21.46-.67.74-1.15.74h0ZM1071.34,35.77c-.45,0-.89-.24-1.12-.67-.78-1.45-1.63-2.88-2.53-4.26-.38-.59-.21-1.37.37-1.75.59-.38,1.37-.21,1.75.37.93,1.44,1.82,2.93,2.63,4.44.33.62.1,1.39-.51,1.72-.19.1-.4.15-.6.15h.01ZM783.86,24.09c-.29,0-.59-.1-.83-.31-.53-.46-.59-1.26-.13-1.79,1.12-1.29,2.31-2.56,3.54-3.76.5-.49,1.3-.48,1.79.02s.48,1.3-.02,1.79c-1.17,1.15-2.32,2.37-3.4,3.61-.25.29-.6.44-.96.44h.01ZM1060.87,21.55c-.33,0-.66-.13-.91-.38-1.15-1.18-2.36-2.33-3.6-3.41-.53-.46-.58-1.26-.12-1.79s1.26-.58,1.79-.12c1.29,1.13,2.55,2.32,3.74,3.55.49.5.48,1.3-.02,1.79-.25.24-.57.36-.89.36h.01ZM797.18,12.5c-.42,0-.82-.2-1.07-.58-.38-.59-.21-1.37.37-1.75,1.44-.93,2.93-1.82,4.44-2.63.62-.33,1.39-.1,1.72.51.33.62.1,1.39-.51,1.72-1.45.78-2.88,1.63-4.26,2.53-.21.14-.45.2-.69.2h0ZM1046.93,10.73c-.21,0-.43-.05-.63-.17-1.43-.82-2.91-1.59-4.39-2.29-.63-.3-.91-1.05-.61-1.69.3-.63,1.05-.91,1.69-.61,1.55.73,3.09,1.53,4.58,2.39.61.35.82,1.12.47,1.73-.23.41-.66.64-1.1.64h0ZM813.2,5.1c-.55,0-1.05-.36-1.22-.91-.2-.67.18-1.38.85-1.58,1.64-.49,3.33-.92,5-1.27.69-.14,1.36.29,1.5.98s-.29,1.36-.98,1.5c-1.61.34-3.22.75-4.8,1.22-.12.04-.24.05-.36.05h0ZM1030.54,4.2c-.1,0-.2-.01-.3-.04-1.6-.38-3.24-.7-4.86-.95-.69-.11-1.17-.75-1.06-1.45.11-.69.75-1.17,1.45-1.06,1.69.26,3.4.59,5.07.99.68.16,1.1.85.94,1.53-.14.58-.66.97-1.23.97h0ZM830.65,2.54c-.7,0-1.27-.57-1.27-1.27s.57-1.27,1.27-1.27h5.2c.7,0,1.27.57,1.27,1.27s-.57,1.27-1.27,1.27h-5.2ZM1012.96,2.54h-5.06c-.7,0-1.27-.57-1.27-1.27s.57-1.27,1.27-1.27h5.06c.7,0,1.27.57,1.27,1.27s-.57,1.27-1.27,1.27ZM995.25,2.54h-5.06c-.7,0-1.27-.57-1.27-1.27s.57-1.27,1.27-1.27h5.06c.7,0,1.27.57,1.27,1.27s-.57,1.27-1.27,1.27ZM977.54,2.54h-5.06c-.7,0-1.27-.57-1.27-1.27s.57-1.27,1.27-1.27h5.06c.7,0,1.27.57,1.27,1.27s-.57,1.27-1.27,1.27ZM959.83,2.54h-5.06c-.7,0-1.27-.57-1.27-1.27s.57-1.27,1.27-1.27h5.06c.7,0,1.27.57,1.27,1.27s-.57,1.27-1.27,1.27ZM942.12,2.54h-5.06c-.7,0-1.27-.57-1.27-1.27s.57-1.27,1.27-1.27h5.06c.7,0,1.27.57,1.27,1.27s-.57,1.27-1.27,1.27ZM924.41,2.54h-5.06c-.7,0-1.27-.57-1.27-1.27s.57-1.27,1.27-1.27h5.06c.7,0,1.27.57,1.27,1.27s-.57,1.27-1.27,1.27ZM906.69,2.54h-5.06c-.7,0-1.27-.57-1.27-1.27s.57-1.27,1.27-1.27h5.06c.7,0,1.27.57,1.27,1.27s-.57,1.27-1.27,1.27ZM888.98,2.54h-5.06c-.7,0-1.27-.57-1.27-1.27s.57-1.27,1.27-1.27h5.06c.7,0,1.27.57,1.27,1.27s-.57,1.27-1.27,1.27ZM871.27,2.54h-5.06c-.7,0-1.27-.57-1.27-1.27s.57-1.27,1.27-1.27h5.06c.7,0,1.27.57,1.27,1.27s-.57,1.27-1.27,1.27ZM853.56,2.54h-5.06c-.7,0-1.27-.57-1.27-1.27s.57-1.27,1.27-1.27h5.06c.7,0,1.27.57,1.27,1.27s-.57,1.27-1.27,1.27Z"/>
  <path class="cls-2" d="M887.69,110.16c5.65-3.59,9.24-1.03,11.3,4.62l5.13,13.35s3.59,7.19-5.65,14.38c-1.03.69-1.37,1.88-1.03,3.59,2.05,6.16,10.27,24.65,36.46,39.02,2.57,1.54,3.08,1.54,5.65-.51,2.05-2.05,4.62-4.62,6.68-6.67,4.62-4.11,7.19-5.65,11.3-2.57,3.08,2.05,6.16,4.62,9.24,6.67,3.08,2.57,8.22,5.65,3.08,11.81l-4.62,5.65c-6.68,8.22-12.32,8.73-21.05,6.67-33.37-8.73-58.02-32.35-68.8-65.72-3.59-12.84,1.54-23.62,12.32-30.29h-.01ZM923.63,55.22c55.97,0,101.15,45.18,101.15,101.15s-45.18,101.15-101.15,101.15c-15.4,0-29.78-3.08-42.62-9.24l-53.91,9.24,7.19-53.4-.51-1.03c-7.19-13.86-11.3-29.78-11.3-46.73,0-55.97,45.18-101.15,101.15-101.15h0ZM859.96,234.93l14.38-2.57,8.73-1.54c12.32,6.67,25.67,10.27,40.56,10.27,46.72,0,84.72-38,84.72-84.72s-38-84.72-84.72-84.72-84.72,38-84.72,84.72c0,16.94,5.13,32.35,13.35,45.7l-1.03,7.7-2.05,15.4-1.54,11.81,12.32-2.05h0Z"/>
  <g>
    <path class="cls-1" d="M60.4,381.99c-3.3,0-6.18-.33-8.66-.98-2.48-.66-4.56-1.75-6.23-3.28-1.68-1.53-2.93-3.61-3.76-6.23-.83-2.62-1.25-5.91-1.25-9.84,0-3.62.44-6.71,1.31-9.27.88-2.57,2.17-4.66,3.89-6.28,1.72-1.62,3.81-2.8,6.28-3.54,2.46-.74,5.27-1.12,8.42-1.12,4.4,0,8,.66,10.78,1.99,2.78,1.33,4.83,3.35,6.15,6.06,1.31,2.71,1.97,6.11,1.97,10.19v.61c0,2.19-.12,4.05-.35,5.6-.23,1.55-.57,2.8-1.01,3.76-.44.96-.98,1.71-1.62,2.23-.64.52-1.37.9-2.19,1.12-.82.22-1.71.33-2.67.33-1.05,0-1.95-.15-2.69-.44s-1.33-.64-1.75-1.05c-.42-.41-.71-.79-.85-1.14-.58.35-1.31.73-2.17,1.14-.86.41-1.76.75-2.69,1.03-.93.28-1.81.42-2.62.42s-1.57-.09-2.34-.26c-.77-.17-1.49-.48-2.14-.92-.66-.44-1.23-1.06-1.73-1.88-.5-.82-.89-1.87-1.18-3.17-.29-1.3-.44-2.88-.44-4.75,0-2.45.27-4.52.81-6.21s1.44-2.97,2.71-3.83c1.27-.86,3.03-1.29,5.27-1.29.79,0,1.67.12,2.65.37.98.25,1.77.52,2.38.81v-.74h3.72v8.35c0,2.36.03,4.24.09,5.64.06,1.4.19,2.44.39,3.13.2.69.52,1.13.96,1.33.44.2,1.02.31,1.75.31.64,0,1.21-.09,1.71-.29.5-.19.92-.61,1.27-1.27s.61-1.65.79-2.97c.17-1.33.26-3.11.26-5.36v-.66c0-2.62-.28-4.88-.83-6.76-.55-1.88-1.44-3.43-2.67-4.66-1.22-1.22-2.8-2.13-4.72-2.71-1.92-.58-4.26-.88-7-.88s-5.1.32-7.15.96c-2.06.64-3.76,1.65-5.12,3.02-1.36,1.37-2.37,3.13-3.04,5.27s-1.01,4.73-1.01,7.76c0,3.21.31,5.91.94,8.09.63,2.19,1.6,3.94,2.91,5.27,1.31,1.33,3,2.28,5.07,2.87,2.07.58,4.53.88,7.39.88.47,0,1.07-.02,1.82-.07s1.52-.09,2.32-.15c.8-.06,1.51-.12,2.12-.17l.13,3.24c-.58.06-1.27.12-2.06.17-.79.06-1.57.11-2.34.15-.77.04-1.44.07-1.99.07ZM59.01,370.01c.58,0,1.25-.09,1.99-.28.74-.19,1.47-.44,2.19-.74.71-.31,1.33-.59,1.86-.85-.06-.61-.12-1.31-.18-2.1-.06-.79-.1-1.62-.13-2.52-.03-.89-.04-1.76-.04-2.6v-5.82c-.55-.2-1.24-.39-2.06-.57s-1.56-.26-2.23-.26c-1.57,0-2.78.3-3.61.9s-1.4,1.49-1.71,2.69c-.31,1.2-.46,2.7-.46,4.5,0,1.6.12,2.91.37,3.92.25,1.01.58,1.78,1.01,2.32.42.54.89.91,1.4,1.12.51.2,1.04.31,1.6.31Z"/>
    <path class="cls-1" d="M84.2,373.07v-21.87h3.67v1.49c.47-.29,1.05-.58,1.75-.88.7-.29,1.44-.54,2.23-.74.79-.2,1.55-.31,2.27-.31,1.46,0,2.62.17,3.5.52.88.35,1.59.9,2.14,1.66.58-.32,1.3-.65,2.14-.98.85-.33,1.75-.62,2.71-.85.96-.23,1.91-.35,2.84-.35,1.49,0,2.72.19,3.7.57.98.38,1.73.99,2.27,1.84s.93,1.95,1.16,3.32c.23,1.37.35,3.05.35,5.03v11.55h-3.72v-11.37c0-1.84-.11-3.32-.33-4.44-.22-1.12-.63-1.93-1.25-2.43s-1.55-.74-2.8-.74c-.73,0-1.47.08-2.21.24s-1.44.36-2.08.59c-.64.23-1.15.45-1.53.66.17.76.3,1.68.37,2.78s.11,2.22.11,3.39v11.33h-3.67v-11.2c0-1.92-.1-3.46-.31-4.59-.2-1.14-.62-1.95-1.25-2.45-.63-.5-1.58-.74-2.87-.74-.7,0-1.41.08-2.12.24-.71.16-1.36.36-1.95.59-.58.23-1.08.45-1.49.66v17.5h-3.67Z"/>
    <path class="cls-1" d="M128.34,373.51c-.64,0-1.42-.02-2.34-.07-.92-.04-1.85-.11-2.78-.2-.93-.09-1.75-.16-2.45-.22v-31.28h3.72v10.46c.47-.23,1.05-.46,1.75-.68.7-.22,1.44-.4,2.23-.55.79-.15,1.53-.22,2.23-.22,2.01,0,3.61.37,4.79,1.12,1.18.74,2.03,1.93,2.54,3.57.51,1.63.77,3.75.77,6.34,0,2.92-.31,5.23-.94,6.93-.63,1.71-1.7,2.93-3.22,3.67-1.52.74-3.62,1.12-6.3,1.12ZM128.3,370.18c1.92,0,3.35-.29,4.29-.88.93-.58,1.56-1.49,1.88-2.73.32-1.24.48-2.84.48-4.79,0-1.81-.14-3.28-.42-4.42-.28-1.14-.77-1.98-1.47-2.52-.7-.54-1.65-.81-2.84-.81-.67,0-1.37.07-2.1.2-.73.13-1.41.29-2.03.48-.63.19-1.16.36-1.6.5v14.74c.61.06,1.3.11,2.08.15.77.04,1.35.07,1.73.07Z"/>
    <path class="cls-1" d="M151.04,373.55c-1.52,0-2.73-.23-3.63-.7-.9-.47-1.55-1.28-1.95-2.43-.39-1.15-.59-2.78-.59-4.88v-11.15h-3.02v-3.19h3.02v-6.56h3.72v6.56h6.69v3.19h-6.69v10.1c0,1.49.07,2.65.2,3.48.13.83.41,1.42.83,1.75.42.34,1.09.5,1.99.5.29,0,.66-.01,1.12-.04.45-.03.92-.07,1.4-.11.48-.04.9-.08,1.25-.11l.22,3.11c-.41.06-.9.12-1.47.2-.57.07-1.13.14-1.68.2-.55.06-1.02.09-1.4.09Z"/>
    <path class="cls-1" d="M167.1,373.51c-2.22,0-3.97-.42-5.25-1.27-1.28-.85-2.21-2.1-2.78-3.76-.57-1.66-.85-3.73-.85-6.21,0-2.74.38-4.96,1.14-6.65.76-1.69,1.83-2.92,3.22-3.7,1.38-.77,3.04-1.16,4.96-1.16,2.97,0,5.21.81,6.71,2.43,1.5,1.62,2.25,4.21,2.25,7.76l-.18,2.71h-14.3c.03,2.16.44,3.8,1.22,4.92.79,1.12,2.22,1.68,4.29,1.68.82,0,1.72-.02,2.71-.07.99-.04,1.98-.09,2.95-.15.98-.06,1.8-.12,2.47-.17l.09,2.89c-.7.12-1.56.23-2.58.35-1.02.12-2.06.21-3.13.28-1.06.07-2.05.11-2.95.11ZM162.02,360.73h10.72c0-2.57-.41-4.37-1.22-5.4-.82-1.04-2.14-1.55-3.98-1.55-1.2,0-2.19.23-3,.7-.8.47-1.42,1.21-1.86,2.23-.44,1.02-.66,2.36-.66,4.02Z"/>
    <path class="cls-1" d="M189.28,373.51c-2.22,0-3.97-.42-5.25-1.27-1.28-.85-2.21-2.1-2.78-3.76-.57-1.66-.85-3.73-.85-6.21,0-2.74.38-4.96,1.14-6.65.76-1.69,1.83-2.92,3.22-3.7,1.38-.77,3.04-1.16,4.96-1.16,2.97,0,5.21.81,6.71,2.43,1.5,1.62,2.25,4.21,2.25,7.76l-.18,2.71h-14.3c.03,2.16.44,3.8,1.22,4.92.79,1.12,2.22,1.68,4.29,1.68.82,0,1.72-.02,2.71-.07.99-.04,1.98-.09,2.95-.15.98-.06,1.8-.12,2.47-.17l.09,2.89c-.7.12-1.56.23-2.58.35-1.02.12-2.06.21-3.13.28-1.06.07-2.05.11-2.95.11ZM184.2,360.73h10.72c0-2.57-.41-4.37-1.22-5.4-.82-1.04-2.14-1.55-3.98-1.55-1.2,0-2.19.23-3,.7-.8.47-1.42,1.21-1.86,2.23-.44,1.02-.66,2.36-.66,4.02Z"/>
    <path class="cls-1" d="M203.58,373.07v-21.87h3.67v1.49c.47-.29,1.05-.58,1.75-.88.7-.29,1.44-.54,2.23-.74.79-.2,1.55-.31,2.27-.31,1.46,0,2.62.17,3.5.52.88.35,1.59.9,2.14,1.66.58-.32,1.3-.65,2.14-.98.85-.33,1.75-.62,2.71-.85.96-.23,1.91-.35,2.84-.35,1.49,0,2.72.19,3.7.57.98.38,1.73.99,2.27,1.84s.93,1.95,1.16,3.32c.23,1.37.35,3.05.35,5.03v11.55h-3.72v-11.37c0-1.84-.11-3.32-.33-4.44-.22-1.12-.63-1.93-1.25-2.43s-1.55-.74-2.8-.74c-.73,0-1.47.08-2.21.24s-1.44.36-2.08.59c-.64.23-1.15.45-1.53.66.17.76.3,1.68.37,2.78s.11,2.22.11,3.39v11.33h-3.67v-11.2c0-1.92-.1-3.46-.31-4.59-.2-1.14-.62-1.95-1.25-2.45-.63-.5-1.58-.74-2.87-.74-.7,0-1.41.08-2.12.24-.71.16-1.36.36-1.95.59-.58.23-1.08.45-1.49.66v17.5h-3.67Z"/>
    <path class="cls-1" d="M240.19,373.07v-21.87h3.67v1.49c.47-.29,1.05-.58,1.75-.88.7-.29,1.44-.54,2.23-.74.79-.2,1.55-.31,2.27-.31,1.46,0,2.62.17,3.5.52.88.35,1.59.9,2.14,1.66.58-.32,1.3-.65,2.14-.98.85-.33,1.75-.62,2.71-.85.96-.23,1.91-.35,2.84-.35,1.49,0,2.72.19,3.7.57.98.38,1.73.99,2.27,1.84s.93,1.95,1.16,3.32c.23,1.37.35,3.05.35,5.03v11.55h-3.72v-11.37c0-1.84-.11-3.32-.33-4.44-.22-1.12-.63-1.93-1.25-2.43s-1.55-.74-2.8-.74c-.73,0-1.47.08-2.21.24s-1.44.36-2.08.59c-.64.23-1.15.45-1.53.66.17.76.3,1.68.37,2.78s.11,2.22.11,3.39v11.33h-3.67v-11.2c0-1.92-.1-3.46-.31-4.59-.2-1.14-.62-1.95-1.25-2.45-.63-.5-1.58-.74-2.87-.74-.7,0-1.41.08-2.12.24-.71.16-1.36.36-1.95.59-.58.23-1.08.45-1.49.66v17.5h-3.67Z"/>
  </g>
  <g>
    <path class="cls-4" d="M444.03,381.99c-3.3,0-6.18-.33-8.66-.98-2.48-.66-4.56-1.75-6.23-3.28-1.68-1.53-2.93-3.61-3.76-6.23-.83-2.62-1.25-5.91-1.25-9.84,0-3.62.44-6.71,1.31-9.27.88-2.57,2.17-4.66,3.89-6.28,1.72-1.62,3.81-2.8,6.28-3.54,2.46-.74,5.27-1.12,8.42-1.12,4.4,0,8,.66,10.78,1.99,2.78,1.33,4.83,3.35,6.15,6.06,1.31,2.71,1.97,6.11,1.97,10.19v.61c0,2.19-.12,4.05-.35,5.6-.23,1.55-.57,2.8-1.01,3.76-.44.96-.98,1.71-1.62,2.23-.64.52-1.37.9-2.19,1.12-.82.22-1.71.33-2.67.33-1.05,0-1.95-.15-2.69-.44s-1.33-.64-1.75-1.05c-.42-.41-.71-.79-.85-1.14-.58.35-1.31.73-2.17,1.14-.86.41-1.76.75-2.69,1.03-.93.28-1.81.42-2.62.42s-1.57-.09-2.34-.26c-.77-.17-1.49-.48-2.14-.92-.66-.44-1.23-1.06-1.73-1.88-.5-.82-.89-1.87-1.18-3.17-.29-1.3-.44-2.88-.44-4.75,0-2.45.27-4.52.81-6.21s1.44-2.97,2.71-3.83c1.27-.86,3.03-1.29,5.27-1.29.79,0,1.67.12,2.65.37.98.25,1.77.52,2.38.81v-.74h3.72v8.35c0,2.36.03,4.24.09,5.64.06,1.4.19,2.44.39,3.13.2.69.52,1.13.96,1.33.44.2,1.02.31,1.75.31.64,0,1.21-.09,1.71-.29.5-.19.92-.61,1.27-1.27s.61-1.65.79-2.97c.17-1.33.26-3.11.26-5.36v-.66c0-2.62-.28-4.88-.83-6.76-.55-1.88-1.44-3.43-2.67-4.66-1.22-1.22-2.8-2.13-4.72-2.71-1.92-.58-4.26-.88-7-.88s-5.1.32-7.15.96c-2.06.64-3.76,1.65-5.12,3.02-1.36,1.37-2.37,3.13-3.04,5.27s-1.01,4.73-1.01,7.76c0,3.21.31,5.91.94,8.09.63,2.19,1.6,3.94,2.91,5.27,1.31,1.33,3,2.28,5.07,2.87,2.07.58,4.53.88,7.39.88.47,0,1.07-.02,1.82-.07s1.52-.09,2.32-.15c.8-.06,1.51-.12,2.12-.17l.13,3.24c-.58.06-1.27.12-2.06.17-.79.06-1.57.11-2.34.15-.77.04-1.44.07-1.99.07ZM442.64,370.01c.58,0,1.25-.09,1.99-.28.74-.19,1.47-.44,2.19-.74.71-.31,1.33-.59,1.86-.85-.06-.61-.12-1.31-.18-2.1-.06-.79-.1-1.62-.13-2.52-.03-.89-.04-1.76-.04-2.6v-5.82c-.55-.2-1.24-.39-2.06-.57s-1.56-.26-2.23-.26c-1.57,0-2.78.3-3.61.9s-1.4,1.49-1.71,2.69c-.31,1.2-.46,2.7-.46,4.5,0,1.6.12,2.91.37,3.92.25,1.01.58,1.78,1.01,2.32.42.54.89.91,1.4,1.12.51.2,1.04.31,1.6.31Z"/>
    <path class="cls-4" d="M467.83,373.07v-21.87h3.67v1.49c.47-.29,1.05-.58,1.75-.88.7-.29,1.44-.54,2.23-.74.79-.2,1.55-.31,2.27-.31,1.46,0,2.62.17,3.5.52.88.35,1.59.9,2.14,1.66.58-.32,1.3-.65,2.14-.98.85-.33,1.75-.62,2.71-.85.96-.23,1.91-.35,2.84-.35,1.49,0,2.72.19,3.7.57.98.38,1.73.99,2.27,1.84s.93,1.95,1.16,3.32c.23,1.37.35,3.05.35,5.03v11.55h-3.72v-11.37c0-1.84-.11-3.32-.33-4.44-.22-1.12-.63-1.93-1.25-2.43s-1.55-.74-2.8-.74c-.73,0-1.47.08-2.21.24s-1.44.36-2.08.59c-.64.23-1.15.45-1.53.66.17.76.3,1.68.37,2.78s.11,2.22.11,3.39v11.33h-3.67v-11.2c0-1.92-.1-3.46-.31-4.59-.2-1.14-.62-1.95-1.25-2.45-.63-.5-1.58-.74-2.87-.74-.7,0-1.41.08-2.12.24-.71.16-1.36.36-1.95.59-.58.23-1.08.45-1.49.66v17.5h-3.67Z"/>
    <path class="cls-4" d="M511.97,373.51c-.64,0-1.42-.02-2.34-.07-.92-.04-1.85-.11-2.78-.2-.93-.09-1.75-.16-2.45-.22v-31.28h3.72v10.46c.47-.23,1.05-.46,1.75-.68.7-.22,1.44-.4,2.23-.55.79-.15,1.53-.22,2.23-.22,2.01,0,3.61.37,4.79,1.12,1.18.74,2.03,1.93,2.54,3.57.51,1.63.77,3.75.77,6.34,0,2.92-.31,5.23-.94,6.93-.63,1.71-1.7,2.93-3.22,3.67-1.52.74-3.62,1.12-6.3,1.12ZM511.93,370.18c1.92,0,3.35-.29,4.29-.88.93-.58,1.56-1.49,1.88-2.73.32-1.24.48-2.84.48-4.79,0-1.81-.14-3.28-.42-4.42-.28-1.14-.77-1.98-1.47-2.52-.7-.54-1.65-.81-2.84-.81-.67,0-1.37.07-2.1.2-.73.13-1.41.29-2.03.48-.63.19-1.16.36-1.6.5v14.74c.61.06,1.3.11,2.08.15.77.04,1.35.07,1.73.07Z"/>
    <path class="cls-4" d="M534.67,373.55c-1.52,0-2.73-.23-3.63-.7-.9-.47-1.55-1.28-1.95-2.43-.39-1.15-.59-2.78-.59-4.88v-11.15h-3.02v-3.19h3.02v-6.56h3.72v6.56h6.69v3.19h-6.69v10.1c0,1.49.07,2.65.2,3.48.13.83.41,1.42.83,1.75.42.34,1.09.5,1.99.5.29,0,.66-.01,1.12-.04.45-.03.92-.07,1.4-.11.48-.04.9-.08,1.25-.11l.22,3.11c-.41.06-.9.12-1.47.2-.57.07-1.13.14-1.68.2-.55.06-1.02.09-1.4.09Z"/>
    <path class="cls-4" d="M550.73,373.51c-2.22,0-3.97-.42-5.25-1.27-1.28-.85-2.21-2.1-2.78-3.76-.57-1.66-.85-3.73-.85-6.21,0-2.74.38-4.96,1.14-6.65.76-1.69,1.83-2.92,3.22-3.7,1.38-.77,3.04-1.16,4.96-1.16,2.97,0,5.21.81,6.71,2.43,1.5,1.62,2.25,4.21,2.25,7.76l-.18,2.71h-14.3c.03,2.16.44,3.8,1.22,4.92.79,1.12,2.22,1.68,4.29,1.68.82,0,1.72-.02,2.71-.07.99-.04,1.98-.09,2.95-.15.98-.06,1.8-.12,2.47-.17l.09,2.89c-.7.12-1.56.23-2.58.35-1.02.12-2.06.21-3.13.28-1.06.07-2.05.11-2.95.11ZM545.65,360.73h10.72c0-2.57-.41-4.37-1.22-5.4-.82-1.04-2.14-1.55-3.98-1.55-1.2,0-2.19.23-3,.7-.8.47-1.42,1.21-1.86,2.23-.44,1.02-.66,2.36-.66,4.02Z"/>
    <path class="cls-4" d="M572.91,373.51c-2.22,0-3.97-.42-5.25-1.27s-2.21-2.1-2.78-3.76c-.57-1.66-.85-3.73-.85-6.21,0-2.74.38-4.96,1.14-6.65.76-1.69,1.83-2.92,3.22-3.7,1.38-.77,3.04-1.16,4.96-1.16,2.97,0,5.21.81,6.71,2.43s2.25,4.21,2.25,7.76l-.17,2.71h-14.3c.03,2.16.44,3.8,1.22,4.92.79,1.12,2.22,1.68,4.29,1.68.82,0,1.72-.02,2.71-.07.99-.04,1.97-.09,2.95-.15.98-.06,1.8-.12,2.47-.17l.09,2.89c-.7.12-1.56.23-2.58.35-1.02.12-2.06.21-3.13.28-1.06.07-2.05.11-2.95.11ZM567.83,360.73h10.72c0-2.57-.41-4.37-1.22-5.4-.82-1.04-2.14-1.55-3.98-1.55-1.2,0-2.19.23-3,.7-.8.47-1.42,1.21-1.86,2.23-.44,1.02-.66,2.36-.66,4.02Z"/>
    <path class="cls-4" d="M587.21,373.07v-21.87h3.67v1.49c.47-.29,1.05-.58,1.75-.88.7-.29,1.44-.54,2.23-.74.79-.2,1.55-.31,2.28-.31,1.46,0,2.62.17,3.5.52.88.35,1.59.9,2.14,1.66.58-.32,1.3-.65,2.14-.98s1.75-.62,2.71-.85c.96-.23,1.91-.35,2.84-.35,1.49,0,2.72.19,3.7.57.98.38,1.74.99,2.27,1.84.54.85.93,1.95,1.16,3.32.23,1.37.35,3.05.35,5.03v11.55h-3.72v-11.37c0-1.84-.11-3.32-.33-4.44-.22-1.12-.63-1.93-1.25-2.43s-1.55-.74-2.8-.74c-.73,0-1.47.08-2.21.24-.74.16-1.44.36-2.08.59-.64.23-1.15.45-1.53.66.17.76.3,1.68.37,2.78.07,1.09.11,2.22.11,3.39v11.33h-3.67v-11.2c0-1.92-.1-3.46-.31-4.59-.21-1.14-.62-1.95-1.25-2.45s-1.58-.74-2.87-.74c-.7,0-1.41.08-2.12.24s-1.36.36-1.95.59c-.58.23-1.08.45-1.49.66v17.5h-3.67Z"/>
    <path class="cls-4" d="M623.83,373.07v-21.87h3.67v1.49c.47-.29,1.05-.58,1.75-.88.7-.29,1.44-.54,2.23-.74.79-.2,1.54-.31,2.27-.31,1.46,0,2.62.17,3.5.52.88.35,1.59.9,2.14,1.66.58-.32,1.3-.65,2.14-.98.84-.33,1.75-.62,2.71-.85.96-.23,1.91-.35,2.84-.35,1.49,0,2.72.19,3.7.57.98.38,1.73.99,2.27,1.84.54.85.93,1.95,1.16,3.32.23,1.37.35,3.05.35,5.03v11.55h-3.72v-11.37c0-1.84-.11-3.32-.33-4.44-.22-1.12-.63-1.93-1.25-2.43s-1.55-.74-2.8-.74c-.73,0-1.46.08-2.21.24-.74.16-1.44.36-2.08.59-.64.23-1.15.45-1.53.66.17.76.3,1.68.37,2.78.07,1.09.11,2.22.11,3.39v11.33h-3.67v-11.2c0-1.92-.1-3.46-.31-4.59-.2-1.14-.62-1.95-1.25-2.45-.63-.5-1.58-.74-2.87-.74-.7,0-1.41.08-2.12.24-.71.16-1.36.36-1.95.59-.58.23-1.08.45-1.49.66v17.5h-3.67Z"/>
  </g>
  <g>
    <rect class="cls-1" x="851.68" y="343.19" width="3.76" height="4.07"/>
    <path class="cls-1" d="M887.16,352.38c-1.4-1.14-2.97-1.95-4.72-2.45-1.75-.5-3.54-.74-5.38-.74-1.4,0-2.82.1-4.24.31-1.43.2-2.75.44-3.96.72-1.21.28-2.17.5-2.87.68l.48,2.8c1.02-.17,2.11-.34,3.28-.5,1.17-.16,2.35-.3,3.57-.42,1.21-.12,2.35-.17,3.43-.17,2.54,0,4.64.42,6.3,1.25,1.66.83,2.9,2.1,3.72,3.81s1.22,3.92,1.22,6.63v5.42h-6.65v-3.33c0-1.4-.34-2.7-1.03-3.89-.69-1.2-1.64-2.16-2.87-2.89-1.22-.73-2.61-1.09-4.16-1.09s-2.89.37-4.11,1.09c-1.23.73-2.19,1.69-2.89,2.89-.7,1.2-1.05,2.49-1.05,3.89v3.33h-9.84v-18.5h-3.72v18.5h-10.02v-27.95h-3.72v31.32h53.76v-8.79c0-2.89-.41-5.31-1.22-7.26-.82-1.95-1.92-3.5-3.33-4.64ZM868.83,369.7v-3.33c0-.87.2-1.66.61-2.36.41-.7.95-1.25,1.62-1.66.67-.41,1.41-.61,2.23-.61s1.6.21,2.28.61c.67.41,1.2.96,1.6,1.66.39.7.59,1.49.59,2.36v3.33h-8.92Z"/>
    <rect class="cls-1" x="951.99" y="343.19" width="3.76" height="4.07"/>
    <rect class="cls-1" x="985.8" y="343.23" width="3.76" height="4.07"/>
    <path class="cls-1" d="M998.49,354.98c-.76-1.15-1.8-2.07-3.13-2.76-1.33-.68-3.01-1.03-5.05-1.03-1.46,0-2.77.17-3.94.52-1.17.35-2.23.83-3.19,1.44-.96.61-1.85,1.33-2.67,2.14-.82.82-1.61,1.69-2.38,2.62-.15.18-.31.37-.46.56v-7.29h-3.76v18.5h-12.16c-1.44,0-2.82-.21-4.15-.61.01,0,.02-.02.03-.02,1.6-1.21,2.98-2.54,4.13-3.98,1.15-1.44,2.03-2.89,2.65-4.33.61-1.44.92-2.76.92-3.96v-2.62c-1.25-.67-2.53-1.22-3.83-1.66s-2.59-.77-3.87-.98c-1.28-.22-2.52-.33-3.72-.33s-2.39.11-3.67.33c-1.28.22-2.58.55-3.89.98s-2.6.99-3.85,1.66v2.62c0,1.2.31,2.52.92,3.96.61,1.44,1.49,2.89,2.65,4.33,1.15,1.44,2.53,2.77,4.13,3.98.01,0,.02.02.03.02-1.33.4-2.69.61-4.1.61h-6.34s0,0,0,0c0,0,0,0,0,0h-4.77v-7.09c0-1.28-.15-2.59-.46-3.92-.31-1.33-.84-2.57-1.6-3.72-.76-1.15-1.8-2.07-3.13-2.76-1.33-.68-3.03-1.03-5.1-1.03-1.81,0-3.41.28-4.81.83-1.4.55-2.65,1.28-3.76,2.19s-2.14,1.92-3.08,3.06c-.32.38-.63.78-.94,1.17v-16.7h-3.76v27.95h-2.89v3.37h34.29s0,0,0,0,0,0,0,0h6.08c2.27,0,4.4-.36,6.39-1.09.57-.21,1.12-.45,1.66-.7.54.25,1.09.49,1.66.7,1.98.73,4.11,1.09,6.39,1.09h38.58v-10.46c0-1.28-.15-2.59-.46-3.92s-.84-2.57-1.6-3.72ZM912.14,363.12c.35-.44.71-.89,1.09-1.38.67-.85,1.41-1.68,2.21-2.51.8-.83,1.67-1.6,2.6-2.3.93-.7,1.95-1.27,3.04-1.71s2.28-.66,3.57-.66c1.49,0,2.72.3,3.7.9.98.6,1.71,1.49,2.21,2.67.5,1.18.74,2.68.74,4.48v7.09h-19.16v-6.58ZM949.3,363.55c-.95-1.12-1.69-2.27-2.23-3.46-.54-1.18-.81-2.28-.81-3.3v-.56c.98-.41,1.95-.75,2.93-1.01,1.63-.44,3.21-.66,4.72-.66s3.13.22,4.75.66c.98.26,1.96.61,2.95,1.02v.55c0,1.02-.26,2.12-.79,3.3-.53,1.18-1.27,2.33-2.23,3.46-.96,1.12-2.09,2.15-3.39,3.08-.41.3-.85.57-1.29.83-.44-.26-.86-.53-1.27-.83-1.28-.93-2.4-1.96-3.35-3.08ZM977.67,363.08c.33-.43.68-.87,1.05-1.34.67-.85,1.41-1.68,2.21-2.51.8-.83,1.68-1.6,2.62-2.3.95-.7,1.97-1.27,3.06-1.71s2.28-.66,3.57-.66c1.46,0,2.67.3,3.65.9.98.6,1.72,1.49,2.23,2.67.51,1.18.77,2.68.77,4.48v7.09h-19.16v-6.62Z"/>
    <rect class="cls-1" x="1007.98" y="341.75" width="3.72" height="31.32"/>
  </g>
</svg>