<?xml version="1.0" encoding="UTF-8"?>
<svg id="Layer_1" xmlns="http://www.w3.org/2000/svg" version="1.1" viewBox="0 0 1080 700">
  <!-- Generator: Adobe Illustrator 30.0.0, SVG Export Plug-In . SVG Version: 2.1.1 Build 123)  -->
  <defs>
    <style>
      .st0 {
        fill: #fcfcfc;
      }

      .st1 {
        fill: #254384;
      }

      .st2 {
        fill: #213768;
      }

      .st3 {
        fill: #1f3264;
      }

      .st4 {
        fill: #231f20;
      }

      .st5 {
        fill: #f47458;
      }

      .st6 {
        fill: #ffc3b5;
      }

      .st7 {
        opacity: .1;
      }

      .st8 {
        fill: #3e4654;
      }

      .st9 {
        fill: #293241;
      }

      .st10 {
        fill: #f4b34a;
      }

      .st11 {
        fill: #d1d1d1;
      }

      .st12 {
        fill: #fec55e;
      }
    </style>
  </defs>
  <g id="_Слой_2">
    <path class="st12" d="M644.77,194.4l-17.73,7.87c-4.54,2.02-9.84-.04-11.86-4.57l-7.87-17.73c-2.02-4.54.03-9.84,4.57-11.86l17.73-7.87c4.54-2.02,9.84.04,11.86,4.57l7.87,17.73c2.01,4.54-.04,9.84-4.57,11.86h0Z"/>
    <rect class="st1" x="295.4" y="184.02" width="18.04" height="18.04" rx="3.88" ry="3.88"/>
    <rect class="st1" x="790" y="105.98" width="18.04" height="18.04" rx="3.88" ry="3.88"/>
    <path d="M653.06,36.07c-1.44,0-2.87-.54-3.97-1.64h0l-6.4-6.4c-1.06-1.06-1.64-2.47-1.64-3.97s.58-2.91,1.64-3.97l6.4-6.4c2.19-2.19,5.75-2.19,7.94,0l6.4,6.4c1.06,1.06,1.64,2.47,1.64,3.97s-.58,2.91-1.64,3.97l-6.4,6.4c-1.09,1.09-2.53,1.64-3.97,1.64h0ZM650.68,32.84c1.31,1.31,3.45,1.31,4.77,0l6.4-6.4c.63-.63.99-1.48.99-2.38s-.35-1.75-.99-2.38l-6.4-6.4c-1.31-1.31-3.45-1.31-4.77,0l-6.4,6.4c-.63.63-.99,1.48-.99,2.38s.35,1.75.99,2.38l6.4,6.4h0Z"/>
    <path d="M505.41,146.67c-1.44,0-2.87-.54-3.97-1.64l-6.4-6.4c-2.19-2.19-2.19-5.75,0-7.94l6.4-6.4c2.19-2.19,5.75-2.19,7.94,0l6.4,6.4c2.19,2.19,2.19,5.75,0,7.94l-6.4,6.4c-1.09,1.09-2.53,1.64-3.97,1.64h0ZM505.41,124.88c-.87,0-1.73.32-2.38.98l-6.4,6.4c-1.31,1.31-1.31,3.45,0,4.77l6.4,6.4c1.31,1.31,3.45,1.31,4.77,0l6.4-6.4c1.31-1.31,1.31-3.45,0-4.77l-6.4-6.4c-.66-.66-1.52-.98-2.38-.98h0Z"/>
    <rect class="st12" x="356.35" y="94.67" width="79.72" height="4.49" rx=".97" ry=".97"/>
  </g>
  <g id="Layer_11">
    <g>
      <g>
        <path class="st8" d="M786.92,685.53c55.88-22.5,60.44-102.88,27.75-146.85-32.68-43.97-38.17-59.38-26.46-129.91,18.72-112.74-105.01-227.19-335.79-140.72-185.6,69.54-223.01,299.19-110.39,417.47h444.88Z"/>
        <path class="st4" d="M827.05,683.64H267.17c-.98,0-1.78.81-1.8,1.82v.04c-.02,1.05.79,1.92,1.8,1.92h559.88c1.05,0,1.9-.85,1.9-1.89s-.85-1.89-1.9-1.89Z"/>
      </g>
      <g>
        <g>
          <polygon class="st2" points="737.24 683.8 386.47 683.27 386.47 475.17 742.27 475.17 737.24 683.8"/>
          <rect class="st3" x="379.16" y="475.13" width="365.74" height="49.71"/>
          <g>
            <path class="st6" d="M726.26,446.71c-.34,1.23-.53,1.64-.95,2.47-2.75,5.34-9.12,12.95-9.12,12.95l-4.93-11.86s.8-3.72,2.2-9.05c4.76,1.32,9.3,2.09,12.81,5.48h0Z"/>
            <path class="st11" d="M697.99,436.43s27.5,12.64,28.39,12.39c.57-.15,11.28-19.28,11.4-37.27.05-8.31-8.03-18.3-17.05-16.32-4.54.99-4.47,2.34-11.19,12.76-6.72,10.42-11.54,28.44-11.54,28.44h-.01Z"/>
            <path class="st6" d="M674.51,663.03s.65,11.53.66,11.55c.24,1.47,1.18,5.08,1.18,6.41,0,5-22.24-4.24-17.25-6.45.45-.2,2.81-1.72,2.97-3.42.23-2.62-.58-8.25-.58-8.25l13.03.16h0Z"/>
            <path class="st4" d="M659.16,674.49s5.22,1.53,7.89,1.91,6.2-2.83,8.09-1.97c2.09.95,2,9.57,2,9.57,0,0-27.37.95-35.87-.08-3.25-.4,7.21-5.87,17.89-9.43h0Z"/>
            <path class="st6" d="M720,663.03s.65,11.53.66,11.55c.24,1.47,1.18,5.08,1.18,6.41,0,5-22.24-4.24-17.25-6.45.45-.2,3.52-2.85,3.66-4.54.23-2.62.11-6.79.11-6.79l11.65-.16h0Z"/>
            <path class="st4" d="M704.65,674.49s5.22,1.53,7.89,1.91,6.2-2.83,8.09-1.97c2.09.95,2.17,9.57,2.17,9.57,0,0-27.91,1.11-36.04-.08-3.24-.48,7.21-5.87,17.89-9.43h0Z"/>
            <path class="st6" d="M714.05,428.3l-28.18,21.14c-.25.1-.76.3-1.55.62-2.85,1.14-8.77,3.52-14.69,5.63l-.06.02c-2.06.68-5.66,2.06-9.15,3.4-3.87,1.49-8.67,3.34-9.5,3.44-.15-.04-.4-.12-.75-.23-2.03-.61-6.81-1.32-8.88-1.56-1.32-.15-4.52-.19-4.44,1.26.13,2.3,3.25,1.03,5.29,1.97-1.31.46-3.9,1.39-6.54,1.94l-6.2.72c-.46.1-3.92-.18-3.83,1.42v.08c.2,1.44,3.84,1.2,10.05,1.48-.7.23-1.54.46-2.33.65-.42,0-2.26.4-3.23.67-1.73-.2-4.44.12-4.09,1.82.18.85,3.95.58,3.95.58.51-.04,4.52-.3,5.31-.32-1.33.25-7.02,1.25-6.95,2.59.06,1.12,1.61,1.12,2.83,1.04.72-.05,6.88-1.09,7.6-1.17-.91.58-7,.58-6.98,1.1.12,2.18,11.1.79,11.56.67,1.37-.35,3.66-.92,5.68-2.18,2.42-1.5,6.28-3.6,6.87-3.92,1.23-.27,5.64-1.18,11.2-2.3,2.38-.49,4.99-1.01,7.69-1.56v-.02c.58-.11,2.43-.62,9.38-2.54,9.5-2.64,9.91-2.88,10.08-2.98,1.68-1.01,31.11-23.75,32.36-24.72l.74-.57-13.25-8.19h0v.02Z"/>
            <g>
              <path class="st6" d="M717.95,376.43l2.52,17.01s-9.6,8.23-15.21,6.5c-4.7-1.46-1.48-8.01-1.48-8.01,0,0,2.5-9.08,1.73-13.84-.77-4.76,12.43-1.66,12.43-1.66h0Z"/>
              <path class="st2" d="M716.13,381.57c-2.41,1.21-7.17,2.87-10.87,3.28.35-2.38.56-4.9.26-6.76-.35-2.2,2.27-2.72,5.19-2.64,3.83.35,7.24.99,7.24.99l.49,3.28c-.73.82-1.49,1.47-2.3,1.87h0Z"/>
              <path class="st6" d="M730.07,356.8c.4,0-3.8,19.01-10.29,22.28-6.49,3.28-16.17,1.56-17.99-3.55-2.01-5.66,5.32-25.05,14.45-27.52,9.13-2.47,13.83,8.79,13.83,8.79h0Z"/>
              <path class="st4" d="M722.55,339.33c5.18,3.19,7.56,7.93,8.36,9.86,2.43,1.23,5.38,3.9,6.79,11.08,1.73,8.83-4.44,15.63-10.99,17.68-6.55,2.05-7.59,6.49-7.59,6.49l-.71-4.79s1.46-4.33,3.65-6.5c2.19-2.17-1.04-5.33-1.32-7.91-.22-1.99,1.15-5.84.85-9.1,0,0-3.64-5.89-7.23-7.34-6.12-2.48,1.54-13.56,8.19-9.47h0Z"/>
              <path class="st6" d="M719.8,368.55c-.85,2.2-.5,4.38.77,4.87s3-.89,3.85-3.08.5-4.38-.77-4.87c-1.28-.49-3,.89-3.85,3.08Z"/>
            </g>
            <path class="st4" d="M714.97,481.21s3.77,19.44,2.23,34.19c-1.54,14.74-1.66,67.12-1.66,67.12l5.86,83.8-13.91.32s-16.49-83.76-16.18-81.61c.31,2.15-5.53-58.98-5.53-58.98l19.66-46.68,9.52,1.84h0Z"/>
            <path class="st9" d="M711.29,480.3s2.46,17.51-.61,25.19c-3.07,7.68-26.35,83.02-26.65,89.17-.31,6.14-8.05,74.04-8.05,74.04l-16.17-.49-3.49-75.49,7.33-94.88,7.12-23.99,40.55,6.45h-.01,0Z"/>
            <path class="st6" d="M720.46,393.45s-3.99,2.79-7.71,2.47c-3.72-.32-8.98-3.99-8.98-3.99l.73-2.64s9.62-1.49,9.86-1.34c.24.16,6.09,5.5,6.09,5.5h0Z"/>
            <path class="st0" d="M670.7,454.56c2.12-12.32,7.36-35.02,11.45-41.85,1.8-2.99,9.78-22.59,21.67-20.88,8.28,1.2,16.65,1.6,16.65,1.6,0,0,7.39,1.3,10.65,4.54,3.26,3.25,4.11,12.25-.56,29.32-3.69,13.48-8.26,20.88-10.53,30.69-.46,3.3-.85,6.54-1.37,10.34-.83,14.68.01,34.07.01,34.07,0,0-40.24,8.91-55.29-4.61,0,0,5.16-30.61,7.33-43.24h-.02Z"/>
            <path class="st10" d="M617.5,558.31l47.47,13.01c1.39.38,2.86-.73,3.22-2.4l5.07-32.34c.87-4.1.79-8.61-2.61-9.53l-41.47-11.36c-1.32-.36-2.74.62-3.16,2.2l-10.12,36.93c-.43,1.58.29,3.14,1.61,3.5h0Z"/>
            <polygon class="st10" points="655.92 575.22 666.28 571.26 660.65 565.24 656.13 565.35 655.92 575.22"/>
            <path class="st10" d="M637,523.01l2.96.81,2.68-9.78c.59-2.16,2.55-3.52,4.35-3.02l6.38,1.75c1.81.49,2.8,2.66,2.21,4.82l-2.68,9.78,2.96.81,2.68-9.78c1.13-4.11-.76-8.22-4.2-9.17l-6.38-1.75c-3.44-.94-7.17,1.63-8.29,5.75l-2.68,9.78h0Z"/>
            <path class="st12" d="M670.64,527.05c-1.02-.28-46.99-12.87-48.53-13.29-1.25-.35-2.61.53-3.11,1.99l-.37.89h0l-16.85,39.72c-.45,1.06.11,2.29,1.22,2.64,9.98,3.13,52.88,16.23,52.88,16.23,1.1.3,7.53-29.51,10.05-41.46.46-2.14,3.08-3.09,4.77-1.57,3.03,2.73,1.51,10.46,1.51,10.46l.2-.71.85-5.36c.87-4.1.79-8.61-2.61-9.53h-.01Z"/>
            <path class="st6" d="M655.85,503.71s-.93-.29-4.08.7c-3.15.99-6.29,4.93-5.99,6.56s2.61,1.63,2.61,1.63c0,0,.53,2.8,1.78,3.14,1.25.35,2.47.99,3.03,1.63.56.65,3.22,1.37,5.19-.3,1.97-1.67,5.77-10.41,5.77-10.41,0,0,26.82-29.25,28.53-35.73,1.7-6.48,10.35-35.48,10.35-35.48l-18.87-2.28s-5.46,21.04-7.17,26.84c-1.7,5.8-21.17,43.69-21.17,43.69h0Z"/>
            <path class="st11" d="M679.58,438.3s20.6,6.03,21.44,5.65c.54-.25,12.84-25.03,11.53-40-.72-8.28-9.71-13.78-15.79-10.96-4.21,1.96-5.57,3.98-10.48,15.37-4.91,11.38-6.71,29.94-6.71,29.94h0Z"/>
            <path class="st10" d="M656.23,549.06l-40.19-12.27-.75-6.28c-.06-.5.3-.95.8-1.01.5-.06.95.3,1.01.8l.61,5.1,38.05,11.62,4.51-4.19c.37-.35.94-.32,1.28.04.35.37.32.94-.04,1.28l-5.27,4.9h-.01,0Z"/>
            <path class="st5" d="M647.14,468.74s-4.42-1.35-4.58-4.18c0,0-.52,1.61.7,2.9,1.22,1.29,3.88,1.28,3.88,1.28h0Z"/>
            <rect class="st0" x="622.8" y="452.04" width="18.86" height="25.34" transform="translate(-125.55 261.14) rotate(-21.28)"/>
            <path class="st6" d="M640.79,460.74s-5.23-.72-5.38.91,6.56,2.58,6.98,3.14-.49-3.45-.49-3.45l-1.1-.61h0Z"/>
          </g>
        </g>
        <g>
          <path class="st0" d="M646.22,278.77v57.37c0,4.04-3.28,7.32-7.32,7.32h-72.95l-40.69,23.39,7.32-23.39h0c-4.04,0-7.32-3.28-7.32-7.32v-57.37c0-4.04,3.28-7.32,7.32-7.32h106.32c4.04,0,7.32,3.28,7.32,7.32h0Z"/>
          <path class="st11" d="M631.39,293.2h-89.06c-2.28,0-4.11-1.84-4.11-4.11h0c0-2.28,1.84-4.11,4.11-4.11h89.06c2.28,0,4.11,1.84,4.11,4.11h0c0,2.28-1.84,4.11-4.11,4.11Z"/>
          <path class="st11" d="M631.39,305.55h-89.06c-2.28,0-4.11-1.84-4.11-4.11h0c0-2.28,1.84-4.11,4.11-4.11h89.06c2.28,0,4.11,1.84,4.11,4.11h0c0,2.28-1.84,4.11-4.11,4.11Z"/>
          <path class="st11" d="M601.17,318.98h-57.85c-2.28,0-4.11-1.84-4.11-4.11h0c0-2.28,1.84-4.11,4.11-4.11h57.85c2.28,0,4.12,1.84,4.12,4.11h0c0,2.28-1.84,4.11-4.12,4.11Z"/>
        </g>
        <g>
          <path class="st6" d="M560.37,401.58c-.29-1.11-22.31,6.16-26.18,9.22-3.55,2.8-20.34,23.7-23.61,27.7l-19.79-22.57-12.2,11.1s25.05,30.09,33.36,30.09c4.41,0,13.31-20.41,20.66-32.48,1.2-1.79,2.09-3,2.48-3.28,2.13-1.51,7.48-.41,9.17-.85,1.69-.44,3.7-2.01,4.2-2.86s1.39-1.71,1.06-2.97-.07-2.02.12-3.32-.89-2.58-.98-2.89c-.08-.31,11.99-5.78,11.7-6.89h0Z"/>
          <path class="st6" d="M416.08,431.42c-8.44,27.51-8,26.76-6.9,43.72h10.2c-.32-7.07-.1-13.22-.1-13.22l9.03-22.12c-5.72-8.02-12.25-8.38-12.25-8.38h0Z"/>
          <path class="st2" d="M469.53,355.83c2.83,5.26,4.92,7.26,10.36,9.72,3.66,1.66,6.31,7.91,5.07,12.6-3.16,11.9,5.26,8.75,11.96,15.15,16.12,15.42-10.6,29.96-14.43,32.42-3.82,2.45-10.34,4.14-12.89,4.51-7.66,1.11-18.56-3.64-24.88-12.44-6.31-8.8-16.06-7.19-14.07-12.67,3.78-10.39-2.44-8.81-4.16-21.93-1.61-12.28,1.9-24.69,9.55-30.78,9.81-7.81,27.22-8.25,33.48,3.41h0Z"/>
          <path class="st0" d="M482.01,434.71l4.64,4.45c4.85-1.2,14.61-12.28,14.61-12.28,0,0-15.24-20.43-26.84-27.13-11.6-6.69-21.86-5.35-21.86-5.35,0,0-14.94,2.69-19.14,4.69-4.42,2.11-14.11,11.94-21.9,36.74,3.11,3.44,14.22,8.36,16.85,8.69,2.51-7.93,3.14-8.44,3.14-8.44.47,4.98-2.49,39.06-2.49,39.06h54.31l-1.31-40.42h0s0,0,0,0Z"/>
          <path class="st6" d="M450.49,379.38s-.44,10.11-1.73,13.83,2.7,17.23,10.76,19.19c8.05,1.97.14-16.04.27-19.95.13-3.92,2.72-15.52,2.72-15.52l-12.03,2.45h0Z"/>
          <path class="st2" d="M450.49,379.38s-.03.68-.1,1.75c.63.51,1.32.99,2.09,1.42,3.21,1.82,6.12,2.13,8.58,1.42.71-3.71,1.45-7.05,1.45-7.05l-12.03,2.45h0Z"/>
          <path class="st6" d="M452.9,351.77s-4.72,1.31-7.45,5.96c-2.72,4.65-4.08,18,5.94,23.69,10.02,5.7,17.13-3.43,16.83-11.97-.3-8.54-2.7-19.83-15.33-17.69h0Z"/>
          <path class="st6" d="M445.9,369.6c.82,2.18.28,4.4-1.2,4.95-1.48.55-3.33-.77-4.15-2.95s-.28-4.4,1.2-4.95c1.48-.55,3.33.77,4.15,2.95Z"/>
        </g>
        <g>
          <g>
            <path class="st8" d="M342.17,631.44s49.7-36.89,56.51-52.79c6.81-15.9-7.23-14.11-7.23-14.11,0,0,20.07-28.44,14.74-37.83s-16.41,2.61-16.41,2.61c0,0,9.31-38.47,1.21-40.6-15.08-3.99-27.45,37.41-27.45,37.41,0,0,1.11-17.19-8.33-14.87-14.23,3.49-6.7,40.5-6.7,40.5,0,0-4.54-6.56-12.34-.32-14,11.2,6,80.01,6,80.01h0Z"/>
            <path class="st0" d="M334.07,552.39c7.81-6.24,14.44-.64,14.44-.64,0,0-7.53-37,6.7-40.5,9.43-2.31,8.33,14.87,8.33,14.87,0,0,12.37-41.4,27.45-37.41l-49.2,142.61c-2.2-8.91-20.81-68.48-7.73-78.94h0Z"/>
          </g>
          <path class="st11" d="M342.24,630.16s50.93-.06,61.44-8.88c10.51-8.83-2.38-9.52-2.38-9.52,0,0,24.34-12.92,23.98-21.54-.35-8.62-8.61-6.88-8.61-6.88,0,0,16.82-15.07,13.37-22.38-5.31-11.23-29.37,10.07-29.37,10.07,0,0,1.84-8.54-5.62-10.32-11.26-2.69-22.67,29.31-22.67,29.31,0,0,5.38-14.42-2.35-12.81-13.87,2.87-27.79,52.95-27.79,52.95h0Z"/>
          <g>
            <path class="st9" d="M340.12,632.99s-45.2-38.57-50.72-54.12c-5.51-15.54,7.74-12.98,7.74-12.98,0,0-17.37-28.27-11.73-36.89,5.64-8.62,15.46,3.47,15.46,3.47,0,0-6.52-37.17,1.31-38.71,14.58-2.88,23.85,37.26,23.85,37.26,0,0-.01-16.42,8.83-13.65,13.33,4.19,3.92,38.93,3.92,38.93,0,0,4.92-12.99,11.97-6.58,12.64,11.51-10.6,83.25-10.6,83.25h-.02Z"/>
            <path class="st11" d="M355.06,542.23c-8.24-4.79-13.23,3.89-13.23,3.89,0,0,6.34-24.55-6.99-28.72-8.84-2.78-8.83,13.65-8.83,13.65,0,0-9.26-40.14-23.85-37.26l36.77,146.99c2.64-8.34,31.01-89.89,16.12-98.54h0Z"/>
          </g>
          <path class="st11" d="M335.57,627.46s-49.66.01-56.57-.79c-6.9-.8.73-6.97.73-6.97,0,0-15.45.56-17.81-3.19s3.96-5.23,3.96-5.23c0,0-15.39-4.46-14.65-7.73,1.37-6.09,18.36-2.12,18.36-2.12,0,0-6.31-3.06-3.74-5.91,3.87-4.3,20.39,7.38,20.39,7.38,0,0-5.67-10.81-2.54-13.22,13.1-10.12,51.88,37.79,51.88,37.79h0Z"/>
          <path class="st0" d="M299.72,683.36h82.65c10.53-9.62,16.94-22.86,16.7-37.38-.12-7.33-1.63-13.73-4.78-20.01l-106.56,1.2c-2.95,6.38-4.52,13.39-4.41,20.72.23,13.84,6.44,26.31,16.39,35.47h0Z"/>
        </g>
      </g>
    </g>
  </g>
  <path class="st7" d="M1071.3,454.3c-1.04,0-2.08-.39-2.87-1.19h0l-4.64-4.64c-.77-.77-1.19-1.79-1.19-2.87s.42-2.11,1.19-2.87l4.64-4.64c1.59-1.59,4.16-1.59,5.75,0l4.64,4.64c.77.77,1.19,1.79,1.19,2.87s-.42,2.11-1.19,2.87l-4.64,4.64c-.79.79-1.83,1.19-2.87,1.19h0ZM1069.58,451.97c.95.95,2.5.95,3.45,0l4.64-4.64c.46-.46.71-1.07.71-1.72s-.25-1.26-.71-1.72l-4.64-4.64c-.95-.95-2.5-.95-3.45,0l-4.64,4.64c-.46.46-.71,1.07-.71,1.72s.25,1.26.71,1.72l4.64,4.64h0Z"/>
  <path class="st7" d="M8.69,555.99c-1.04,0-2.08-.39-2.87-1.19h0l-4.64-4.64c-.77-.77-1.19-1.79-1.19-2.87s.42-2.11,1.19-2.87l4.64-4.64c1.59-1.59,4.16-1.59,5.75,0l4.64,4.64c.77.77,1.19,1.79,1.19,2.87s-.42,2.11-1.19,2.87l-4.64,4.64c-.79.79-1.83,1.19-2.87,1.19h0ZM6.97,553.65c.95.95,2.5.95,3.45,0l4.64-4.64c.46-.46.71-1.07.71-1.72s-.25-1.26-.71-1.72l-4.64-4.64c-.95-.95-2.5-.95-3.45,0l-4.64,4.64c-.46.46-.71,1.07-.71,1.72s.25,1.26.71,1.72l4.64,4.64h0Z"/>
</svg>