<?xml version="1.0" encoding="UTF-8"?>
<svg id="Layer_1" xmlns="http://www.w3.org/2000/svg" version="1.1" viewBox="0 0 1080 1080">
  <!-- Generator: Adobe Illustrator 30.0.0, SVG Export Plug-In . SVG Version: 2.1.1 Build 123)  -->
  <defs>
    <style>
      .st0 {
        fill: #fcfcfc;
      }

      .st1 {
        fill: #254384;
      }

      .st2 {
        fill: #213768;
      }

      .st3 {
        fill: #1f3264;
      }

      .st4 {
        fill: #231f20;
      }

      .st5 {
        fill: #f47458;
      }

      .st6 {
        fill: #ffc3b5;
      }

      .st7 {
        fill: #3e4654;
      }

      .st8 {
        fill: #293241;
      }

      .st9 {
        fill: #f4b34a;
      }

      .st10 {
        fill: #d1d1d1;
      }

      .st11 {
        fill: #fec55e;
      }
    </style>
  </defs>
  <g id="_Слой_2">
    <path class="st11" d="M684.22,271.01l-25.16,11.17c-6.44,2.86-13.97-.05-16.83-6.48l-11.17-25.16c-2.86-6.44.04-13.97,6.48-16.83l25.17-11.17c6.44-2.86,13.97.05,16.83,6.48l11.17,25.17c2.85,6.44-.05,13.97-6.48,16.83h0Z"/>
    <rect class="st1" x="188.34" y="256.28" width="25.61" height="25.61" rx="8" ry="8"/>
    <rect class="st1" x="890.35" y="145.52" width="25.61" height="25.61" rx="8" ry="8"/>
    <path class="st1" d="M868.75,1064.65l-11.35-11.35c-1.86-1.86-1.86-4.89,0-6.77l11.35-11.35c1.86-1.86,4.89-1.86,6.77,0l11.35,11.35c1.86,1.86,1.86,4.89,0,6.77l-11.35,11.35c-1.86,1.86-4.89,1.86-6.77,0Z"/>
    <path d="M695.98,46.29c-2.04,0-4.08-.77-5.63-2.33h0l-9.09-9.09c-1.51-1.51-2.33-3.51-2.33-5.63s.83-4.13,2.33-5.63l9.09-9.09c3.11-3.11,8.16-3.11,11.27,0l9.09,9.09c1.51,1.51,2.33,3.51,2.33,5.63s-.83,4.13-2.33,5.63l-9.09,9.09c-1.55,1.55-3.59,2.33-5.63,2.33h0ZM692.6,41.71c1.86,1.86,4.9,1.86,6.77,0l9.09-9.09c.9-.9,1.4-2.1,1.4-3.38s-.49-2.48-1.4-3.38l-9.09-9.09c-1.86-1.86-4.9-1.86-6.77,0l-9.09,9.09c-.9.9-1.4,2.1-1.4,3.38s.49,2.48,1.4,3.38l9.09,9.09h0Z"/>
    <path d="M486.41,203.27c-2.04,0-4.08-.77-5.63-2.33l-9.09-9.09c-3.11-3.11-3.11-8.16,0-11.27l9.09-9.09c3.11-3.11,8.16-3.11,11.27,0l9.09,9.09c3.11,3.11,3.11,8.16,0,11.27l-9.09,9.09c-1.55,1.55-3.59,2.33-5.63,2.33ZM486.41,172.34c-1.23,0-2.45.46-3.38,1.39l-9.09,9.09c-1.86,1.86-1.86,4.9,0,6.77l9.09,9.09c1.86,1.86,4.9,1.86,6.77,0l9.09-9.09c1.86-1.86,1.86-4.9,0-6.77l-9.09-9.09c-.93-.93-2.16-1.39-3.38-1.39h0Z"/>
    <rect class="st11" x="274.85" y="129.46" width="113.15" height="6.37" rx="2" ry="2"/>
  </g>
  <g id="Layer_11" data-name="Layer_1">
    <g>
      <g>
        <path class="st7" d="M885.98,968.1c79.32-31.94,85.78-146.02,39.39-208.43-46.39-62.41-54.17-84.28-37.55-184.39,26.57-160.02-149.04-322.46-476.6-199.73-263.43,98.7-316.53,424.66-156.68,592.54h631.44Z"/>
        <path class="st4" d="M942.93,965.42H148.27c-1.39,0-2.52,1.15-2.55,2.58v.06c-.03,1.49,1.12,2.72,2.55,2.72h794.66c1.49,0,2.7-1.2,2.7-2.68s-1.21-2.68-2.7-2.68Z"/>
      </g>
      <g>
        <g>
          <polygon class="st2" points="815.46 965.64 317.6 964.89 317.6 669.52 822.6 669.52 815.46 965.64"/>
          <rect class="st3" x="307.23" y="669.47" width="519.11" height="70.56"/>
          <g>
            <path class="st6" d="M799.88,629.13c-.48,1.75-.75,2.33-1.35,3.51-3.9,7.58-12.95,18.38-12.95,18.38l-7-16.83s1.14-5.28,3.12-12.84c6.76,1.88,13.2,2.97,18.18,7.78h0Z"/>
            <path class="st10" d="M759.76,614.54s39.03,17.94,40.3,17.59c.81-.22,16.01-27.37,16.18-52.9.07-11.79-11.4-25.98-24.2-23.17-6.45,1.41-6.34,3.32-15.88,18.11-9.54,14.79-16.38,40.36-16.38,40.36h0Z"/>
            <path class="st6" d="M726.43,936.16s.92,16.36.93,16.39c.34,2.08,1.68,7.21,1.68,9.1,0,7.09-31.56-6.02-24.49-9.16.64-.29,3.99-2.44,4.21-4.85.33-3.72-.82-11.71-.82-11.71l18.49.23h0Z"/>
            <path class="st4" d="M704.64,952.42s7.41,2.17,11.2,2.71,8.8-4.02,11.48-2.79c2.96,1.35,2.84,13.59,2.84,13.59,0,0-38.85,1.35-50.91-.12-4.61-.57,10.23-8.33,25.39-13.38h0Z"/>
            <path class="st6" d="M791,936.16s.92,16.36.93,16.39c.34,2.08,1.68,7.21,1.68,9.1,0,7.09-31.56-6.02-24.49-9.16.64-.29,4.99-4.04,5.2-6.45.33-3.72.15-9.64.15-9.64l16.53-.23h0Z"/>
            <path class="st4" d="M769.21,952.42s7.41,2.17,11.2,2.71,8.8-4.02,11.48-2.79c2.96,1.35,3.08,13.59,3.08,13.59,0,0-39.62,1.57-51.15-.12-4.6-.68,10.24-8.33,25.39-13.38h0Z"/>
            <path class="st6" d="M782.55,603l-40,30c-.36.14-1.08.43-2.2.88-4.04,1.62-12.45,5-20.85,7.99l-.09.03c-2.93.96-8.04,2.92-12.98,4.83-5.49,2.12-12.3,4.74-13.48,4.88-.21-.06-.57-.17-1.07-.32-2.88-.87-9.67-1.88-12.61-2.21-1.87-.21-6.41-.27-6.3,1.79.18,3.26,4.61,1.46,7.51,2.8-1.86.65-5.53,1.97-9.28,2.76l-8.8,1.02c-.66.14-5.56-.26-5.44,2.02v.11c.28,2.04,5.45,1.71,14.26,2.1-1,.33-2.19.66-3.3.92-.6,0-3.21.57-4.58.95-2.46-.28-6.3.17-5.8,2.58.25,1.21,5.61.82,5.61.82.73-.06,6.41-.43,7.53-.45-1.89.35-9.96,1.77-9.86,3.68.09,1.59,2.28,1.59,4.01,1.47,1.02-.07,9.77-1.55,10.79-1.66-1.29.82-9.94.83-9.9,1.56.17,3.09,15.75,1.12,16.41.95,1.94-.49,5.2-1.31,8.06-3.09,3.43-2.13,8.92-5.11,9.75-5.56,1.75-.39,8.01-1.67,15.9-3.27,3.38-.69,7.08-1.43,10.91-2.22v-.03c.83-.15,3.45-.88,13.31-3.61,13.49-3.75,14.06-4.09,14.31-4.23,2.39-1.43,44.15-33.71,45.93-35.08l1.05-.81-18.8-11.63h0Z"/>
            <g>
              <path class="st6" d="M788.08,529.37l3.58,24.15s-13.63,11.68-21.59,9.22c-6.67-2.07-2.1-11.37-2.1-11.37,0,0,3.55-12.89,2.46-19.65s17.64-2.35,17.64-2.35Z"/>
              <path class="st2" d="M785.5,536.67c-3.42,1.72-10.18,4.07-15.43,4.65.5-3.38.79-6.96.37-9.59-.5-3.12,3.22-3.86,7.36-3.75,5.43.49,10.27,1.4,10.27,1.4l.69,4.65c-1.04,1.16-2.12,2.09-3.26,2.66h0Z"/>
              <path class="st6" d="M805.28,501.51c.57,0-5.39,26.98-14.61,31.63-9.21,4.65-22.95,2.22-25.53-5.04-2.85-8.04,7.55-35.56,20.51-39.06,12.96-3.5,19.63,12.48,19.63,12.48h0Z"/>
              <path class="st4" d="M794.62,476.72c7.35,4.53,10.73,11.25,11.87,14,3.45,1.75,7.63,5.53,9.64,15.73,2.46,12.53-6.3,22.19-15.6,25.1-9.3,2.91-10.77,9.21-10.77,9.21l-1.01-6.8s2.07-6.15,5.18-9.23c3.11-3.08-1.47-7.57-1.87-11.23-.31-2.82,1.63-8.29,1.21-12.92,0,0-5.16-8.36-10.26-10.42-8.68-3.52,2.18-19.25,11.62-13.44h0Z"/>
              <path class="st6" d="M790.71,518.19c-1.2,3.12-.71,6.21,1.1,6.91s4.26-1.26,5.46-4.37.71-6.21-1.1-6.91-4.26,1.26-5.46,4.37Z"/>
            </g>
            <path class="st4" d="M783.85,678.1s5.35,27.59,3.17,48.53c-2.18,20.92-2.35,95.26-2.35,95.26l8.32,118.94-19.74.46s-23.4-118.88-22.96-115.83-7.85-83.71-7.85-83.71l27.91-66.26,13.51,2.61h0Z"/>
            <path class="st8" d="M778.63,676.8s3.49,24.85-.87,35.75c-4.36,10.9-37.4,117.84-37.83,126.56-.44,8.72-11.42,105.09-11.42,105.09l-22.95-.69-4.96-107.15,10.4-134.67,10.1-34.05,57.55,9.16h-.02Z"/>
            <path class="st6" d="M791.65,553.53s-5.66,3.96-10.94,3.51c-5.28-.46-12.74-5.66-12.74-5.66l1.04-3.75s13.66-2.12,14-1.9c.34.23,8.65,7.8,8.65,7.8h0Z"/>
            <path class="st0" d="M721.02,640.27c3.01-17.49,10.44-49.71,16.25-59.4,2.55-4.25,13.88-32.06,30.76-29.63,11.75,1.7,23.63,2.27,23.63,2.27,0,0,10.49,1.84,15.11,6.45,4.62,4.61,5.84,17.38-.8,41.61-5.24,19.13-11.73,29.63-14.94,43.56-.65,4.68-1.21,9.28-1.94,14.67-1.18,20.84.02,48.36.02,48.36,0,0-57.11,12.65-78.47-6.54,0,0,7.32-43.45,10.41-61.37h0Z"/>
            <path class="st9" d="M645.51,787.53l67.38,18.46c1.97.54,4.06-1.03,4.57-3.41l7.19-45.9c1.23-5.82,1.12-12.22-3.7-13.53l-58.86-16.13c-1.87-.51-3.89.88-4.49,3.12l-14.36,52.41c-.61,2.24.41,4.46,2.28,4.97h0Z"/>
            <polygon class="st9" points="700.04 811.53 714.75 805.91 706.76 797.36 700.34 797.52 700.04 811.53"/>
            <path class="st9" d="M673.19,737.43l4.2,1.15,3.8-13.88c.84-3.07,3.62-5,6.18-4.29l9.06,2.49c2.57.7,3.98,3.78,3.14,6.84l-3.8,13.88,4.2,1.15,3.8-13.88c1.6-5.83-1.08-11.67-5.96-13.01l-9.06-2.49c-4.88-1.34-10.17,2.32-11.76,8.16l-3.8,13.88h0Z"/>
            <path class="st11" d="M720.94,743.16c-1.45-.4-66.69-18.27-68.88-18.87-1.78-.49-3.71.75-4.41,2.83l-.53,1.27h0l-23.91,56.38c-.64,1.51.16,3.25,1.73,3.75,14.16,4.44,75.05,23.03,75.05,23.03,1.56.43,10.69-41.89,14.27-58.84.65-3.04,4.37-4.39,6.77-2.23,4.3,3.87,2.15,14.85,2.15,14.85l.28-1.01,1.2-7.61c1.23-5.82,1.12-12.22-3.7-13.53h-.02Z"/>
            <path class="st6" d="M699.95,710.03s-1.32-.41-5.79,1-8.93,7-8.5,9.31c.43,2.31,3.71,2.31,3.71,2.31,0,0,.75,3.98,2.53,4.46,1.78.49,3.5,1.4,4.3,2.31.8.92,4.57,1.94,7.37-.43,2.8-2.37,8.19-14.77,8.19-14.77,0,0,38.07-41.51,40.5-50.71,2.42-9.2,14.69-50.36,14.69-50.36l-26.79-3.23s-7.75,29.86-10.17,38.09c-2.42,8.23-30.05,62.01-30.05,62.01h0Z"/>
            <path class="st10" d="M733.63,617.19s29.24,8.56,30.43,8.02c.76-.35,18.22-35.53,16.37-56.78-1.02-11.75-13.78-19.56-22.41-15.55-5.98,2.78-7.9,5.65-14.87,21.81-6.97,16.15-9.52,42.5-9.52,42.5Z"/>
            <path class="st9" d="M700.48,774.4l-57.04-17.41-1.07-8.91c-.09-.71.42-1.35,1.13-1.43.71-.09,1.35.42,1.43,1.13l.87,7.24,54.01,16.49,6.4-5.95c.53-.49,1.34-.45,1.82.06.49.53.45,1.34-.06,1.82l-7.48,6.96h-.02Z"/>
            <path class="st5" d="M687.58,660.4s-6.27-1.92-6.5-5.93c0,0-.74,2.29.99,4.12s5.51,1.81,5.51,1.81h0Z"/>
            <rect class="st0" x="653.03" y="636.69" width="26.77" height="35.97" transform="translate(-192.16 286.5) rotate(-21.28)"/>
            <path class="st6" d="M678.57,649.04s-7.43-1.02-7.64,1.29,9.31,3.66,9.9,4.46-.7-4.89-.7-4.89l-1.56-.86h0Z"/>
          </g>
        </g>
        <g>
          <path class="st0" d="M686.28,390.77v81.43c0,5.74-4.65,10.39-10.39,10.39h-103.54l-57.75,33.2,10.39-33.2h0c-5.74,0-10.39-4.65-10.39-10.39v-81.43c0-5.74,4.65-10.39,10.39-10.39h150.9c5.74,0,10.39,4.65,10.39,10.39h0Z"/>
          <path class="st10" d="M665.23,411.24h-126.4c-3.23,0-5.84-2.61-5.84-5.84h0c0-3.23,2.61-5.84,5.84-5.84h126.4c3.23,0,5.84,2.61,5.84,5.84h0c0,3.23-2.61,5.84-5.84,5.84Z"/>
          <path class="st10" d="M665.23,428.77h-126.4c-3.23,0-5.84-2.61-5.84-5.84h0c0-3.23,2.61-5.84,5.84-5.84h126.4c3.23,0,5.84,2.61,5.84,5.84h0c0,3.23-2.61,5.84-5.84,5.84Z"/>
          <path class="st10" d="M622.33,447.84h-82.11c-3.23,0-5.84-2.61-5.84-5.84h0c0-3.23,2.61-5.84,5.84-5.84h82.11c3.23,0,5.85,2.61,5.85,5.84h0c0,3.23-2.61,5.84-5.85,5.84Z"/>
        </g>
        <g>
          <path class="st6" d="M564.42,565.07c-.41-1.57-31.67,8.75-37.16,13.08-5.04,3.98-28.87,33.64-33.51,39.31l-28.09-32.04-17.31,15.75s35.55,42.71,47.35,42.71c6.26,0,18.89-28.97,29.32-46.1,1.71-2.54,2.97-4.26,3.52-4.65,3.03-2.14,10.61-.58,13.02-1.21,2.4-.63,5.25-2.85,5.96-4.06.71-1.21,1.98-2.43,1.51-4.22-.47-1.79-.1-2.87.17-4.71s-1.27-3.66-1.39-4.1c-.11-.44,17.02-8.21,16.61-9.78h0Z"/>
          <path class="st6" d="M359.63,607.42c-11.98,39.05-11.35,37.98-9.79,62.05h14.48c-.46-10.04-.14-18.76-.14-18.76l12.82-31.4c-8.12-11.39-17.38-11.9-17.38-11.9h0Z"/>
          <path class="st2" d="M435.49,500.14c4.01,7.46,6.98,10.3,14.71,13.8,5.19,2.35,8.96,11.22,7.19,17.89-4.48,16.89,7.47,12.42,16.97,21.51,22.88,21.88-15.05,42.53-20.48,46.02-5.42,3.48-14.68,5.87-18.29,6.4-10.87,1.57-26.34-5.16-35.31-17.65-8.96-12.49-22.8-10.21-19.97-17.98,5.36-14.75-3.46-12.51-5.9-31.13-2.29-17.43,2.69-35.04,13.55-43.69,13.93-11.09,38.63-11.71,47.52,4.84h0Z"/>
          <path class="st0" d="M453.21,612.1l6.58,6.31c6.88-1.7,20.73-17.43,20.73-17.43,0,0-21.63-29-38.1-38.51-16.46-9.5-31.03-7.6-31.03-7.6,0,0-21.2,3.82-27.16,6.66-6.28,2.99-20.02,16.94-31.08,52.14,4.42,4.88,20.19,11.86,23.92,12.33,3.56-11.26,4.45-11.98,4.45-11.98.67,7.07-3.53,55.44-3.53,55.44h77.08l-1.86-57.37v.02Z"/>
          <path class="st6" d="M408.46,533.56s-.63,14.35-2.45,19.63c-1.82,5.28,3.83,24.45,15.27,27.24,11.43,2.8.2-22.77.39-28.32.19-5.56,3.86-22.03,3.86-22.03l-17.07,3.48h0Z"/>
          <path class="st2" d="M408.46,533.56s-.04.97-.14,2.49c.9.73,1.88,1.4,2.96,2.02,4.55,2.59,8.68,3.02,12.18,2.02,1.01-5.26,2.06-10.01,2.06-10.01l-17.07,3.48h0Z"/>
          <path class="st6" d="M411.89,494.38s-6.7,1.86-10.57,8.46c-3.86,6.6-5.79,25.55,8.43,33.63,14.22,8.09,24.32-4.87,23.89-16.99-.43-12.12-3.83-28.14-21.76-25.11h0Z"/>
          <path class="st6" d="M401.95,519.68c1.16,3.1.4,6.24-1.7,7.03-2.1.78-4.73-1.09-5.89-4.19s-.4-6.24,1.7-7.03c2.1-.78,4.73,1.09,5.89,4.19Z"/>
        </g>
        <g>
          <g>
            <path class="st7" d="M254.72,891.33s70.54-52.36,80.21-74.93c9.67-22.57-10.26-20.02-10.26-20.02,0,0,28.49-40.36,20.92-53.7s-23.29,3.7-23.29,3.7c0,0,13.21-54.6,1.72-57.63-21.4-5.66-38.96,53.1-38.96,53.1,0,0,1.58-24.4-11.82-21.11-20.2,4.96-9.51,57.48-9.51,57.48,0,0-6.44-9.31-17.51-.45-19.87,15.9,8.51,113.56,8.51,113.56h0Z"/>
            <path class="st0" d="M243.22,779.12c11.08-8.86,20.5-.91,20.5-.91,0,0-10.69-52.52,9.51-57.48,13.39-3.28,11.82,21.11,11.82,21.11,0,0,17.56-58.76,38.96-53.1l-69.83,202.42c-3.12-12.64-29.54-97.19-10.97-112.04h0Z"/>
          </g>
          <path class="st10" d="M254.82,889.51s72.29-.08,87.21-12.61c14.92-12.53-3.38-13.51-3.38-13.51,0,0,34.55-18.34,34.04-30.57-.5-12.23-12.22-9.77-12.22-9.77,0,0,23.88-21.39,18.97-31.76-7.53-15.94-41.68,14.29-41.68,14.29,0,0,2.61-12.12-7.98-14.65-15.98-3.82-32.18,41.6-32.18,41.6,0,0,7.64-20.46-3.33-18.18-19.69,4.08-39.45,75.16-39.45,75.16h0Z"/>
          <g>
            <path class="st8" d="M251.81,893.53s-64.16-54.75-71.99-76.81c-7.82-22.06,10.98-18.42,10.98-18.42,0,0-24.65-40.13-16.65-52.36,8-12.23,21.94,4.93,21.94,4.93,0,0-9.26-52.75,1.86-54.94,20.7-4.09,33.85,52.89,33.85,52.89,0,0-.02-23.31,12.53-19.37,18.92,5.94,5.57,55.26,5.57,55.26,0,0,6.98-18.44,16.99-9.34,17.94,16.33-15.05,118.16-15.05,118.16h0Z"/>
            <path class="st10" d="M273.02,764.71c-11.69-6.8-18.78,5.52-18.78,5.52,0,0,9-34.84-9.92-40.77-12.54-3.94-12.53,19.37-12.53,19.37,0,0-13.15-56.97-33.85-52.89l52.19,208.63c3.74-11.84,44.01-127.58,22.88-139.86h0Z"/>
          </g>
          <path class="st10" d="M245.35,885.68s-70.48.02-80.29-1.12c-9.8-1.14,1.03-9.89,1.03-9.89,0,0-21.93.8-25.28-4.53s5.62-7.43,5.62-7.43c0,0-21.84-6.33-20.8-10.97,1.94-8.65,26.06-3.01,26.06-3.01,0,0-8.96-4.35-5.31-8.39,5.49-6.1,28.94,10.48,28.94,10.48,0,0-8.05-15.34-3.61-18.77,18.6-14.36,73.64,53.63,73.64,53.63h0Z"/>
          <path class="st0" d="M194.47,965.01h117.31c14.94-13.65,24.04-32.44,23.71-53.06-.17-10.41-2.31-19.49-6.78-28.4l-151.25,1.7c-4.18,9.05-6.42,19-6.26,29.41.32,19.64,9.14,37.35,23.26,50.34h0Z"/>
        </g>
      </g>
    </g>
  </g>
</svg>