<?xml version="1.0" encoding="UTF-8"?>
<svg id="Layer_1" xmlns="http://www.w3.org/2000/svg" version="1.1" xmlns:xlink="http://www.w3.org/1999/xlink" viewBox="0 0 1080 400">
  <!-- Generator: Adobe Illustrator 30.0.0, SVG Export Plug-In . SVG Version: 2.1.1 Build 123)  -->
  <defs>
    <style>
      .st0 {
        fill: url(#Untitled_Gradient_100);
      }

      .st1 {
        fill: #fff;
      }

      .st2 {
        fill: url(#Untitled_Gradient_1001);
      }
    </style>
    <linearGradient id="Untitled_Gradient_100" data-name="Untitled Gradient 100" x1="545.45" y1="-566.95" x2="1167.91" y2="-566.95" gradientTransform="translate(250.97 1194.42) rotate(-35)" gradientUnits="userSpaceOnUse">
      <stop offset="0" stop-color="#2da232"/>
      <stop offset="1" stop-color="#87fc8c"/>
    </linearGradient>
    <linearGradient id="Untitled_Gradient_1001" data-name="Untitled Gradient 100" x1="525.27" y1="-1226.4" x2="789.02" y2="-1226.4" gradientTransform="translate(381.54 1623.04) rotate(-35)" xlink:href="#Untitled_Gradient_100"/>
  </defs>
  <g>
    <path class="st0" d="M995.46,241.49c0,41.55-34,78.27-75.56,78.27-157.22,0-314.43,0-471.65,0-47.94,0-95.88,0-143.82,0v-156.54c48.25,0,96.5,0,144.75,0,156.9,0,313.81,0,470.71,0,43.92,9.59,75.56,43.02,75.56,78.27Z"/>
    <g>
      <path class="st2" d="M84.54,241.43c0,72.83,59.05,131.87,131.88,131.87s131.87-59.04,131.87-131.87-59.05-131.87-131.87-131.87-131.88,59.04-131.88,131.87Z"/>
      <path class="st1" d="M217.6,158.97h-.04c-44.85,0-81.33,36.78-81.33,81.62,0,17.8,5.73,34.42,15.49,47.82l-10.14,30.3,31.27-9.95c12.87,8.51,28.21,13.46,44.76,13.46,44.85,0,81.34-36.81,81.34-81.63s-36.48-81.62-81.34-81.62ZM264.94,274.44c-1.96,5.53-9.74,10.14-15.97,11.48-4.25.89-9.8,1.62-28.5-6.13-23.91-9.89-39.3-34.17-40.49-35.74-1.16-1.57-9.67-12.86-9.67-24.52s5.93-17.35,8.32-19.8c1.96-2,5.2-2.91,8.31-2.91,1.01,0,1.91.05,2.73.09,2.39.09,3.58.25,5.16,4.01,1.96,4.72,6.74,16.38,7.31,17.59.58,1.2,1.15,2.83.34,4.4-.76,1.62-1.43,2.34-2.63,3.73-1.21,1.38-2.34,2.43-3.55,3.92-1.09,1.29-2.34,2.67-.95,5.06,1.37,2.34,6.16,10.13,13.19,16.39,9.09,8.09,16.45,10.67,19.08,11.77,1.96.81,4.31.61,5.73-.92,1.83-1.96,4.07-5.2,6.36-8.41,1.64-2.29,3.69-2.58,5.84-1.77,2.2.76,13.82,6.51,16.21,7.71,2.39,1.19,3.97,1.75,4.55,2.76.57,1.01.57,5.74-1.4,11.28Z"/>
    </g>
  </g>
  <g>
    <rect class="st1" x="393.29" y="268.55" width="8.56" height="7.5"/>
    <path class="st1" d="M407.78,254.23h-12.37c-1.42,0-2.7-.11-3.86-.32-1.15-.21-2.14-.58-2.97-1.12-.82-.53-1.46-1.28-1.9-2.23-.45-.95-.67-2.2-.67-3.72,0-.84.06-1.74.17-2.69.11-.95.25-1.87.4-2.75.15-.88.27-1.6.37-2.18l-8.26-1.89c-.07.38-.17.93-.3,1.63-.13.71-.26,1.51-.4,2.41-.13.9-.25,1.83-.35,2.81s-.15,1.92-.15,2.83c0,3.36.67,6.19,2,8.5,1.34,2.31,3.31,4.07,5.91,5.27,2.6,1.2,5.75,1.8,9.45,1.8h21.42v-28.8h-8.51v20.44Z"/>
    <rect class="st1" x="521.65" y="220.9" width="8.06" height="7.5"/>
    <path class="st1" d="M516.16,254.23h-14.69v-7.27c0-.88-.08-2.08-.25-3.61-.17-1.53-.36-3.16-.59-4.9-.23-1.74-.46-3.29-.69-4.67l-8.36,1.37c.26,1.68.5,3.31.72,4.9.21,1.58.38,2.99.49,4.21.12,1.22.17,2.12.17,2.69v7.27h-4.85c-.59,0-1.18-.14-1.76-.43-.3-.15-.6-.34-.89-.55.44-1.98.67-4.28.67-6.92v-9.51h-8.51v9.51c0,2.29-.11,4.01-.32,5.15-.21,1.15-.59,1.89-1.11,2.23-.53.34-1.3.52-2.32.52h-2.97v-14.55h-8.51v14.55h-5.44s0,0,0,0c0,0,0,0,0,0h-20.53v-31.73h-8.46v40.09h28.98s0,0,0,0,0,0,0,0h16.92c2.8,0,5.1-.57,6.9-1.72.24-.15.47-.32.69-.49.67.48,1.38.88,2.12,1.21,1.5.67,3.01,1,4.53,1h36.55v-28.8h-8.51v20.44Z"/>
    <rect class="st1" x="511.11" y="220.9" width="8.11" height="7.5"/>
    <rect class="st1" x="537.28" y="222.51" width="8.46" height="40.09"/>
    <path class="st1" d="M592.43,254.23h-10.49v-20.44h-11.82c-2.77,0-5.14.56-7.1,1.69-1.96,1.13-3.46,2.78-4.48,4.95-1.02,2.18-1.53,4.85-1.53,8.02s.51,5.8,1.53,7.9c1.02,2.1,2.51,3.67,4.48,4.7,1.96,1.03,4.33,1.55,7.1,1.55h3.31v1.78c0,1.76-.46,3.05-1.38,3.89-.92.84-2.44,1.26-4.55,1.26-.76,0-1.71-.05-2.84-.14-1.14-.1-2.52-.26-4.13-.49l-1.24,7.85c1.48.34,2.9.62,4.25.83,1.35.21,2.67.32,3.96.32,2.9,0,5.43-.54,7.59-1.63,2.16-1.09,3.84-2.65,5.04-4.7,1.2-2.04,1.81-4.44,1.81-7.19v-1.78h18.99v-40.09h-8.51v31.73ZM570.12,254.23c-1.06,0-1.92-.12-2.6-.34-.68-.23-1.18-.75-1.51-1.58-.33-.82-.5-2.11-.5-3.87,0-1.87.19-3.25.57-4.15s.92-1.48,1.61-1.75c.69-.27,1.5-.4,2.42-.4h3.31v12.08h-3.31Z"/>
    <rect class="st1" x="613.5" y="222.51" width="8.46" height="40.09"/>
    <path class="st1" d="M688.14,254.23h-10.29c-.69,0-1.28-.04-1.76-.12-.48-.08-.92-.24-1.34-.49-.41-.25-.9-.58-1.46-1l-4.85,6.93c1.35,1.07,2.81,1.84,4.38,2.32,1.57.48,3.24.72,5.02.72h1.67c-.03,1.86-.45,3.3-1.28,4.29s-2.26,1.55-4.2,1.55h-14c-1.55,0-2.89-.28-4.03-.83-1.14-.55-2.01-1.33-2.62-2.32-.61-.99-.92-2.1-.92-3.32,0-.72.09-1.94.27-3.64.18-1.7.44-3.69.77-5.98l-8.41-1.32c-.23,1.68-.43,3.23-.59,4.64s-.3,2.66-.4,3.75c-.1,1.09-.15,1.98-.15,2.66,0,2.1.41,4.04,1.24,5.81s1.96,3.33,3.41,4.67c1.45,1.34,3.15,2.38,5.09,3.12,1.95.75,4.06,1.12,6.33,1.12h14c2.84,0,5.29-.62,7.37-1.86,2.08-1.24,3.7-2.94,4.87-5.1,1.14-2.1,1.71-4.52,1.74-7.24h8.62v-40.09h-8.51v31.73Z"/>
    <rect class="st1" x="709.21" y="222.51" width="8.46" height="40.09"/>
    <path class="st1" d="M766.74,262.42c0,1.07-.18,2.06-.54,2.98-.36.92-1.01,1.65-1.93,2.21-.92.55-2.23.83-3.91.83-1.55,0-2.86-.27-3.93-.8-1.07-.54-1.87-1.28-2.4-2.23s-.79-2.1-.79-3.44c0-.69.07-1.73.2-3.12.13-1.39.31-3.11.54-5.15.23-2.04.53-4.32.89-6.84l-8.41-1.26c-.2,1.53-.4,3.1-.62,4.72-.21,1.62-.4,3.18-.57,4.67s-.3,2.84-.4,4.07c-.1,1.22-.15,2.23-.15,3.04,0,2.79.67,5.3,2,7.53,1.34,2.23,3.19,3.99,5.57,5.27,2.37,1.28,5.06,1.92,8.06,1.92s5.47-.6,7.72-1.8c2.24-1.2,4-2.88,5.27-5.04,1.27-2.16,1.9-4.67,1.9-7.53v-39.91h-8.51v39.91Z"/>
    <rect class="st1" x="825.01" y="220.9" width="8.11" height="7.5"/>
    <rect class="st1" x="835.54" y="220.9" width="8.06" height="7.5"/>
    <rect class="st1" x="855.08" y="220.9" width="8.11" height="7.5"/>
    <rect class="st1" x="865.62" y="220.9" width="8.06" height="7.5"/>
    <rect class="st1" x="880.46" y="220.9" width="8.56" height="7.5"/>
    <path class="st1" d="M880.46,254.23h-11.82v-20.44h-8.51v20.44h-14.69v-20.44h-11.82c-2.77,0-5.14.56-7.1,1.69-1.96,1.13-3.46,2.77-4.48,4.92-1.02,2.16-1.53,4.76-1.53,7.82,0,2.31.26,4.31.76,6.01h-25.05v-31.73h-8.46v40.09h101.25v-28.8h-8.56v20.44ZM830.89,253.83c-.66-.27-1.14-.82-1.43-1.66s-.45-2.16-.45-3.95c0-1.56.15-2.79.45-3.67.3-.88.77-1.5,1.43-1.86.66-.36,1.57-.54,2.72-.54h3.31v12.08h-3.31c-1.15,0-2.06-.13-2.72-.4Z"/>
    <polygon class="st1" points="916.22 254.23 909 254.23 909 230.47 900.49 230.47 900.49 254.23 894.31 254.23 894.31 262.59 924.73 262.59 924.73 222.51 916.22 222.51 916.22 254.23"/>
    <rect class="st1" x="937.39" y="222.51" width="8.46" height="40.09"/>
  </g>
</svg>