<?xml version="1.0" encoding="UTF-8"?>
<svg id="Layer_1" xmlns="http://www.w3.org/2000/svg" version="1.1" viewBox="0 0 1080 400">
  <!-- Generator: Adobe Illustrator 30.0.0, SVG Export Plug-In . SVG Version: 2.1.1 Build 123)  -->
  <defs>
    <style>
      .st0 {
        fill: #fff;
      }

      .st1 {
        fill: #e0bc27;
      }

      .st2 {
        fill: #d8d8d8;
      }

      .st3 {
        opacity: .2;
      }

      .st4 {
        opacity: .5;
      }
    </style>
  </defs>
  <rect class="st3" x="-.39" y="15.72" width="1080.39" height="284.02"/>
  <g class="st4">
    <path class="st0" d="M-.39,302.55h1080.39v-5.6H-.39v5.6ZM-.39,12.92v5.6h1080.39v-5.6H-.39Z"/>
  </g>
  <g>
    <path class="st2" d="M361.52,107.78c-3.16,0-5.77-.5-7.81-1.51-2.05-1-3.56-2.53-4.55-4.57-.99-2.05-1.48-4.63-1.48-7.76s.49-5.74,1.48-7.84c.99-2.1,2.5-3.68,4.55-4.74,2.04-1.06,4.65-1.59,7.81-1.59h12.61v24.49h-7.48v-19.64l1.84,1.62h-6.97c-1.53,0-2.75.18-3.68.53-.93.35-1.61,1.08-2.04,2.18-.43,1.1-.64,2.76-.64,4.99s.2,3.71.59,4.77c.39,1.06,1.05,1.76,1.98,2.09.93.33,2.19.5,3.79.5h18.47v6.47h-18.47ZM379.99,107.78v-6.47c.22,0,.4.07.53.22.13.15.24.37.33.67.09.3.16.64.2,1.03.04.39.06.83.06,1.31s-.02.93-.06,1.34c-.04.41-.1.75-.2,1.03-.09.28-.2.49-.33.64-.13.15-.31.22-.53.22Z"/>
    <path class="st2" d="M379.99,107.78c-.22,0-.4-.07-.53-.22-.13-.15-.24-.36-.33-.64-.09-.28-.16-.62-.2-1.03-.04-.41-.06-.86-.06-1.34,0-.67.04-1.24.11-1.7.08-.46.2-.84.36-1.12.17-.28.38-.42.64-.42v6.47ZM379.99,107.78v-6.47h13.95v6.47h-13.95ZM393.93,107.78v-6.47c.22,0,.4.07.53.22.13.15.24.37.33.67.09.3.16.64.2,1.03.04.39.06.83.06,1.31s-.02.93-.06,1.34c-.04.41-.1.75-.2,1.03-.09.28-.21.49-.33.64-.13.15-.31.22-.53.22Z"/>
    <path class="st2" d="M393.93,107.78c-.22,0-.4-.07-.53-.22-.13-.15-.24-.36-.33-.64-.09-.28-.16-.62-.2-1.03-.04-.41-.06-.86-.06-1.34,0-.67.04-1.24.11-1.7.08-.46.2-.84.36-1.12.17-.28.38-.42.64-.42v6.47ZM393.93,107.78v-6.47h13.95v6.47h-13.95ZM407.88,107.78v-6.47c.22,0,.4.07.53.22.13.15.24.37.33.67.09.3.16.64.2,1.03.04.39.06.83.06,1.31s-.02.93-.06,1.34c-.04.41-.1.75-.2,1.03-.09.28-.21.49-.33.64-.13.15-.31.22-.53.22Z"/>
    <path class="st2" d="M407.88,107.78c-.22,0-.4-.07-.53-.22-.13-.15-.24-.36-.33-.64-.09-.28-.16-.62-.2-1.03-.04-.41-.06-.86-.06-1.34,0-.67.04-1.24.11-1.7.08-.46.2-.84.36-1.12.17-.28.38-.42.64-.42v6.47ZM407.88,107.78v-6.47h8.15l-1.67,1.73v-17.57h7.48v22.32h-13.95ZM421.83,107.78v-6.47h4.52c1.19,0,2.1-.18,2.73-.53.63-.35,1.07-1.08,1.31-2.18.24-1.1.36-2.74.36-4.94v-10.99h7.48v10.99c0,3.31-.42,6.01-1.26,8.09-.84,2.08-2.13,3.61-3.88,4.58-1.75.97-4,1.45-6.75,1.45h-4.52ZM440.69,107.78c-1.53,0-3.04-.29-4.55-.86-1.51-.58-2.89-1.44-4.16-2.59l4.57-4.74c.74.6,1.44,1.03,2.09,1.31.65.28,1.33.42,2.04.42h10.43l-3.85,3.51v-12.39c0-.59-.07-1.5-.2-2.71-.13-1.21-.32-2.58-.56-4.13-.24-1.54-.53-3.11-.86-4.71l7.36-1.12c.26,1.34.51,2.84.75,4.49.24,1.66.45,3.22.64,4.69.19,1.47.28,2.63.28,3.49v15.34h-14ZM454.69,107.78v-6.47h5.91v6.47h-5.91ZM460.61,107.78v-6.47c.19,0,.35.07.5.22.15.15.26.37.33.67.07.3.14.64.2,1.03s.08.83.08,1.31-.03.93-.08,1.34c-.06.41-.12.75-.2,1.03-.08.28-.19.49-.33.64s-.32.22-.5.22Z"/>
    <path class="st2" d="M460.61,107.78c-.22,0-.4-.07-.53-.22-.13-.15-.24-.36-.33-.64-.09-.28-.16-.62-.2-1.03-.04-.41-.06-.86-.06-1.34,0-.67.04-1.24.11-1.7.08-.46.2-.84.36-1.12.17-.28.38-.42.64-.42v6.47ZM460.61,107.78v-6.47h38.72l-5.19,4.18v-9.54c0-3.2-.42-5.77-1.26-7.7-.84-1.93-2.16-3.34-3.96-4.21-1.8-.87-4.14-1.31-7-1.31-1.38,0-2.88.05-4.52.14-1.64.09-3.26.21-4.88.33-1.62.13-3.08.27-4.38.42l-.78-5.02c1.26-.33,2.73-.69,4.41-1.06,1.67-.37,3.43-.69,5.27-.95,1.84-.26,3.64-.39,5.38-.39,2.42,0,4.77.33,7.06.98,2.29.65,4.34,1.73,6.16,3.24,1.82,1.51,3.27,3.52,4.35,6.05,1.08,2.53,1.62,5.69,1.62,9.48v11.83h-41.01ZM466.35,101.31v-2.79c0-1.79.45-3.45,1.37-4.99.91-1.54,2.17-2.77,3.77-3.68,1.6-.91,3.38-1.37,5.36-1.37s3.74.46,5.3,1.37c1.56.91,2.8,2.13,3.71,3.65.91,1.53,1.37,3.2,1.37,5.02v2.79h-5.91v-2.79c0-.93-.2-1.76-.61-2.48-.41-.73-.95-1.31-1.62-1.76-.67-.45-1.41-.67-2.23-.67s-1.57.22-2.26.67c-.69.45-1.24,1.03-1.65,1.76-.41.73-.61,1.55-.61,2.48v2.79h-5.97Z"/>
    <path class="st2" d="M543.63,107.78v-39.45h7.42v39.45h-7.42ZM551.05,107.78v-6.47h6.36v6.47h-6.36ZM557.41,107.78v-6.47c.22,0,.4.07.53.22.13.15.24.37.33.67.09.3.16.64.2,1.03.04.39.06.83.06,1.31s-.02.93-.06,1.34c-.04.41-.1.75-.2,1.03-.09.28-.2.49-.33.64-.13.15-.31.22-.53.22Z"/>
    <path class="st2" d="M557.41,107.78c-.22,0-.4-.07-.53-.22-.13-.15-.24-.36-.33-.64-.09-.28-.16-.62-.2-1.03-.04-.41-.06-.86-.06-1.34,0-.67.04-1.24.11-1.7.08-.46.2-.84.36-1.12.17-.28.38-.42.64-.42v6.47ZM557.41,107.78v-6.47h13.95v6.47h-13.95ZM571.36,107.78v-6.47c.22,0,.4.07.53.22.13.15.24.37.33.67.09.3.16.64.2,1.03.04.39.06.83.06,1.31s-.02.93-.06,1.34c-.04.41-.1.75-.2,1.03-.09.28-.2.49-.33.64-.13.15-.31.22-.53.22Z"/>
    <path class="st2" d="M571.36,107.78c-.22,0-.4-.07-.53-.22-.13-.15-.24-.36-.33-.64-.09-.28-.16-.62-.2-1.03-.04-.41-.06-.86-.06-1.34,0-.67.04-1.24.11-1.7.08-.46.2-.84.36-1.12.17-.28.38-.42.64-.42v6.47ZM571.36,107.78v-6.47h13.95v6.47h-13.95ZM585.31,107.78v-6.47c.22,0,.4.07.53.22.13.15.24.37.33.67.09.3.16.64.2,1.03.04.39.06.83.06,1.31s-.02.93-.06,1.34c-.04.41-.1.75-.2,1.03-.09.28-.2.49-.33.64-.13.15-.31.22-.53.22Z"/>
    <path class="st2" d="M585.31,107.78c-.22,0-.4-.07-.53-.22-.13-.15-.24-.36-.33-.64-.09-.28-.16-.62-.2-1.03-.04-.41-.06-.86-.06-1.34,0-.67.04-1.24.11-1.7.08-.46.2-.84.36-1.12.17-.28.38-.42.64-.42v6.47ZM585.31,107.78v-6.47h29.07l-4.07,3.96v-11.27c0-1.97-.22-3.52-.67-4.63-.45-1.12-1.21-1.92-2.29-2.4-1.08-.48-2.57-.73-4.46-.73-1.6,0-3.13.1-4.6.31-1.47.2-2.63.47-3.49.81l4.63-4.35c-.22.86-.43,1.92-.61,3.21-.19,1.28-.35,2.67-.5,4.16-.15,1.49-.22,2.92-.22,4.3s.07,2.7.2,4.07c.13,1.38.29,2.6.47,3.68.19,1.08.32,1.82.39,2.23l-7.09,1.95c-.15-.52-.34-1.38-.59-2.59-.24-1.21-.44-2.61-.59-4.21-.15-1.6-.22-3.31-.22-5.13s.08-3.6.25-5.33c.17-1.73.39-3.29.67-4.69.28-1.4.51-2.52.7-3.38.85-.33,2.24-.67,4.16-1,1.92-.33,4.03-.5,6.33-.5,3.35,0,6.13.47,8.34,1.39,2.21.93,3.87,2.43,4.97,4.49,1.1,2.06,1.65,4.86,1.65,8.4v13.72h-32.42ZM602.77,122.57c-2.31,0-4.42-.13-6.33-.39-1.92-.26-3.3-.5-4.16-.73-.19-.67-.42-1.53-.7-2.57-.28-1.04-.5-2.22-.67-3.54-.17-1.32-.25-2.67-.25-4.04s.07-2.67.22-3.88c.15-1.21.34-2.26.59-3.15.24-.89.44-1.54.59-1.95l6.92,2.34c-.11.26-.23.78-.36,1.56-.13.78-.25,1.65-.36,2.59-.11.95-.17,1.79-.17,2.54,0,.85.06,1.79.17,2.79.11,1,.27,1.97.47,2.9.2.93.42,1.71.64,2.34l-4.8-4.18c.82.26,2,.47,3.54.64,1.54.17,3.13.25,4.77.25,1.97,0,3.5-.14,4.57-.42s1.82-.76,2.23-1.45c.41-.69.61-1.61.61-2.76v-10.15h7.42v10.43c0,2.64-.55,4.75-1.65,6.33-1.1,1.58-2.75,2.72-4.97,3.43-2.21.71-4.99,1.06-8.34,1.06ZM617.72,107.78v-6.47h5.86v6.47h-5.86ZM623.58,107.78v-6.47c.22,0,.41.07.56.22.15.15.26.37.33.67.07.3.13.64.17,1.03.04.39.06.83.06,1.31s-.02.93-.06,1.34c-.04.41-.09.75-.17,1.03-.08.28-.19.49-.33.64-.15.15-.33.22-.56.22Z"/>
    <path class="st2" d="M623.58,107.78c-.22,0-.4-.07-.53-.22-.13-.15-.24-.36-.33-.64-.09-.28-.16-.62-.2-1.03-.04-.41-.06-.86-.06-1.34,0-.67.04-1.24.11-1.7.08-.46.2-.84.36-1.12.17-.28.38-.42.64-.42v6.47ZM623.58,107.78v-6.47h10.21l-4.35,3.63v-25.16h7.48v28.01h-13.33ZM629.44,119.67v-6.36h7.48v6.36h-7.48ZM636.91,107.78v-6.47h5.86v6.47h-5.86ZM642.77,107.78v-6.47c.22,0,.41.07.56.22.15.15.26.37.33.67.07.3.13.64.17,1.03.04.39.06.83.06,1.31s-.02.93-.06,1.34c-.04.41-.09.75-.17,1.03-.08.28-.19.49-.33.64-.15.15-.33.22-.56.22Z"/>
    <path class="st2" d="M642.77,107.78c-.22,0-.4-.07-.53-.22-.13-.15-.24-.36-.33-.64-.09-.28-.16-.62-.2-1.03-.04-.41-.06-.86-.06-1.34,0-.67.04-1.24.11-1.7.08-.46.2-.84.36-1.12.17-.28.38-.42.64-.42v6.47ZM642.77,107.78v-6.47h6.3v6.47h-6.3ZM649.08,107.78v-39.45h7.48v39.45h-7.48ZM656.55,107.78v-6.47h5.86v6.47h-5.86ZM662.41,107.78v-6.47c.22,0,.41.07.56.22.15.15.26.37.33.67.07.3.13.64.17,1.03.04.39.06.83.06,1.31s-.02.93-.06,1.34c-.04.41-.09.75-.17,1.03-.08.28-.19.49-.33.64-.15.15-.33.22-.56.22Z"/>
    <path class="st2" d="M662.41,107.78c-.22,0-.4-.07-.53-.22-.13-.15-.24-.36-.33-.64-.09-.28-.16-.62-.2-1.03-.04-.41-.06-.86-.06-1.34,0-.67.04-1.24.11-1.7.08-.46.2-.84.36-1.12.17-.28.38-.42.64-.42v6.47ZM662.41,107.78v-6.47h38.94l-6.3,5.47v-11.72c0-2.12-.28-3.82-.84-5.11-.56-1.28-1.37-2.22-2.43-2.82-1.06-.59-2.33-.89-3.82-.89-1.6,0-3.11.32-4.52.95-1.41.63-2.74,1.45-3.99,2.45-1.25,1-2.39,2.08-3.43,3.24-1.04,1.15-1.97,2.26-2.79,3.32-.82,1.06-1.53,1.96-2.12,2.71l-1.67-5.41c1.52-1.93,2.95-3.74,4.27-5.41,1.32-1.67,2.71-3.13,4.16-4.38,1.45-1.25,3.05-2.21,4.8-2.9,1.75-.69,3.77-1.03,6.08-1.03,2.49,0,4.6.42,6.33,1.26,1.73.84,3.15,1.98,4.27,3.43,1.12,1.45,1.92,3.09,2.4,4.91.48,1.82.73,3.72.73,5.69v12.72h-40.06ZM666.26,101.31v-32.97h7.42v32.97h-7.42Z"/>
    <path class="st2" d="M720.99,107.78v-39.45h7.42v39.45h-7.42Z"/>
    <path class="st1" d="M106.49,174.7v-2.51h12.39v2.51h-12.39ZM106.49,180.28v-2.51h12.39v2.51h-12.39Z"/>
    <path class="st1" d="M108.94,223.8v-39.45h7.42v39.45h-7.42ZM116.36,223.8v-6.47h6.36v6.47h-6.36ZM122.72,223.8v-6.47c.22,0,.4.08.53.22.13.15.24.37.33.67.09.3.16.64.2,1.03.04.39.06.83.06,1.31s-.02.93-.06,1.34c-.04.41-.1.75-.2,1.03-.09.28-.21.49-.33.64-.13.15-.31.22-.53.22Z"/>
    <path class="st1" d="M122.72,223.8c-.22,0-.4-.07-.53-.22-.13-.15-.24-.36-.33-.64-.09-.28-.16-.62-.2-1.03-.04-.41-.06-.85-.06-1.34,0-.67.04-1.24.11-1.7.08-.47.2-.84.36-1.12s.38-.42.64-.42v6.47ZM122.72,223.8v-6.47h13.95v6.47h-13.95ZM136.67,223.8v-6.47c.22,0,.4.08.53.22.13.15.24.37.33.67.09.3.16.64.2,1.03.04.39.06.83.06,1.31s-.02.93-.06,1.34c-.04.41-.1.75-.2,1.03-.09.28-.21.49-.33.64-.13.15-.31.22-.53.22Z"/>
    <path class="st1" d="M136.67,223.8c-.22,0-.4-.07-.53-.22-.13-.15-.24-.36-.33-.64-.09-.28-.16-.62-.2-1.03-.04-.41-.06-.85-.06-1.34,0-.67.04-1.24.11-1.7.08-.47.2-.84.36-1.12s.38-.42.64-.42v6.47ZM136.67,223.8v-6.47h13.95v6.47h-13.95ZM150.62,223.8v-6.47c.22,0,.4.08.53.22.13.15.24.37.33.67.09.3.16.64.2,1.03.04.39.06.83.06,1.31s-.02.93-.06,1.34c-.04.41-.1.75-.2,1.03-.09.28-.21.49-.33.64-.13.15-.31.22-.53.22Z"/>
    <path class="st1" d="M150.62,223.8c-.22,0-.4-.07-.53-.22-.13-.15-.24-.36-.33-.64-.09-.28-.16-.62-.2-1.03-.04-.41-.06-.85-.06-1.34,0-.67.04-1.24.11-1.7.08-.47.2-.84.36-1.12s.38-.42.64-.42v6.47ZM150.62,223.8v-6.47h10.21l-4.35,3.63v-25.16h7.48v28.01h-13.33ZM156.48,190.66v-6.36h7.48v6.36h-7.48Z"/>
    <path class="st1" d="M182.65,223.8v-39.45h7.42v39.45h-7.42ZM190.07,223.8v-6.47h6.36v6.47h-6.36ZM196.43,223.8v-6.47c.22,0,.4.08.53.22.13.15.24.37.33.67.09.3.16.64.2,1.03.04.39.06.83.06,1.31s-.02.93-.06,1.34c-.04.41-.1.75-.2,1.03-.09.28-.21.49-.33.64-.13.15-.31.22-.53.22Z"/>
    <path class="st1" d="M196.43,223.8c-.22,0-.4-.07-.53-.22-.13-.15-.24-.36-.33-.64-.09-.28-.16-.62-.2-1.03-.04-.41-.06-.85-.06-1.34,0-.67.04-1.24.11-1.7.08-.47.2-.84.36-1.12s.38-.42.64-.42v6.47ZM196.43,223.8v-6.47h23.99l-2.51,2.06v-10.32c0-2.23-.7-3.92-2.09-5.08-1.39-1.15-3.6-1.73-6.61-1.73-.86,0-2.03.07-3.52.2-1.49.13-3.11.33-4.85.59l-.73-5.91c1.6-.37,3.23-.69,4.88-.95,1.65-.26,3.28-.39,4.88-.39,3.05,0,5.73.53,8.03,1.59,2.31,1.06,4.12,2.58,5.44,4.55,1.32,1.97,1.98,4.35,1.98,7.14v14.73h-28.9ZM207.2,235.68v-6.36h7.48v6.36h-7.48ZM225.33,223.8v-6.47h5.91v6.47h-5.91ZM231.24,223.8v-6.47c.19,0,.35.08.5.22.15.15.26.37.33.67.07.3.14.64.2,1.03s.08.83.08,1.31-.03.93-.08,1.34c-.06.41-.12.75-.2,1.03-.07.28-.19.49-.33.64-.15.15-.32.22-.5.22Z"/>
    <path class="st1" d="M231.24,223.8c-.22,0-.4-.07-.53-.22-.13-.15-.24-.36-.33-.64-.09-.28-.16-.62-.2-1.03-.04-.41-.06-.85-.06-1.34,0-.67.04-1.24.11-1.7.08-.47.2-.84.36-1.12s.38-.42.64-.42v6.47ZM231.24,223.8v-6.47h28.96l-3.4,2.9v-10.27c0-2.01-.22-3.58-.67-4.71-.45-1.13-1.22-1.93-2.32-2.4-1.1-.46-2.61-.7-4.55-.7-1.53,0-3.02.1-4.49.31-1.47.21-2.61.47-3.43.81l4.63-4.35c-.22.86-.44,1.93-.64,3.24-.2,1.3-.38,2.69-.53,4.16-.15,1.47-.22,2.91-.22,4.32,0,1.3.06,2.66.2,4.07.13,1.41.28,2.66.45,3.74.17,1.08.31,1.82.42,2.23l-7.09,1.95c-.15-.52-.33-1.38-.56-2.57s-.42-2.6-.59-4.24c-.17-1.64-.25-3.37-.25-5.19s.09-3.66.28-5.38c.19-1.73.4-3.29.64-4.69.24-1.4.47-2.52.7-3.38.89-.33,2.29-.67,4.18-1s4-.5,6.3-.5c3.35,0,6.13.47,8.34,1.4,2.21.93,3.87,2.44,4.97,4.52,1.1,2.08,1.65,4.89,1.65,8.42v13.78h-32.97Z"/>
    <path class="st2" d="M307.44,242.32c-.33-2.01-.64-3.96-.92-5.86-.28-1.9-.42-3.57-.42-5.02,0-2.9.56-5.4,1.67-7.5,1.12-2.1,2.7-3.73,4.74-4.88,2.05-1.15,4.46-1.73,7.25-1.73h13.28l-3.4,3.24v-10.55c0-1.93-.21-3.47-.64-4.6-.43-1.13-1.19-1.94-2.29-2.43-1.1-.48-2.69-.73-4.77-.73-1.41,0-2.86.1-4.32.31-1.47.21-2.63.47-3.49.81l4.69-4.35c-.26.89-.49,2.01-.7,3.35-.21,1.34-.36,2.73-.47,4.16-.11,1.43-.17,2.78-.17,4.04,0,1.38.06,2.76.17,4.16s.25,2.63.42,3.71c.17,1.08.31,1.82.42,2.23l-7.09,1.95c-.19-.52-.38-1.38-.59-2.57-.2-1.19-.39-2.59-.56-4.21-.17-1.62-.25-3.34-.25-5.16s.08-3.6.25-5.33c.17-1.73.38-3.29.64-4.69.26-1.4.5-2.52.73-3.38.97-.37,2.4-.72,4.3-1.03s3.94-.47,6.14-.47c2.42,0,4.49.23,6.22.7s3.16,1.13,4.3,1.98c1.13.86,2.04,1.87,2.71,3.04.67,1.17,1.13,2.48,1.39,3.93.26,1.45.39,2.99.39,4.63v13.72h-17.3c-.6,0-1.25.08-1.95.25-.71.17-1.39.5-2.04,1-.65.5-1.18,1.26-1.59,2.29-.41,1.02-.61,2.39-.61,4.1,0,1.34.12,2.9.36,4.69.24,1.79.53,3.85.86,6.19h-7.36ZM337.06,223.8v-6.47h5.91v6.47h-5.91ZM342.98,223.8v-6.47c.19,0,.35.08.5.22.15.15.26.37.33.67.07.3.14.64.2,1.03s.08.83.08,1.31-.03.93-.08,1.34c-.06.41-.12.75-.2,1.03-.07.28-.19.49-.33.64-.15.15-.32.22-.5.22Z"/>
    <path class="st2" d="M342.98,223.8c-.22,0-.4-.07-.53-.22-.13-.15-.24-.36-.33-.64-.09-.28-.16-.62-.2-1.03-.04-.41-.06-.85-.06-1.34,0-.67.04-1.24.11-1.7.08-.47.2-.84.36-1.12s.38-.42.64-.42v6.47ZM342.98,223.8v-6.47h13.95v6.47h-13.95ZM356.93,223.8v-6.47c.22,0,.4.08.53.22.13.15.24.37.33.67.09.3.16.64.2,1.03.04.39.06.83.06,1.31s-.02.93-.06,1.34c-.04.41-.1.75-.2,1.03-.09.28-.21.49-.33.64-.13.15-.31.22-.53.22Z"/>
    <path class="st2" d="M356.93,223.8c-.22,0-.4-.07-.53-.22-.13-.15-.24-.36-.33-.64-.09-.28-.16-.62-.2-1.03-.04-.41-.06-.85-.06-1.34,0-.67.04-1.24.11-1.7.08-.47.2-.84.36-1.12s.38-.42.64-.42v6.47ZM356.93,223.8v-6.47h13.95v6.47h-13.95ZM370.87,223.8v-6.47c.22,0,.4.08.53.22.13.15.24.37.33.67.09.3.16.64.2,1.03.04.39.06.83.06,1.31s-.02.93-.06,1.34c-.04.41-.1.75-.2,1.03-.09.28-.21.49-.33.64-.13.15-.31.22-.53.22Z"/>
    <path class="st2" d="M370.87,223.8c-.22,0-.4-.07-.53-.22-.13-.15-.24-.36-.33-.64-.09-.28-.16-.62-.2-1.03-.04-.41-.06-.85-.06-1.34,0-.67.04-1.24.11-1.7.08-.47.2-.84.36-1.12s.38-.42.64-.42v6.47ZM370.87,223.8v-6.47h13.22l-4.35,3.63v-25.16h7.42v28.01h-16.29ZM372.88,235.68v-6.36h7.2v6.36h-7.2ZM383.04,235.68v-6.36h7.2v6.36h-7.2ZM387.16,223.8v-6.47h6.97v6.47h-6.97ZM394.14,223.8v-6.47c.19,0,.35.08.5.22.15.15.26.37.33.67.07.3.14.64.2,1.03s.08.83.08,1.31-.03.93-.08,1.34c-.06.41-.12.75-.2,1.03-.07.28-.18.49-.31.64-.13.15-.31.22-.53.22Z"/>
    <path class="st2" d="M394.14,223.8c-.22,0-.4-.07-.53-.22-.13-.15-.24-.36-.33-.64-.09-.28-.16-.62-.2-1.03-.04-.41-.06-.85-.06-1.34,0-.67.04-1.24.11-1.7.08-.47.2-.84.36-1.12s.38-.42.64-.42v6.47ZM394.14,223.8v-6.47h28.96l-3.4,2.9v-10.27c0-2.01-.22-3.58-.67-4.71-.45-1.13-1.22-1.93-2.32-2.4-1.1-.46-2.61-.7-4.55-.7-1.53,0-3.02.1-4.49.31-1.47.21-2.61.47-3.43.81l4.63-4.35c-.22.86-.44,1.93-.64,3.24-.2,1.3-.38,2.69-.53,4.16-.15,1.47-.22,2.91-.22,4.32,0,1.3.06,2.66.2,4.07.13,1.41.28,2.66.45,3.74.17,1.08.31,1.82.42,2.23l-7.09,1.95c-.15-.52-.33-1.38-.56-2.57s-.42-2.6-.59-4.24c-.17-1.64-.25-3.37-.25-5.19s.09-3.66.28-5.38c.19-1.73.4-3.29.64-4.69.24-1.4.47-2.52.7-3.38.89-.33,2.29-.67,4.18-1s4-.5,6.3-.5c3.35,0,6.13.47,8.34,1.4,2.21.93,3.87,2.44,4.97,4.52,1.1,2.08,1.65,4.89,1.65,8.42v13.78h-32.97ZM427.11,223.8v-6.47h5.91v6.47h-5.91ZM433.03,223.8v-6.47c.19,0,.35.08.5.22.15.15.26.37.33.67.07.3.14.64.19,1.03s.08.83.08,1.31-.03.93-.08,1.34c-.06.41-.12.75-.19,1.03-.08.28-.19.49-.33.64-.15.15-.32.22-.5.22Z"/>
    <path class="st2" d="M433.03,223.8c-.22,0-.4-.07-.53-.22-.13-.15-.24-.36-.33-.64-.09-.28-.16-.62-.2-1.03-.04-.41-.06-.85-.06-1.34,0-.67.04-1.24.11-1.7.08-.47.2-.84.36-1.12s.38-.42.64-.42v6.47ZM433.03,223.8v-6.47h42.18l-6.3,5.47v-11.72c0-2.12-.28-3.82-.84-5.11-.56-1.28-1.37-2.22-2.43-2.82-1.06-.59-2.33-.89-3.82-.89-1.6,0-3.12.32-4.55.95-1.43.63-2.76,1.45-3.99,2.46-1.23,1-2.36,2.08-3.4,3.24-1.04,1.15-1.97,2.26-2.79,3.32-.82,1.06-1.53,1.96-2.12,2.71l-1.67-5.41c1.45-1.75,2.75-3.35,3.91-4.8,1.15-1.45,2.26-2.73,3.32-3.85,1.06-1.12,2.18-2.05,3.35-2.79,1.17-.74,2.45-1.31,3.85-1.7,1.39-.39,3.02-.59,4.88-.59,2.49,0,4.61.42,6.36,1.26,1.75.84,3.17,1.98,4.27,3.43,1.1,1.45,1.9,3.09,2.4,4.91.5,1.82.75,3.72.75,5.69v12.72h-43.35ZM440.06,217.33v-21.54h7.48v21.54h-7.48ZM476.38,223.8v-6.47h5.86v6.47h-5.86ZM482.24,223.8v-6.47c.22,0,.4.08.53.22.13.15.24.37.33.67.09.3.16.64.2,1.03.04.39.06.83.06,1.31s-.02.93-.06,1.34c-.04.41-.1.75-.2,1.03-.09.28-.2.49-.33.64-.13.15-.31.22-.53.22Z"/>
    <path class="st2" d="M482.24,223.8c-.22,0-.4-.07-.53-.22-.13-.15-.24-.36-.33-.64-.09-.28-.16-.62-.2-1.03-.04-.41-.06-.85-.06-1.34,0-.67.04-1.24.11-1.7.08-.47.2-.84.36-1.12s.38-.42.64-.42v6.47ZM482.24,223.8v-6.47h13.22l-4.35,3.63v-25.16h7.42v28.01h-16.29ZM486.2,190.66v-6.36h7.2v6.36h-7.2ZM496.35,190.66v-6.36h7.2v6.36h-7.2ZM498.53,223.8v-6.47h6.97v6.47h-6.97ZM505.5,223.8v-6.47c.19,0,.35.08.5.22.15.15.26.37.33.67.07.3.14.64.2,1.03s.08.83.08,1.31-.03.93-.08,1.34c-.06.41-.12.75-.2,1.03-.07.28-.18.49-.31.64-.13.15-.31.22-.53.22Z"/>
    <path class="st2" d="M505.5,223.8c-.22,0-.4-.07-.53-.22-.13-.15-.24-.36-.33-.64-.09-.28-.16-.62-.2-1.03-.04-.41-.06-.85-.06-1.34,0-.67.04-1.24.11-1.7.08-.47.2-.84.36-1.12s.38-.42.64-.42v6.47ZM505.5,223.8v-6.47h6.3v6.47h-6.3ZM511.81,223.8v-39.45h7.48v39.45h-7.48ZM519.28,223.8v-6.47h5.86v6.47h-5.86ZM525.14,223.8v-6.47c.22,0,.41.08.56.22.15.15.26.37.33.67.07.3.13.64.17,1.03.04.39.06.83.06,1.31s-.02.93-.06,1.34c-.04.41-.09.75-.17,1.03-.07.28-.19.49-.33.64-.15.15-.33.22-.56.22Z"/>
    <path class="st2" d="M525.14,223.8c-.22,0-.4-.07-.53-.22-.13-.15-.24-.36-.33-.64-.09-.28-.16-.62-.2-1.03-.04-.41-.06-.85-.06-1.34,0-.67.04-1.24.11-1.7.08-.47.2-.84.36-1.12s.38-.42.64-.42v6.47ZM525.14,223.8v-6.47h6.3v6.47h-6.3ZM531.45,223.8v-39.45h7.48v39.45h-7.48Z"/>
    <path class="st2" d="M594.64,223.8c-3.16,0-5.77-.5-7.81-1.51-2.05-1-3.56-2.53-4.55-4.57-.99-2.05-1.48-4.63-1.48-7.75s.49-5.74,1.48-7.84c.99-2.1,2.5-3.68,4.55-4.74,2.05-1.06,4.65-1.59,7.81-1.59h12.61v24.49h-7.48v-19.64l1.84,1.62h-6.97c-1.53,0-2.75.18-3.68.53-.93.35-1.61,1.08-2.04,2.18-.43,1.1-.64,2.76-.64,4.99s.2,3.71.59,4.77,1.05,1.76,1.98,2.09c.93.33,2.19.5,3.79.5h18.47v6.47h-18.47ZM586.33,190.66v-6.36h7.2v6.36h-7.2ZM596.48,190.66v-6.36h7.2v6.36h-7.2ZM613.11,223.8v-6.47c.22,0,.4.08.53.22.13.15.24.37.33.67.09.3.16.64.2,1.03.04.39.06.83.06,1.31s-.02.93-.06,1.34c-.04.41-.1.75-.2,1.03-.09.28-.21.49-.33.64-.13.15-.31.22-.53.22Z"/>
    <path class="st2" d="M613.11,223.8c-.22,0-.4-.07-.53-.22-.13-.15-.24-.36-.33-.64-.09-.28-.16-.62-.2-1.03-.04-.41-.06-.85-.06-1.34,0-.67.04-1.24.11-1.7.08-.47.2-.84.36-1.12s.38-.42.64-.42v6.47ZM613.11,223.8v-6.47h13.95v6.47h-13.95ZM627.06,223.8v-6.47c.22,0,.4.08.53.22.13.15.24.37.33.67.09.3.16.64.2,1.03.04.39.06.83.06,1.31s-.02.93-.06,1.34c-.04.41-.1.75-.2,1.03-.09.28-.2.49-.33.64-.13.15-.31.22-.53.22Z"/>
    <path class="st2" d="M627.06,223.8c-.22,0-.4-.07-.53-.22-.13-.15-.24-.36-.33-.64-.09-.28-.16-.62-.2-1.03-.04-.41-.06-.85-.06-1.34,0-.67.04-1.24.11-1.7.08-.47.2-.84.36-1.12s.38-.42.64-.42v6.47ZM627.06,223.8v-6.47h13.95v6.47h-13.95ZM641.01,223.8v-6.47c.22,0,.4.08.53.22.13.15.24.37.33.67.09.3.16.64.2,1.03.04.39.06.83.06,1.31s-.02.93-.06,1.34c-.04.41-.1.75-.2,1.03-.09.28-.2.49-.33.64-.13.15-.31.22-.53.22Z"/>
    <path class="st2" d="M641.01,223.8c-.22,0-.4-.07-.53-.22-.13-.15-.24-.36-.33-.64-.09-.28-.16-.62-.2-1.03-.04-.41-.06-.85-.06-1.34,0-.67.04-1.24.11-1.7.08-.47.2-.84.36-1.12s.38-.42.64-.42v6.47ZM641.01,223.8v-6.47h10.21l-4.35,3.63v-25.16h7.48v28.01h-13.33ZM646.86,190.66v-6.36h7.48v6.36h-7.48ZM654.34,223.8v-6.47h5.86v6.47h-5.86ZM660.2,223.8v-6.47c.22,0,.41.08.56.22.15.15.26.37.33.67.07.3.13.64.17,1.03.04.39.06.83.06,1.31s-.02.93-.06,1.34c-.04.41-.09.75-.17,1.03-.08.28-.19.49-.33.64s-.33.22-.56.22Z"/>
    <path class="st2" d="M660.2,223.8c-.22,0-.4-.07-.53-.22-.13-.15-.24-.36-.33-.64-.09-.28-.16-.62-.2-1.03-.04-.41-.06-.85-.06-1.34,0-.67.04-1.24.11-1.7.08-.47.2-.84.36-1.12s.38-.42.64-.42v6.47ZM660.2,223.8v-6.47h13.22l-4.35,3.63v-25.16h7.42v28.01h-16.29ZM662.21,235.68v-6.36h7.2v6.36h-7.2ZM672.36,235.68v-6.36h7.2v6.36h-7.2ZM676.49,223.8v-6.47h6.97v6.47h-6.97ZM683.46,223.8v-6.47c.19,0,.35.08.5.22.15.15.26.37.33.67.07.3.14.64.2,1.03s.08.83.08,1.31-.03.93-.08,1.34c-.06.41-.12.75-.2,1.03-.08.28-.18.49-.31.64-.13.15-.31.22-.53.22Z"/>
    <path class="st2" d="M683.46,223.8c-.22,0-.4-.07-.53-.22-.13-.15-.24-.36-.33-.64-.09-.28-.16-.62-.2-1.03-.04-.41-.06-.85-.06-1.34,0-.67.04-1.24.11-1.7.08-.47.2-.84.36-1.12s.38-.42.64-.42v6.47ZM683.46,223.8v-6.47h27.78v6.47h-27.78ZM693.95,222.91c-1.9-1.78-3.32-3.68-4.27-5.69-.95-2.01-1.42-4.15-1.42-6.42s.41-4.21,1.23-6.05c.82-1.84,1.93-3.43,3.35-4.77,1.41-1.34,3.06-2.37,4.94-3.1,1.88-.73,3.86-1.09,5.94-1.09,1.12,0,2.29.11,3.51.33s2.4.52,3.51.89l-2.23,6.08c-.78-.26-1.55-.46-2.32-.61-.76-.15-1.5-.22-2.2-.22-1.64,0-3.09.36-4.35,1.09-1.26.73-2.24,1.72-2.93,2.99-.69,1.26-1.03,2.71-1.03,4.35,0,1.49.31,2.88.92,4.18s1.5,2.47,2.65,3.51l-5.3,4.52Z"/>
    <path class="st2" d="M772.83,223.8c-3.98,0-7.34-.52-10.07-1.56-2.73-1.04-4.8-2.58-6.19-4.63-1.4-2.05-2.09-4.59-2.09-7.64,0-.89.06-1.83.17-2.82.11-.99.25-1.93.42-2.85.17-.91.33-1.72.47-2.43.15-.71.26-1.23.33-1.56l7.25,1.4c-.11.6-.26,1.36-.45,2.29-.19.93-.35,1.91-.5,2.93-.15,1.02-.22,2-.22,2.93,0,1.45.23,2.66.7,3.63.46.97,1.16,1.74,2.09,2.32.93.58,2.1.98,3.52,1.2,1.41.22,3.07.33,4.96.33h27.17l-2.23,1.95v-18.63l1.9,1.62h-7.03c-1.67,0-2.97.21-3.88.61-.91.41-1.56,1.16-1.95,2.26-.39,1.1-.59,2.65-.59,4.66,0,2.19.2,3.82.59,4.88s1.04,1.77,1.95,2.12c.91.35,2.2.53,3.88.53v5.8c-3.2,0-5.81-.45-7.84-1.34-2.03-.89-3.53-2.31-4.52-4.27-.99-1.95-1.48-4.53-1.48-7.73s.49-5.62,1.48-7.7c.99-2.08,2.49-3.65,4.52-4.71,2.03-1.06,4.64-1.59,7.84-1.59h12.61v28.01h-32.81ZM790.07,190.66v-6.36h7.48v6.36h-7.48Z"/>
    <path class="st2" d="M833.31,237.64c-1.38,0-2.82-.1-4.32-.31-1.51-.2-3.12-.47-4.83-.81l1.12-5.97c1.86.22,3.44.39,4.74.5,1.3.11,2.4.17,3.29.17,2.68,0,4.61-.48,5.8-1.45,1.19-.97,1.79-2.42,1.79-4.35v-24.49l1.84,1.34h-6.97c-1.53,0-2.75.18-3.68.53-.93.35-1.61,1.08-2.04,2.18-.43,1.1-.64,2.76-.64,4.99s.2,3.71.59,4.77,1.05,1.76,1.98,2.09c.93.33,2.19.5,3.79.5h5.13v6.47h-5.13c-3.16,0-5.77-.5-7.81-1.51-2.05-1-3.56-2.53-4.55-4.57-.99-2.05-1.48-4.63-1.48-7.75s.49-5.74,1.48-7.84c.99-2.1,2.5-3.68,4.55-4.74,2.05-1.06,4.65-1.59,7.81-1.59h12.61v29.63c0,2.53-.62,4.71-1.87,6.56-1.25,1.84-2.99,3.25-5.24,4.21-2.25.97-4.9,1.45-7.95,1.45ZM848.37,223.8v-6.47h5.86v6.47h-5.86ZM854.23,223.8v-6.47c.22,0,.4.08.53.22.13.15.24.37.33.67.09.3.16.64.2,1.03.04.39.06.83.06,1.31s-.02.93-.06,1.34c-.04.41-.1.75-.2,1.03-.09.28-.21.49-.33.64-.13.15-.31.22-.53.22Z"/>
    <path class="st2" d="M854.23,223.8c-.22,0-.4-.07-.53-.22-.13-.15-.24-.36-.33-.64-.09-.28-.16-.62-.2-1.03-.04-.41-.06-.85-.06-1.34,0-.67.04-1.24.11-1.7.08-.47.2-.84.36-1.12s.38-.42.64-.42v6.47ZM854.23,223.8v-6.47h13.95v6.47h-13.95ZM868.18,223.8v-6.47c.22,0,.4.08.53.22.13.15.24.37.33.67.09.3.16.64.2,1.03.04.39.06.83.06,1.31s-.02.93-.06,1.34c-.04.41-.1.75-.2,1.03-.09.28-.2.49-.33.64-.13.15-.31.22-.53.22Z"/>
    <path class="st2" d="M868.18,223.8c-.22,0-.4-.07-.53-.22-.13-.15-.24-.36-.33-.64-.09-.28-.16-.62-.2-1.03-.04-.41-.06-.85-.06-1.34,0-.67.04-1.24.11-1.7.08-.47.2-.84.36-1.12s.38-.42.64-.42v6.47ZM868.18,223.8v-6.47h13.95v6.47h-13.95ZM882.13,223.8v-6.47c.22,0,.4.08.53.22.13.15.24.37.33.67.09.3.16.64.2,1.03.04.39.06.83.06,1.31s-.02.93-.06,1.34c-.04.41-.1.75-.2,1.03-.09.28-.2.49-.33.64-.13.15-.31.22-.53.22Z"/>
    <path class="st2" d="M882.13,223.8c-.22,0-.4-.07-.53-.22-.13-.15-.24-.36-.33-.64-.09-.28-.16-.62-.2-1.03-.04-.41-.06-.85-.06-1.34,0-.67.04-1.24.11-1.7.08-.47.2-.84.36-1.12s.38-.42.64-.42v6.47ZM882.13,223.8v-6.47h8.15l-1.67,1.73v-17.57h7.48v22.32h-13.95ZM896.07,223.8v-6.47h4.52c1.19,0,2.1-.18,2.73-.53.63-.35,1.07-1.08,1.31-2.18.24-1.1.36-2.74.36-4.94v-10.99h7.48v10.99c0,3.31-.42,6.01-1.26,8.09-.84,2.08-2.13,3.61-3.88,4.57-1.75.97-4,1.45-6.75,1.45h-4.52ZM900.15,190.66v-6.36h7.2v6.36h-7.2ZM905.56,182.12v-5.58h6.47v5.58h-6.47ZM914.93,223.8c-1.53,0-3.04-.29-4.55-.86-1.51-.58-2.89-1.44-4.16-2.59l4.57-4.74c.74.6,1.44,1.03,2.09,1.31.65.28,1.33.42,2.04.42h10.43l-3.85,3.52v-12.39c0-.59-.07-1.5-.2-2.71-.13-1.21-.32-2.58-.56-4.13-.24-1.54-.53-3.11-.86-4.71l7.37-1.12c.26,1.34.51,2.84.75,4.49.24,1.66.46,3.22.64,4.69.19,1.47.28,2.63.28,3.49v15.34h-14ZM910.3,190.66v-6.36h7.2v6.36h-7.2Z"/>
    <path class="st2" d="M956.05,237.64c-1.38,0-2.82-.1-4.32-.31-1.51-.2-3.12-.47-4.83-.81l1.12-5.97c1.86.22,3.44.39,4.74.5,1.3.11,2.4.17,3.29.17,2.68,0,4.61-.48,5.8-1.45,1.19-.97,1.79-2.42,1.79-4.35v-24.49l1.84,1.34h-6.97c-1.53,0-2.75.18-3.68.53-.93.35-1.61,1.08-2.04,2.18-.43,1.1-.64,2.76-.64,4.99s.2,3.71.59,4.77,1.05,1.76,1.98,2.09c.93.33,2.19.5,3.79.5h5.13v6.47h-5.13c-3.16,0-5.77-.5-7.81-1.51-2.05-1-3.56-2.53-4.55-4.57-.99-2.05-1.48-4.63-1.48-7.75s.49-5.74,1.48-7.84c.99-2.1,2.5-3.68,4.55-4.74,2.05-1.06,4.65-1.59,7.81-1.59h12.61v29.63c0,2.53-.62,4.71-1.87,6.56-1.25,1.84-2.99,3.25-5.24,4.21-2.25.97-4.9,1.45-7.95,1.45Z"/>
  </g>
</svg>