<?xml version="1.0" encoding="UTF-8"?>
<svg id="Layer_1" xmlns="http://www.w3.org/2000/svg" version="1.1" viewBox="0 0 1080 900">
  <!-- Generator: Adobe Illustrator 30.0.0, SVG Export Plug-In . SVG Version: 2.1.1 Build 123)  -->
  <defs>
    <style>
      .st0 {
        fill: #fcfcfc;
      }

      .st1 {
        fill: #254384;
      }

      .st2 {
        fill: #213768;
      }

      .st3 {
        fill: #1f3264;
      }

      .st4 {
        fill: #231f20;
      }

      .st5 {
        fill: #f47458;
      }

      .st6 {
        fill: #ffc3b5;
      }

      .st7 {
        fill: #3e4654;
      }

      .st8 {
        fill: #293241;
      }

      .st9 {
        fill: #f4b34a;
      }

      .st10 {
        fill: #d1d1d1;
      }

      .st11 {
        fill: #fec55e;
      }
    </style>
  </defs>
  <g id="_Слой_2">
    <path class="st11" d="M682.31,243.51l-23.57,10.46c-6.03,2.68-13.09-.05-15.77-6.07l-10.46-23.57c-2.68-6.03.04-13.09,6.07-15.77l23.58-10.46c6.03-2.68,13.09.05,15.77,6.07l10.46,23.58c2.67,6.03-.05,13.09-6.07,15.77h0Z"/>
    <rect class="st1" x="217.81" y="229.71" width="23.99" height="23.99" rx="8" ry="8"/>
    <rect class="st1" x="875.4" y="125.96" width="23.99" height="23.99" rx="8" ry="8"/>
    <path d="M693.33,33.01c-1.91,0-3.82-.72-5.27-2.18h0l-8.51-8.51c-1.41-1.41-2.18-3.29-2.18-5.27s.78-3.87,2.18-5.27l8.51-8.51c2.91-2.91,7.64-2.91,10.56,0l8.51,8.51c1.41,1.41,2.18,3.29,2.18,5.27s-.78,3.87-2.18,5.27l-8.51,8.51c-1.45,1.45-3.36,2.18-5.27,2.18h0ZM690.16,28.72c1.74,1.74,4.59,1.74,6.34,0l8.51-8.51c.84-.84,1.31-1.97,1.31-3.17s-.46-2.32-1.31-3.17l-8.51-8.51c-1.74-1.74-4.59-1.74-6.34,0l-8.51,8.51c-.84.84-1.31,1.97-1.31,3.17s.46,2.32,1.31,3.17l8.51,8.51h0Z"/>
    <path d="M497.02,180.06c-1.91,0-3.82-.72-5.27-2.18l-8.51-8.51c-2.91-2.91-2.91-7.64,0-10.56l8.51-8.51c2.91-2.91,7.64-2.91,10.56,0l8.51,8.51c2.91,2.91,2.91,7.64,0,10.56l-8.51,8.51c-1.45,1.45-3.36,2.18-5.27,2.18h0ZM497.02,151.08c-1.15,0-2.29.43-3.17,1.3l-8.51,8.51c-1.74,1.74-1.74,4.59,0,6.34l8.51,8.51c1.74,1.74,4.59,1.74,6.34,0l8.51-8.51c1.74-1.74,1.74-4.59,0-6.34l-8.51-8.51c-.87-.87-2.02-1.3-3.17-1.3h0Z"/>
    <rect class="st11" x="298.85" y="110.92" width="105.99" height="5.97" rx="2" ry="2"/>
  </g>
  <g id="Layer_11">
    <g>
      <g>
        <path class="st7" d="M871.31,896.49c74.3-29.92,80.35-136.78,36.9-195.24-43.45-58.46-50.74-78.95-35.17-172.72,24.89-149.89-139.61-302.06-446.44-187.09-246.76,92.45-296.5,397.79-146.77,555.05h591.48Z"/>
        <path class="st4" d="M924.65,893.98H180.28c-1.3,0-2.36,1.08-2.39,2.42v.06c-.03,1.4,1.05,2.55,2.39,2.55h744.38c1.4,0,2.53-1.12,2.53-2.51s-1.13-2.51-2.53-2.51Z"/>
      </g>
      <g>
        <g>
          <polygon class="st2" points="805.25 894.19 338.89 893.48 338.89 616.8 811.94 616.8 805.25 894.19"/>
          <rect class="st3" x="329.18" y="616.76" width="486.26" height="66.1"/>
          <g>
            <path class="st6" d="M790.65,578.97c-.45,1.64-.7,2.18-1.26,3.29-3.65,7.1-12.13,17.22-12.13,17.22l-6.56-15.77s1.07-4.95,2.92-12.03c6.33,1.76,12.36,2.78,17.03,7.29h0Z"/>
            <path class="st10" d="M753.07,565.3s36.56,16.8,37.75,16.48c.76-.21,15-25.64,15.16-49.55.07-11.04-10.68-24.34-22.67-21.7-6.04,1.32-5.94,3.11-14.88,16.96-8.94,13.85-15.34,37.81-15.34,37.81h-.02Z"/>
            <path class="st6" d="M721.85,866.57s.86,15.32.87,15.35c.32,1.95,1.57,6.75,1.57,8.52,0,6.64-29.56-5.64-22.94-8.58.6-.27,3.74-2.29,3.94-4.54.31-3.48-.77-10.97-.77-10.97l17.32.22h0Z"/>
            <path class="st4" d="M701.44,881.8s6.94,2.03,10.49,2.54,8.24-3.77,10.75-2.61c2.77,1.26,2.66,12.73,2.66,12.73,0,0-36.39,1.26-47.69-.11-4.32-.53,9.58-7.8,23.78-12.53h0Z"/>
            <path class="st6" d="M782.34,866.57s.86,15.32.87,15.35c.32,1.95,1.57,6.75,1.57,8.52,0,6.64-29.56-5.64-22.94-8.58.6-.27,4.67-3.78,4.87-6.04.31-3.48.14-9.03.14-9.03l15.48-.22h0Z"/>
            <path class="st4" d="M761.93,881.8s6.94,2.03,10.49,2.54,8.24-3.77,10.75-2.61c2.77,1.26,2.89,12.73,2.89,12.73,0,0-37.11,1.47-47.91-.11-4.31-.64,9.59-7.8,23.78-12.53h0Z"/>
            <path class="st6" d="M774.42,554.49l-37.47,28.1c-.34.13-1.01.4-2.06.82-3.78,1.52-11.66,4.68-19.53,7.48l-.08.03c-2.74.9-7.53,2.74-12.16,4.52-5.14,1.99-11.52,4.44-12.63,4.57-.2-.06-.53-.16-1-.3-2.7-.81-9.06-1.76-11.81-2.07-1.75-.2-6-.25-5.9,1.68.17,3.05,4.32,1.37,7.03,2.62-1.74.61-5.18,1.85-8.69,2.59l-8.24.96c-.62.13-5.21-.24-5.1,1.89v.1c.26,1.91,5.11,1.6,13.36,1.97-.94.31-2.05.62-3.09.86-.56,0-3.01.53-4.29.89-2.3-.26-5.9.16-5.43,2.42.23,1.13,5.26.77,5.26.77.68-.06,6-.4,7.05-.42-1.77.33-9.33,1.66-9.24,3.45.08,1.49,2.14,1.49,3.76,1.38.96-.07,9.15-1.45,10.11-1.55-1.21.77-9.31.78-9.27,1.46.16,2.89,14.75,1.05,15.37.89,1.82-.46,4.87-1.23,7.55-2.89,3.21-2,8.36-4.79,9.13-5.21,1.64-.37,7.5-1.56,14.89-3.06,3.17-.65,6.63-1.34,10.22-2.08v-.03c.78-.14,3.23-.82,12.47-3.38,12.64-3.51,13.17-3.83,13.4-3.96,2.24-1.34,41.36-31.58,43.02-32.86l.98-.76-17.61-10.89h0v.03Z"/>
            <g>
              <path class="st6" d="M779.6,485.52l3.35,22.62s-12.77,10.94-20.22,8.64c-6.25-1.94-1.97-10.65-1.97-10.65,0,0,3.33-12.07,2.3-18.41-1.02-6.33,16.52-2.2,16.52-2.2h0Z"/>
              <path class="st2" d="M777.18,492.36c-3.2,1.61-9.54,3.81-14.45,4.36.47-3.17.74-6.52.35-8.98-.47-2.92,3.02-3.62,6.89-3.51,5.09.46,9.62,1.31,9.62,1.31l.65,4.36c-.97,1.09-1.99,1.96-3.05,2.49h0v-.02Z"/>
              <path class="st6" d="M795.71,459.42c.53,0-5.05,25.27-13.69,29.63-8.63,4.36-21.5,2.08-23.91-4.72-2.67-7.53,7.07-33.31,19.21-36.59s18.39,11.69,18.39,11.69h0Z"/>
              <path class="st4" d="M785.73,436.2c6.88,4.24,10.05,10.54,11.12,13.11,3.23,1.64,7.15,5.18,9.03,14.73,2.3,11.74-5.9,20.79-14.61,23.51-8.71,2.73-10.09,8.63-10.09,8.63l-.95-6.37s1.94-5.76,4.85-8.65c2.91-2.89-1.38-7.09-1.75-10.52-.29-2.64,1.53-7.77,1.13-12.1,0,0-4.83-7.83-9.61-9.76-8.13-3.3,2.04-18.03,10.88-12.59h0Z"/>
              <path class="st6" d="M782.07,475.05c-1.12,2.92-.67,5.82,1.03,6.47s3.99-1.18,5.11-4.09.67-5.82-1.03-6.47-3.99,1.18-5.11,4.09Z"/>
            </g>
            <path class="st4" d="M775.64,624.84s5.01,25.84,2.97,45.46c-2.04,19.6-2.2,89.23-2.2,89.23l7.79,111.41-18.49.43s-21.92-111.36-21.51-108.5c.41,2.86-7.35-78.41-7.35-78.41l26.14-62.07,12.66,2.44h0Z"/>
            <path class="st8" d="M770.75,623.62s3.27,23.28-.81,33.49c-4.08,10.21-35.03,110.38-35.44,118.55-.41,8.17-10.7,98.44-10.7,98.44l-21.5-.65-4.65-100.37,9.74-126.15,9.46-31.9,53.91,8.58h-.02,0Z"/>
            <path class="st6" d="M782.95,508.15s-5.3,3.71-10.25,3.29c-4.95-.43-11.93-5.3-11.93-5.3l.97-3.51s12.8-1.99,13.11-1.78c.32.22,8.1,7.31,8.1,7.31h0Z"/>
            <path class="st0" d="M716.78,589.4c2.82-16.38,9.78-46.56,15.22-55.64,2.39-3.98,13-30.03,28.81-27.76,11.01,1.59,22.13,2.13,22.13,2.13,0,0,9.83,1.72,14.15,6.04,4.33,4.32,5.47,16.28-.75,38.98-4.91,17.92-10.99,27.76-13.99,40.8-.61,4.38-1.13,8.69-1.82,13.74-1.11,19.52.02,45.3.02,45.3,0,0-53.5,11.85-73.5-6.13,0,0,6.86-40.7,9.75-57.49h0l-.03.02Z"/>
            <path class="st9" d="M646.05,727.35l63.12,17.29c1.85.51,3.8-.96,4.28-3.19l6.74-43c1.15-5.45,1.05-11.45-3.47-12.67l-55.14-15.11c-1.75-.48-3.64.82-4.21,2.92l-13.45,49.09c-.57,2.1.38,4.18,2.14,4.66h0Z"/>
            <polygon class="st9" points="697.13 749.83 710.91 744.56 703.43 736.55 697.41 736.7 697.13 749.83"/>
            <path class="st9" d="M671.98,680.42l3.93,1.08,3.56-13c.79-2.88,3.39-4.68,5.79-4.02l8.49,2.33c2.41.66,3.73,3.54,2.94,6.41l-3.56,13,3.93,1.08,3.56-13c1.5-5.46-1.01-10.93-5.58-12.19l-8.49-2.33c-4.57-1.26-9.53,2.17-11.02,7.64l-3.56,13h0Z"/>
            <path class="st11" d="M716.71,685.78c-1.36-.37-62.47-17.11-64.52-17.68-1.67-.46-3.48.7-4.13,2.65l-.5,1.19h0l-22.4,52.81c-.6,1.41.15,3.04,1.62,3.51,13.26,4.16,70.3,21.57,70.3,21.57,1.46.4,10.01-39.24,13.37-55.12.61-2.85,4.09-4.11,6.34-2.09,4.03,3.63,2.01,13.91,2.01,13.91l.26-.95,1.12-7.13c1.15-5.45,1.05-11.45-3.47-12.67h-.02v-.02Z"/>
            <path class="st6" d="M697.05,654.75s-1.24-.38-5.42.94c-4.19,1.32-8.36,6.56-7.96,8.72s3.48,2.16,3.48,2.16c0,0,.7,3.73,2.37,4.18,1.67.46,3.28,1.31,4.03,2.16.75.86,4.28,1.82,6.9-.4s7.67-13.84,7.67-13.84c0,0,35.66-38.88,37.94-47.5,2.27-8.62,13.76-47.17,13.76-47.17l-25.09-3.03s-7.26,27.97-9.53,35.68c-2.27,7.71-28.15,58.09-28.15,58.09h0Z"/>
            <path class="st10" d="M728.6,567.78s27.39,8.02,28.5,7.51c.71-.33,17.07-33.28,15.33-53.19-.96-11.01-12.91-18.32-20.99-14.57-5.6,2.6-7.4,5.29-13.93,20.43-6.53,15.13-8.92,39.81-8.92,39.81h0Z"/>
            <path class="st9" d="M697.54,715.05l-53.43-16.31-1-8.35c-.08-.67.39-1.26,1.06-1.34.67-.08,1.26.39,1.34,1.06l.81,6.78,50.59,15.45,6-5.57c.5-.46,1.26-.42,1.7.06.46.5.42,1.26-.06,1.7l-7.01,6.52h-.02,0Z"/>
            <path class="st5" d="M685.46,608.26s-5.87-1.8-6.09-5.55c0,0-.69,2.15.93,3.86s5.16,1.7,5.16,1.7h0Z"/>
            <rect class="st0" x="653.1" y="586.05" width="25.08" height="33.69" transform="translate(-173.42 282.68) rotate(-21.28)"/>
            <path class="st6" d="M677.02,597.62s-6.96-.96-7.16,1.21,8.72,3.43,9.27,4.18-.66-4.58-.66-4.58l-1.46-.81h0Z"/>
          </g>
        </g>
        <g>
          <path class="st0" d="M684.24,355.69v76.28c0,5.38-4.36,9.73-9.73,9.73h-96.99l-54.1,31.1,9.73-31.1h0c-5.38,0-9.73-4.36-9.73-9.73v-76.28c0-5.38,4.36-9.73,9.73-9.73h141.35c5.38,0,9.73,4.36,9.73,9.73h0Z"/>
          <path class="st10" d="M664.53,374.87h-118.4c-3.03,0-5.47-2.44-5.47-5.47h0c0-3.03,2.44-5.47,5.47-5.47h118.4c3.03,0,5.47,2.44,5.47,5.47h0c0,3.03-2.44,5.47-5.47,5.47Z"/>
          <path class="st10" d="M664.53,391.29h-118.4c-3.03,0-5.47-2.44-5.47-5.47h0c0-3.03,2.44-5.47,5.47-5.47h118.4c3.03,0,5.47,2.44,5.47,5.47h0c0,3.03-2.44,5.47-5.47,5.47Z"/>
          <path class="st10" d="M624.34,409.15h-76.91c-3.03,0-5.47-2.44-5.47-5.47h0c0-3.03,2.44-5.47,5.47-5.47h76.91c3.03,0,5.48,2.44,5.48,5.47h0c0,3.03-2.44,5.47-5.48,5.47Z"/>
        </g>
        <g>
          <path class="st6" d="M570.09,518.96c-.38-1.47-29.67,8.2-34.81,12.25-4.72,3.73-27.04,31.51-31.39,36.82l-26.31-30.01-16.21,14.75s33.3,40.01,44.35,40.01c5.86,0,17.69-27.14,27.46-43.18,1.6-2.38,2.78-3.99,3.3-4.36,2.84-2,9.94-.54,12.2-1.13,2.25-.59,4.92-2.67,5.58-3.8s1.85-2.28,1.41-3.95-.09-2.69.16-4.41-1.19-3.43-1.3-3.84c-.1-.41,15.94-7.69,15.56-9.16h0v.02Z"/>
          <path class="st6" d="M378.26,558.63c-11.22,36.58-10.63,35.58-9.17,58.12h13.56c-.43-9.4-.13-17.57-.13-17.57l12.01-29.41c-7.61-10.67-16.28-11.15-16.28-11.15h0Z"/>
          <path class="st2" d="M449.32,458.14c3.76,6.99,6.54,9.65,13.78,12.93,4.86,2.2,8.39,10.51,6.74,16.76-4.2,15.82,7,11.63,15.9,20.15,21.43,20.5-14.1,39.84-19.18,43.11-5.08,3.26-13.75,5.5-17.13,6-10.18,1.47-24.67-4.83-33.08-16.53-8.39-11.7-21.36-9.56-18.71-16.84,5.02-13.82-3.24-11.72-5.53-29.16-2.15-16.33,2.52-32.82,12.69-40.93,13.05-10.39,36.19-10.97,44.51,4.53h0Z"/>
          <path class="st0" d="M465.92,563.02l6.16,5.91c6.44-1.59,19.42-16.33,19.42-16.33,0,0-20.26-27.16-35.69-36.07-15.42-8.9-29.07-7.12-29.07-7.12,0,0-19.86,3.58-25.44,6.24-5.88,2.8-18.75,15.87-29.11,48.84,4.14,4.57,18.91,11.11,22.41,11.55,3.33-10.55,4.17-11.22,4.17-11.22.63,6.62-3.31,51.93-3.31,51.93h72.2l-1.74-53.74v.02h0Z"/>
          <path class="st6" d="M424,489.45s-.59,13.44-2.29,18.39c-1.7,4.95,3.59,22.9,14.3,25.52,10.71,2.62.19-21.33.37-26.53.18-5.21,3.62-20.64,3.62-20.64l-15.99,3.26h0Z"/>
          <path class="st2" d="M424,489.45s-.04.91-.13,2.33c.84.68,1.76,1.31,2.77,1.89,4.26,2.43,8.13,2.83,11.41,1.89.95-4.93,1.93-9.38,1.93-9.38l-15.99,3.26h0Z"/>
          <path class="st6" d="M427.22,452.74s-6.28,1.74-9.9,7.92c-3.62,6.18-5.42,23.93,7.9,31.5,13.32,7.58,22.78-4.56,22.38-15.91-.4-11.35-3.59-26.36-20.38-23.52h0Z"/>
          <path class="st6" d="M417.9,476.44c1.09,2.9.37,5.85-1.59,6.59-1.97.73-4.43-1.02-5.52-3.92s-.37-5.85,1.59-6.59c1.97-.73,4.43,1.02,5.52,3.92Z"/>
        </g>
        <g>
          <g>
            <path class="st7" d="M279.99,824.58s66.08-49.05,75.13-70.19c9.06-21.14-9.61-18.75-9.61-18.75,0,0,26.69-37.81,19.6-50.3-7.09-12.5-21.82,3.47-21.82,3.47,0,0,12.37-51.15,1.61-53.98-20.05-5.3-36.49,49.74-36.49,49.74,0,0,1.48-22.86-11.07-19.77-18.92,4.65-8.91,53.84-8.91,53.84,0,0-6.03-8.72-16.4-.42-18.61,14.89,7.97,106.37,7.97,106.37h0Z"/>
            <path class="st0" d="M269.22,719.47c10.38-8.3,19.2-.85,19.2-.85,0,0-10.01-49.2,8.91-53.84,12.54-3.07,11.07,19.77,11.07,19.77,0,0,16.45-55.04,36.49-49.74l-65.41,189.61c-2.92-11.84-27.67-91.04-10.28-104.95h0Z"/>
          </g>
          <path class="st10" d="M280.08,822.87s67.72-.07,81.69-11.81c13.98-11.74-3.17-12.66-3.17-12.66,0,0,32.36-17.18,31.89-28.64-.47-11.46-11.45-9.15-11.45-9.15,0,0,22.37-20.04,17.77-29.75-7.05-14.93-39.04,13.39-39.04,13.39,0,0,2.44-11.35-7.48-13.72-14.97-3.58-30.14,38.97-30.14,38.97,0,0,7.16-19.17-3.12-17.03-18.44,3.82-36.95,70.4-36.95,70.4h0Z"/>
          <g>
            <path class="st8" d="M277.26,826.64s-60.1-51.29-67.43-71.95c-7.33-20.66,10.29-17.25,10.29-17.25,0,0-23.09-37.59-15.6-49.05,7.49-11.46,20.55,4.62,20.55,4.62,0,0-8.67-49.41,1.74-51.46,19.39-3.83,31.71,49.54,31.71,49.54,0,0-.02-21.84,11.74-18.14,17.72,5.56,5.22,51.76,5.22,51.76,0,0,6.54-17.27,15.91-8.75,16.8,15.3-14.1,110.68-14.1,110.68h-.03Z"/>
            <path class="st10" d="M297.13,705.97c-10.95-6.37-17.59,5.17-17.59,5.17,0,0,8.43-32.64-9.29-38.19-11.75-3.69-11.74,18.14-11.74,18.14,0,0-12.32-53.37-31.71-49.54l48.89,195.43c3.5-11.09,41.23-119.51,21.43-131.01h0Z"/>
          </g>
          <path class="st10" d="M271.21,819.28s-66.02.02-75.21-1.05c-9.18-1.07.96-9.26.96-9.26,0,0-20.54.75-23.68-4.24s5.26-6.96,5.26-6.96c0,0-20.46-5.93-19.48-10.28,1.82-8.1,24.41-2.82,24.41-2.82,0,0-8.39-4.07-4.97-7.86,5.14-5.71,27.11,9.82,27.11,9.82,0,0-7.54-14.37-3.38-17.58,17.42-13.45,68.98,50.24,68.98,50.24h0Z"/>
          <path class="st0" d="M223.55,893.6h109.89c13.99-12.79,22.52-30.39,22.21-49.7-.16-9.75-2.16-18.26-6.35-26.6l-141.68,1.59c-3.92,8.48-6.01,17.8-5.86,27.55.3,18.4,8.56,34.99,21.79,47.15h0Z"/>
        </g>
      </g>
    </g>
  </g>
</svg>