<?xml version="1.0" encoding="UTF-8"?>
<svg id="Layer_1" data-name="Layer 1" xmlns="http://www.w3.org/2000/svg" viewBox="0 0 24 24">
  <defs>
    <style>
      .cls-1 {
        fill: #e0e0e0;
      }
    </style>
  </defs>
  <path class="cls-1" d="M22.44,7.49c-.01-.17-.03-.28.15-.34l-.29-2.08-13.8,1.87c-.07-.15-.1-.31-.06-.44l1.94-.66-2.2-1.18,1.41-.48,2.3,1.18,1.49-.52-2.2-1.17,1.41-.5,2.29,1.18,1.52-.51-2.22-1.18c.48-.22.93-.34,1.43-.5l2.3,1.21,1.49-.52-2.23-1.21,1.43-.48,2.32,1.21.93-.31L21.18.03,4.31,5.59c.03.15-.04.26-.03.39l.47,3.59c.1.01.17,0,.28.04l1.46,10.61,17.37-2.36-1.41-10.38ZM5.34,6.72c-.14,0-.26-.12-.26-.26s.12-.26.26-.26.26.12.26.26-.12.26-.26.26ZM5.79,9.02c-.14,0-.26-.12-.26-.26s.12-.26.26-.26.26.12.26.26-.12.26-.26.26ZM19.77,5.7l1.52-.19-1.49,2.06-1.52.2,1.49-2.07ZM16.65,6.12l1.49-.19-1.47,2.06-1.52.19,1.5-2.06ZM13.52,6.56c.47-.07.9-.16,1.47-.19l-1.43,2.03c-.52.1-.99.16-1.53.2l1.49-2.04ZM10.4,6.96c.48-.04.92-.17,1.46-.16l-1.46,2.04-1.5.19,1.5-2.07ZM7.8,8.09c.14,0,.26.12.26.26s-.12.26-.26.26-.26-.12-.26-.26.12-.26.26-.26ZM7.34,5.81c.14,0,.26.12.26.26s-.12.26-.26.26-.26-.12-.26-.26.12-.26.26-.26ZM6.61,12.09c-.06-.2-.04-.36-.01-.47,4.97-.67,9.95-1.36,14.92-2.04.06.1.12.26.13.47,0,.07-.01.15-.01.2l-14.94,2.03s-.06-.12-.09-.19ZM20.83,11.48l-1.2,3.41-1.41.16,1.2-3.38,1.41-.19ZM17.74,11.95l-1.18,3.35c-.47.1-.89.15-1.41.2l1.18-3.4c.48-.06.92-.16,1.41-.16ZM14.65,12.34l-1.2,3.38c-.5.07-.92.16-1.4.16l1.18-3.35c.47-.09.93-.17,1.41-.19ZM11.13,12.82l-1.18,3.37c-.47.12-.89.15-1.41.2l1.18-3.4,1.41-.17ZM22.39,16.1l-14.94,2.03s-.06-.12-.09-.19c-.01-.04-.03-.09-.01-.12-.01-.01-.01-.03-.01-.04-.01-.13,0-.23.01-.31,4.97-.67,9.95-1.36,14.92-2.04.03.06.07.15.1.25.03.04.03.09.01.13.01.03.01.06.01.09,0,.07-.01.15-.01.2Z"/>
</svg>