<?xml version="1.0" encoding="UTF-8"?>
<svg id="Layer_1" data-name="Layer 1" xmlns="http://www.w3.org/2000/svg" viewBox="0 0 24 24">
  <defs>
    <style>
      .cls-1 {
        fill: #e0e0e0;
        fill-rule: evenodd;
      }
    </style>
  </defs>
  <path class="cls-1" d="M19.69,12c0,3.84-3.11,6.96-6.96,6.96-2.75,0-5.24-1.62-6.36-4.12l-2.15.87c2.05,4.7,7.52,6.84,12.22,4.79,3.38-1.48,5.57-4.81,5.57-8.5,0-5.12-4.15-9.28-9.28-9.28-2.88,0-5.59,1.33-7.35,3.61v-2.84h-2.32v6.19l1.16,1.16h5.41v-2.32h-2.93c1.92-3.33,6.18-4.47,9.5-2.55,2.16,1.24,3.48,3.54,3.48,6.03Z"/>
</svg>